G04 start of page 5 for group -4063 idx -4063 *
G04 Title: (unknown), componentmask *
G04 Creator: pcb 20140316 *
G04 CreationDate: Tue Feb 26 01:41:17 2019 UTC *
G04 For: tim *
G04 Format: Gerber/RS-274X *
G04 PCB-Dimensions (mil): 2834.65 3051.18 *
G04 PCB-Coordinate-Origin: lower left *
%MOIN*%
%FSLAX25Y25*%
%LNTOPMASK*%
%ADD89R,0.0230X0.0230*%
%ADD88R,0.0400X0.0400*%
%ADD87R,0.0350X0.0350*%
%ADD86R,0.1051X0.1051*%
%ADD85R,0.0300X0.0300*%
%ADD84C,0.0300*%
%ADD83R,0.1281X0.1281*%
%ADD82R,0.0887X0.0887*%
%ADD81R,0.0355X0.0355*%
%ADD80R,0.0572X0.0572*%
%ADD79C,0.0960*%
%ADD78C,0.0760*%
%ADD77C,0.1770*%
%ADD76C,0.1570*%
%ADD75C,0.0420*%
%ADD74C,0.0001*%
%ADD73C,0.0660*%
G54D73*X165957Y199531D03*
Y189531D03*
Y179531D03*
Y169531D03*
Y159531D03*
Y149531D03*
Y139531D03*
Y129531D03*
Y119531D03*
Y109531D03*
Y99531D03*
Y89531D03*
Y79531D03*
X175957D03*
Y89531D03*
Y99531D03*
Y109531D03*
Y119531D03*
Y129531D03*
G54D74*G36*
X230157Y62331D02*Y55731D01*
X236757D01*
Y62331D01*
X230157D01*
G37*
G54D73*X223457Y59031D03*
X233457Y69031D03*
X223457D03*
X233457Y79031D03*
X223457D03*
X233457Y89031D03*
X223323Y32394D03*
X223457Y89031D03*
Y99031D03*
Y109031D03*
X233457Y99031D03*
Y109031D03*
Y119031D03*
Y129031D03*
Y139031D03*
Y149031D03*
X223457Y119031D03*
Y129031D03*
Y139031D03*
Y149031D03*
G54D75*X94051Y91126D03*
Y81283D03*
X84209D03*
Y91126D03*
G54D74*G36*
X50657Y41831D02*Y35231D01*
X57257D01*
Y41831D01*
X50657D01*
G37*
G54D73*X43957Y38531D03*
X33957D03*
X10528Y28457D03*
G54D74*G36*
X19460Y121831D02*Y115231D01*
X26060D01*
Y121831D01*
X19460D01*
G37*
G54D73*X22760Y108531D03*
Y98531D03*
G54D74*G36*
X4275Y123686D02*Y117086D01*
X10875D01*
Y123686D01*
X4275D01*
G37*
G54D73*X7575Y110386D03*
Y100386D03*
Y90465D03*
Y80425D03*
G54D74*G36*
X52503Y59906D02*Y53306D01*
X59103D01*
Y59906D01*
X52503D01*
G37*
G54D73*X45803Y56606D03*
X35803D03*
G54D74*G36*
X38330Y74867D02*Y68267D01*
X44930D01*
Y74867D01*
X38330D01*
G37*
G54D73*X31630Y71567D03*
X21630D03*
G54D76*X112953Y262949D03*
X131457Y274760D03*
G54D77*Y251531D03*
G54D74*G36*
X162657Y242831D02*Y236231D01*
X169257D01*
Y242831D01*
X162657D01*
G37*
G54D73*X165957Y229531D03*
Y219531D03*
Y209531D03*
G54D74*G36*
X35157Y250831D02*Y243231D01*
X42757D01*
Y250831D01*
X35157D01*
G37*
G54D78*X48957Y247031D03*
Y255031D03*
X38957D03*
G54D79*X67957Y266031D03*
X19957D03*
G54D74*G36*
X52657Y222831D02*Y216231D01*
X59257D01*
Y222831D01*
X52657D01*
G37*
G54D73*X45957Y219531D03*
X35957D03*
X25957D03*
X55957Y209531D03*
X45957D03*
X35957D03*
X25957D03*
X175957Y139531D03*
Y149531D03*
Y159531D03*
Y169531D03*
Y179531D03*
Y189531D03*
Y199531D03*
Y209531D03*
Y219531D03*
Y229531D03*
Y239531D03*
X233457Y159031D03*
X223457D03*
Y169031D03*
Y179031D03*
X233457Y169031D03*
Y179031D03*
Y189031D03*
Y199031D03*
Y209031D03*
Y219031D03*
X223457Y189031D03*
Y199031D03*
Y209031D03*
Y219031D03*
X233457Y229031D03*
Y239031D03*
Y249031D03*
X223457Y229031D03*
Y239031D03*
Y249031D03*
G54D74*G36*
X221657Y273831D02*Y267231D01*
X228257D01*
Y273831D01*
X221657D01*
G37*
G54D73*X214957Y270531D03*
G54D74*G36*
X221157Y301331D02*Y292731D01*
X229757D01*
Y301331D01*
X221157D01*
G37*
G54D78*X215457Y297031D03*
X205457D03*
X195457D03*
G54D74*G36*
X266657Y260331D02*Y253731D01*
X273257D01*
Y260331D01*
X266657D01*
G37*
G54D73*X269957Y267031D03*
Y277031D03*
G54D80*X193500Y249924D02*Y249138D01*
Y219924D02*Y219138D01*
X186414Y249924D02*Y249138D01*
Y219924D02*Y219138D01*
Y209924D02*Y209138D01*
Y199924D02*Y199138D01*
Y189924D02*Y189138D01*
Y179924D02*Y179138D01*
X193500Y239924D02*Y239138D01*
X186414Y239924D02*Y239138D01*
G54D81*X201398Y250023D02*Y249039D01*
X206516Y250023D02*Y249039D01*
X201398Y240023D02*Y239039D01*
X206516Y240023D02*Y239039D01*
X201398Y230023D02*Y229039D01*
X206516Y230023D02*Y229039D01*
G54D80*X193500Y209924D02*Y209138D01*
Y199924D02*Y199138D01*
Y189924D02*Y189138D01*
Y179924D02*Y179138D01*
Y169924D02*Y169138D01*
X186414Y169924D02*Y169138D01*
X193500Y159924D02*Y159138D01*
X186414Y159924D02*Y159138D01*
G54D81*X201398Y220023D02*Y219039D01*
Y210023D02*Y209039D01*
Y200023D02*Y199039D01*
X206516Y220023D02*Y219039D01*
Y210023D02*Y209039D01*
Y200023D02*Y199039D01*
Y190023D02*Y189039D01*
Y180023D02*Y179039D01*
Y170023D02*Y169039D01*
X201398Y190023D02*Y189039D01*
Y180023D02*Y179039D01*
Y170023D02*Y169039D01*
Y160023D02*Y159039D01*
X206516Y160023D02*Y159039D01*
X201898Y150023D02*Y149039D01*
X201398Y140023D02*Y139039D01*
X207016Y150023D02*Y149039D01*
X206516Y140023D02*Y139039D01*
G54D82*X185309Y20949D02*Y5201D01*
G54D80*X193500Y129924D02*Y129138D01*
Y119924D02*Y119138D01*
Y109924D02*Y109138D01*
X186414Y129924D02*Y129138D01*
Y119924D02*Y119138D01*
Y109924D02*Y109138D01*
Y99924D02*Y99138D01*
Y89924D02*Y89138D01*
Y79924D02*Y79138D01*
X193500Y99924D02*Y99138D01*
Y89924D02*Y89138D01*
Y79924D02*Y79138D01*
Y69924D02*Y69138D01*
X186414Y69924D02*Y69138D01*
G54D81*X187090Y61941D02*Y60957D01*
Y55248D02*Y54264D01*
G54D80*X186414Y139924D02*Y139138D01*
X193500Y139924D02*Y139138D01*
X185914Y149924D02*Y149138D01*
X193000Y149924D02*Y149138D01*
G54D83*X203025Y18981D02*Y7170D01*
G54D81*X201398Y129523D02*Y128539D01*
X206516Y129523D02*Y128539D01*
X201398Y120023D02*Y119039D01*
X206516Y120023D02*Y119039D01*
X201398Y110023D02*Y109039D01*
X206516Y110023D02*Y109039D01*
X201398Y100023D02*Y99039D01*
X206516Y100023D02*Y99039D01*
X201398Y90023D02*Y89039D01*
Y70023D02*Y69039D01*
X206516Y90023D02*Y89039D01*
Y70023D02*Y69039D01*
X201398Y80023D02*Y79039D01*
X206516Y80023D02*Y79039D01*
G54D84*X78008Y156161D02*Y148287D01*
X79976Y156161D02*Y148287D01*
X81945Y156161D02*Y148287D01*
X83913Y156161D02*Y148287D01*
X85882Y156161D02*Y148287D01*
X87850Y156161D02*Y148287D01*
X89819Y156161D02*Y148287D01*
X91787Y156161D02*Y148287D01*
X93756Y156161D02*Y148287D01*
X95724Y156161D02*Y148287D01*
X97693Y156161D02*Y148287D01*
X99661Y156161D02*Y148287D01*
X101630Y156161D02*Y148287D01*
X103598Y156161D02*Y148287D01*
X105567Y156161D02*Y148287D01*
X107535Y156161D02*Y148287D01*
X65213Y190610D02*X73087D01*
X65213Y188642D02*X73087D01*
X65213Y186673D02*X73087D01*
X65213Y184705D02*X73087D01*
X65213Y182736D02*X73087D01*
X65213Y180768D02*X73087D01*
X65213Y178799D02*X73087D01*
X65213Y176831D02*X73087D01*
X65213Y174862D02*X73087D01*
X65213Y172894D02*X73087D01*
X65213Y163051D02*X73087D01*
G54D80*X58952Y150503D02*Y149717D01*
X51866Y150503D02*Y149717D01*
G54D81*X49701Y177768D02*Y176784D01*
X54819Y177768D02*Y176784D01*
G54D84*X65213Y170925D02*X73087D01*
X65213Y168957D02*X73087D01*
X65213Y166988D02*X73087D01*
X65213Y165020D02*X73087D01*
G54D80*X27260Y167039D02*Y166253D01*
G54D84*X65213Y161083D02*X73087D01*
G54D85*X53457Y125731D02*Y117031D01*
X48457Y125731D02*Y117031D01*
X43457Y125731D02*Y117031D01*
X38457Y125731D02*Y117031D01*
G54D81*X33362Y137807D02*Y136823D01*
X38480Y137807D02*Y136823D01*
X20961Y145878D02*Y144894D01*
X26079Y145878D02*Y144894D01*
G54D80*X27260Y157984D02*Y157198D01*
X20174Y157984D02*Y157198D01*
Y167039D02*Y166253D01*
G54D82*X90820Y20949D02*Y5201D01*
G54D83*X108537Y18981D02*Y7170D01*
G54D82*X138065Y20949D02*Y5201D01*
G54D83*X120348Y18981D02*Y7170D01*
X155781Y18981D02*Y7170D01*
X167592Y18981D02*Y7170D01*
G54D86*X124339Y60543D02*X137945D01*
X159945D02*X173213D01*
G54D81*X181972Y61941D02*Y60957D01*
Y55248D02*Y54264D01*
G54D82*X232272Y20843D02*Y5094D01*
G54D83*X249988Y18874D02*Y7063D01*
G54D82*X261612Y54587D02*X277360D01*
G54D83*X263580Y36870D02*X275391D01*
X214555Y18874D02*Y7063D01*
G54D84*X73382Y89157D02*X76335D01*
X73382Y87189D02*X76335D01*
X73382Y85220D02*X76335D01*
X73382Y83252D02*X76335D01*
X73382Y81283D02*X76335D01*
G54D81*X122339Y83673D02*Y82689D01*
X127457Y83673D02*Y82689D01*
G54D84*X73382Y79315D02*X76335D01*
X73382Y77346D02*X76335D01*
X73382Y75378D02*X76335D01*
G54D81*X122339Y76980D02*Y75996D01*
X127457Y76980D02*Y75996D01*
G54D83*X263580Y83882D02*X275391D01*
X263580Y72304D02*X275391D01*
G54D82*X43576Y20949D02*Y5201D01*
G54D83*X61293Y18981D02*Y7170D01*
X25860Y18981D02*Y7170D01*
X73104Y18981D02*Y7170D01*
G54D87*X21014Y55309D02*Y54309D01*
X17014Y60309D02*Y59309D01*
Y55309D02*Y54309D01*
X21014Y60309D02*Y59309D01*
G54D84*X73382Y97031D02*X76335D01*
X78303Y101953D02*Y99000D01*
X73382Y95063D02*X76335D01*
X73382Y93094D02*X76335D01*
X73382Y91126D02*X76335D01*
X80272Y101953D02*Y99000D01*
X82240Y101953D02*Y99000D01*
X84209Y101953D02*Y99000D01*
X86177Y101953D02*Y99000D01*
X88146Y101953D02*Y99000D01*
G54D74*G36*
X77803Y97531D02*Y74878D01*
X100457D01*
Y97531D01*
X77803D01*
G37*
G54D84*X90114Y101953D02*Y99000D01*
X92083Y101953D02*Y99000D01*
X94051Y101953D02*Y99000D01*
X96020Y101953D02*Y99000D01*
X97988Y101953D02*Y99000D01*
G54D85*X38457Y103031D02*Y94331D01*
X43457Y103031D02*Y94331D01*
X48457Y103031D02*Y94331D01*
X53457Y103031D02*Y94331D01*
G54D84*X99957Y101953D02*Y99000D01*
X101925Y97031D02*X104878D01*
X101925Y95063D02*X104878D01*
X101925Y93094D02*X104878D01*
X101925Y91126D02*X104878D01*
X101925Y89157D02*X104878D01*
X101925Y87189D02*X104878D01*
X101925Y85220D02*X104878D01*
X101925Y83252D02*X104878D01*
X101925Y81283D02*X104878D01*
X101925Y79315D02*X104878D01*
X101925Y77346D02*X104878D01*
X101925Y75378D02*X104878D01*
X78303Y73409D02*Y70457D01*
X80272Y73409D02*Y70457D01*
X82240Y73409D02*Y70457D01*
X84209Y73409D02*Y70457D01*
X86177Y73409D02*Y70457D01*
X88146Y73409D02*Y70457D01*
X90114Y73409D02*Y70457D01*
X92083Y73409D02*Y70457D01*
X94051Y73409D02*Y70457D01*
X96020Y73409D02*Y70457D01*
X97988Y73409D02*Y70457D01*
X99957Y73409D02*Y70457D01*
G54D86*X133457Y229531D02*X147063D01*
G54D80*X193500Y229924D02*Y229138D01*
X186414Y229924D02*Y229138D01*
G54D88*X85457Y255831D02*Y255231D01*
X93257Y255831D02*Y255231D01*
X89357Y264031D02*Y263431D01*
X84957Y282331D02*Y281731D01*
X92757Y282331D02*Y281731D01*
X88857Y290531D02*Y289931D01*
G54D80*X245702Y283626D02*X251212D01*
X245702Y295436D02*X251212D01*
X163202Y274126D02*X168712D01*
X163202Y285936D02*X168712D01*
X177702D02*X183212D01*
X177702Y274126D02*X183212D01*
G54D86*X98189Y229531D02*X111457D01*
G54D81*X78343Y227866D02*X79327D01*
X78343Y232984D02*X79327D01*
X90449Y241153D02*Y240169D01*
X85331Y241153D02*Y240169D01*
X90449Y234264D02*Y233280D01*
X85331Y234264D02*Y233280D01*
G54D84*X107535Y203406D02*Y195531D01*
X105567Y203406D02*Y195531D01*
X103598Y203406D02*Y195531D01*
X101630Y203406D02*Y195531D01*
X99661Y203406D02*Y195531D01*
X97693Y203406D02*Y195531D01*
X95724Y203406D02*Y195531D01*
X93756Y203406D02*Y195531D01*
X91787Y203406D02*Y195531D01*
X89819Y203406D02*Y195531D01*
X87850Y203406D02*Y195531D01*
X85882Y203406D02*Y195531D01*
X83913Y203406D02*Y195531D01*
X81945Y203406D02*Y195531D01*
X79976Y203406D02*Y195531D01*
X78008Y203406D02*Y195531D01*
Y197500D02*Y195531D01*
G54D81*X65862Y205831D02*X66846D01*
X65862Y210949D02*X66846D01*
G54D84*X112457Y190610D02*X120331D01*
X112457Y188642D02*X120331D01*
X112457Y186673D02*X120331D01*
X112457Y184705D02*X120331D01*
X112457Y182736D02*X120331D01*
X112457Y180768D02*X120331D01*
X112457Y178799D02*X120331D01*
G54D89*X129619Y184476D02*Y177570D01*
X132178Y184476D02*Y177570D01*
X134736Y184476D02*Y177570D01*
X137295Y184476D02*Y177570D01*
G54D84*X112457Y176831D02*X120331D01*
X112457Y174862D02*X120331D01*
X112457Y172894D02*X120331D01*
X112457Y170925D02*X120331D01*
X112457Y168957D02*X120331D01*
X112457Y166988D02*X120331D01*
X112457Y165020D02*X120331D01*
X112457Y163051D02*X120331D01*
X112457Y161083D02*X120331D01*
G54D89*X137295Y204492D02*Y197586D01*
X134736Y204492D02*Y197586D01*
X132178Y204492D02*Y197586D01*
X129619Y204492D02*Y197586D01*
G54D81*X142398Y205023D02*Y204039D01*
X147516Y205023D02*Y204039D01*
X142398Y199023D02*Y198039D01*
X147516Y199023D02*Y198039D01*
X142398Y193023D02*Y192039D01*
X147516Y193023D02*Y192039D01*
X124098Y212138D02*Y211154D01*
X118980Y212138D02*Y211154D01*
G54D82*X261612Y101599D02*X277360D01*
G54D83*X263580Y119315D02*X275391D01*
G54D82*X261612Y148843D02*X277360D01*
G54D83*X263580Y166560D02*X275391D01*
X263580Y131127D02*X275391D01*
M02*
