G04 start of page 9 for group -3984 idx -3984 *
G04 Title: (unknown), fab *
G04 Creator: pcb 20140316 *
G04 CreationDate: Tue Feb 26 01:41:17 2019 UTC *
G04 For: tim *
G04 Format: Gerber/RS-274X *
G04 PCB-Dimensions (mil): 2834.65 3051.18 *
G04 PCB-Coordinate-Origin: lower left *
%MOIN*%
%FSLAX25Y25*%
%LNFAB*%
%ADD115C,0.0100*%
%ADD114C,0.0075*%
%ADD113C,0.0060*%
%ADD112C,0.0001*%
%ADD111R,0.0080X0.0080*%
G54D111*X131457Y251531D02*Y246731D01*
G54D112*G36*
X130910Y251678D02*X135763Y254478D01*
X136163Y253785D01*
X131310Y250985D01*
X130910Y251678D01*
G37*
G36*
X131603Y250985D02*X126750Y253785D01*
X127150Y254478D01*
X132003Y251678D01*
X131603Y250985D01*
G37*
G54D111*X129857Y251531D02*G75*G03X133057Y251531I1600J0D01*G01*
G75*G03X129857Y251531I-1600J0D01*G01*
X128257D02*G75*G03X134657Y251531I3200J0D01*G01*
G75*G03X128257Y251531I-3200J0D01*G01*
X15000Y316368D02*Y311568D01*
G54D112*G36*
X14454Y316515D02*X19307Y319314D01*
X19706Y318622D01*
X14853Y315822D01*
X14454Y316515D01*
G37*
G36*
X15147Y315822D02*X10294Y318622D01*
X10693Y319314D01*
X15546Y316515D01*
X15147Y315822D01*
G37*
G54D111*X13400Y316368D02*G75*G03X16600Y316368I1600J0D01*G01*
G75*G03X13400Y316368I-1600J0D01*G01*
X11800D02*G75*G03X18200Y316368I3200J0D01*G01*
G75*G03X11800Y316368I-3200J0D01*G01*
G54D113*X135000Y318618D02*X136500Y315618D01*
X138000Y318618D01*
X136500Y315618D02*Y312618D01*
X139800Y315918D02*X142050D01*
X139800Y312618D02*X142800D01*
X139800Y318618D02*Y312618D01*
Y318618D02*X142800D01*
X147600D02*X148350Y317868D01*
X145350Y318618D02*X147600D01*
X144600Y317868D02*X145350Y318618D01*
X144600Y317868D02*Y316368D01*
X145350Y315618D01*
X147600D01*
X148350Y314868D01*
Y313368D01*
X147600Y312618D02*X148350Y313368D01*
X145350Y312618D02*X147600D01*
X144600Y313368D02*X145350Y312618D01*
X98000Y317418D02*X99200Y318618D01*
Y312618D01*
X98000D02*X100250D01*
X45000Y313368D02*X45750Y312618D01*
X45000Y317868D02*Y313368D01*
Y317868D02*X45750Y318618D01*
X47250D01*
X48000Y317868D01*
Y313368D01*
X47250Y312618D02*X48000Y313368D01*
X45750Y312618D02*X47250D01*
X45000Y314118D02*X48000Y317118D01*
X49800Y312618D02*X50550D01*
X52350Y317418D02*X53550Y318618D01*
Y312618D01*
X52350D02*X54600D01*
X56400Y314868D02*X59400Y318618D01*
X56400Y314868D02*X60150D01*
X59400Y318618D02*Y312618D01*
X61950Y318618D02*X64950D01*
X61950D02*Y315618D01*
X62700Y316368D01*
X64200D01*
X64950Y315618D01*
Y313368D01*
X64200Y312618D02*X64950Y313368D01*
X62700Y312618D02*X64200D01*
X61950Y313368D02*X62700Y312618D01*
X111353Y264549D02*X114553D01*
X111353D02*Y261349D01*
X114553D01*
Y264549D02*Y261349D01*
X109753Y266149D02*X116153D01*
X109753D02*Y259749D01*
X116153D01*
Y266149D02*Y259749D01*
X129857Y276360D02*X133057D01*
X129857D02*Y273160D01*
X133057D01*
Y276360D02*Y273160D01*
X128257Y277960D02*X134657D01*
X128257D02*Y271560D01*
X134657D01*
Y277960D02*Y271560D01*
X13400Y332968D02*X16600D01*
X13400D02*Y329768D01*
X16600D01*
Y332968D02*Y329768D01*
X11800Y334568D02*X18200D01*
X11800D02*Y328168D01*
X18200D01*
Y334568D02*Y328168D01*
X135000Y333618D02*X136500Y330618D01*
X138000Y333618D01*
X136500Y330618D02*Y327618D01*
X139800Y330918D02*X142050D01*
X139800Y327618D02*X142800D01*
X139800Y333618D02*Y327618D01*
Y333618D02*X142800D01*
X147600D02*X148350Y332868D01*
X145350Y333618D02*X147600D01*
X144600Y332868D02*X145350Y333618D01*
X144600Y332868D02*Y331368D01*
X145350Y330618D01*
X147600D01*
X148350Y329868D01*
Y328368D01*
X147600Y327618D02*X148350Y328368D01*
X145350Y327618D02*X147600D01*
X144600Y328368D02*X145350Y327618D01*
X98000Y332868D02*X98750Y333618D01*
X101000D01*
X101750Y332868D01*
Y331368D01*
X98000Y327618D02*X101750Y331368D01*
X98000Y327618D02*X101750D01*
X45000Y328368D02*X45750Y327618D01*
X45000Y332868D02*Y328368D01*
Y332868D02*X45750Y333618D01*
X47250D01*
X48000Y332868D01*
Y328368D01*
X47250Y327618D02*X48000Y328368D01*
X45750Y327618D02*X47250D01*
X45000Y329118D02*X48000Y332118D01*
X49800Y327618D02*X50550D01*
X52350Y332418D02*X53550Y333618D01*
Y327618D01*
X52350D02*X54600D01*
X56400Y332868D02*X57150Y333618D01*
X59400D01*
X60150Y332868D01*
Y331368D01*
X56400Y327618D02*X60150Y331368D01*
X56400Y327618D02*X60150D01*
X61950Y333618D02*X64950D01*
X61950D02*Y330618D01*
X62700Y331368D01*
X64200D01*
X64950Y330618D01*
Y328368D01*
X64200Y327618D02*X64950Y328368D01*
X62700Y327618D02*X64200D01*
X61950Y328368D02*X62700Y327618D01*
X8657Y294031D02*G75*G03X10257Y294031I800J0D01*G01*
G75*G03X8657Y294031I-800J0D01*G01*
X7057D02*G75*G03X11857Y294031I2400J0D01*G01*
G75*G03X7057Y294031I-2400J0D01*G01*
X269157Y293531D02*G75*G03X270757Y293531I800J0D01*G01*
G75*G03X269157Y293531I-800J0D01*G01*
X267557D02*G75*G03X272357Y293531I2400J0D01*G01*
G75*G03X267557Y293531I-2400J0D01*G01*
X9157Y10531D02*G75*G03X10757Y10531I800J0D01*G01*
G75*G03X9157Y10531I-800J0D01*G01*
X7557D02*G75*G03X12357Y10531I2400J0D01*G01*
G75*G03X7557Y10531I-2400J0D01*G01*
X269657Y11031D02*G75*G03X271257Y11031I800J0D01*G01*
G75*G03X269657Y11031I-800J0D01*G01*
X268057D02*G75*G03X272857Y11031I2400J0D01*G01*
G75*G03X268057Y11031I-2400J0D01*G01*
X14200Y346368D02*G75*G03X15800Y346368I800J0D01*G01*
G75*G03X14200Y346368I-800J0D01*G01*
X12600D02*G75*G03X17400Y346368I2400J0D01*G01*
G75*G03X12600Y346368I-2400J0D01*G01*
X135000Y348618D02*X136500Y345618D01*
X138000Y348618D01*
X136500Y345618D02*Y342618D01*
X139800Y345918D02*X142050D01*
X139800Y342618D02*X142800D01*
X139800Y348618D02*Y342618D01*
Y348618D02*X142800D01*
X147600D02*X148350Y347868D01*
X145350Y348618D02*X147600D01*
X144600Y347868D02*X145350Y348618D01*
X144600Y347868D02*Y346368D01*
X145350Y345618D01*
X147600D01*
X148350Y344868D01*
Y343368D01*
X147600Y342618D02*X148350Y343368D01*
X145350Y342618D02*X147600D01*
X144600Y343368D02*X145350Y342618D01*
X98000Y344868D02*X101000Y348618D01*
X98000Y344868D02*X101750D01*
X101000Y348618D02*Y342618D01*
X45000Y343368D02*X45750Y342618D01*
X45000Y347868D02*Y343368D01*
Y347868D02*X45750Y348618D01*
X47250D01*
X48000Y347868D01*
Y343368D01*
X47250Y342618D02*X48000Y343368D01*
X45750Y342618D02*X47250D01*
X45000Y344118D02*X48000Y347118D01*
X49800Y342618D02*X50550D01*
X52350Y347418D02*X53550Y348618D01*
Y342618D01*
X52350D02*X54600D01*
X56400Y343368D02*X57150Y342618D01*
X56400Y347868D02*Y343368D01*
Y347868D02*X57150Y348618D01*
X58650D01*
X59400Y347868D01*
Y343368D01*
X58650Y342618D02*X59400Y343368D01*
X57150Y342618D02*X58650D01*
X56400Y344118D02*X59400Y347118D01*
X61200Y343368D02*X61950Y342618D01*
X61200Y347868D02*Y343368D01*
Y347868D02*X61950Y348618D01*
X63450D01*
X64200Y347868D01*
Y343368D01*
X63450Y342618D02*X64200Y343368D01*
X61950Y342618D02*X63450D01*
X61200Y344118D02*X64200Y347118D01*
X65557Y268431D02*X70357Y263631D01*
X65557D02*X70357Y268431D01*
X66357Y267631D02*X69557D01*
X66357D02*Y264431D01*
X69557D01*
Y267631D02*Y264431D01*
X17557Y268431D02*X22357Y263631D01*
X17557D02*X22357Y268431D01*
X18357Y267631D02*X21557D01*
X18357D02*Y264431D01*
X21557D01*
Y267631D02*Y264431D01*
X12600Y363768D02*X17400Y358968D01*
X12600D02*X17400Y363768D01*
X13400Y362968D02*X16600D01*
X13400D02*Y359768D01*
X16600D01*
Y362968D02*Y359768D01*
X135000Y363618D02*X136500Y360618D01*
X138000Y363618D01*
X136500Y360618D02*Y357618D01*
X139800Y360918D02*X142050D01*
X139800Y357618D02*X142800D01*
X139800Y363618D02*Y357618D01*
Y363618D02*X142800D01*
X147600D02*X148350Y362868D01*
X145350Y363618D02*X147600D01*
X144600Y362868D02*X145350Y363618D01*
X144600Y362868D02*Y361368D01*
X145350Y360618D01*
X147600D01*
X148350Y359868D01*
Y358368D01*
X147600Y357618D02*X148350Y358368D01*
X145350Y357618D02*X147600D01*
X144600Y358368D02*X145350Y357618D01*
X98000Y362868D02*X98750Y363618D01*
X101000D01*
X101750Y362868D01*
Y361368D01*
X98000Y357618D02*X101750Y361368D01*
X98000Y357618D02*X101750D01*
X45000Y358368D02*X45750Y357618D01*
X45000Y362868D02*Y358368D01*
Y362868D02*X45750Y363618D01*
X47250D01*
X48000Y362868D01*
Y358368D01*
X47250Y357618D02*X48000Y358368D01*
X45750Y357618D02*X47250D01*
X45000Y359118D02*X48000Y362118D01*
X49800Y357618D02*X50550D01*
X52350Y358368D02*X53100Y357618D01*
X52350Y362868D02*Y358368D01*
Y362868D02*X53100Y363618D01*
X54600D01*
X55350Y362868D01*
Y358368D01*
X54600Y357618D02*X55350Y358368D01*
X53100Y357618D02*X54600D01*
X52350Y359118D02*X55350Y362118D01*
X57900Y357618D02*X60150Y360618D01*
Y362868D02*Y360618D01*
X59400Y363618D02*X60150Y362868D01*
X57900Y363618D02*X59400D01*
X57150Y362868D02*X57900Y363618D01*
X57150Y362868D02*Y361368D01*
X57900Y360618D01*
X60150D01*
X61950Y358368D02*X62700Y357618D01*
X61950Y362868D02*Y358368D01*
Y362868D02*X62700Y363618D01*
X64200D01*
X64950Y362868D01*
Y358368D01*
X64200Y357618D02*X64950Y358368D01*
X62700Y357618D02*X64200D01*
X61950Y359118D02*X64950Y362118D01*
X225457Y300231D02*Y293831D01*
X222257Y297031D02*X228657D01*
X223857Y298631D02*X227057D01*
X223857D02*Y295431D01*
X227057D01*
Y298631D02*Y295431D01*
X15000Y379568D02*Y373168D01*
X11800Y376368D02*X18200D01*
X13400Y377968D02*X16600D01*
X13400D02*Y374768D01*
X16600D01*
Y377968D02*Y374768D01*
X135000Y378618D02*X136500Y375618D01*
X138000Y378618D01*
X136500Y375618D02*Y372618D01*
X139800Y375918D02*X142050D01*
X139800Y372618D02*X142800D01*
X139800Y378618D02*Y372618D01*
Y378618D02*X142800D01*
X147600D02*X148350Y377868D01*
X145350Y378618D02*X147600D01*
X144600Y377868D02*X145350Y378618D01*
X144600Y377868D02*Y376368D01*
X145350Y375618D01*
X147600D01*
X148350Y374868D01*
Y373368D01*
X147600Y372618D02*X148350Y373368D01*
X145350Y372618D02*X147600D01*
X144600Y373368D02*X145350Y372618D01*
X98000Y377418D02*X99200Y378618D01*
Y372618D01*
X98000D02*X100250D01*
X45000Y373368D02*X45750Y372618D01*
X45000Y377868D02*Y373368D01*
Y377868D02*X45750Y378618D01*
X47250D01*
X48000Y377868D01*
Y373368D01*
X47250Y372618D02*X48000Y373368D01*
X45750Y372618D02*X47250D01*
X45000Y374118D02*X48000Y377118D01*
X49800Y372618D02*X50550D01*
X52350Y373368D02*X53100Y372618D01*
X52350Y377868D02*Y373368D01*
Y377868D02*X53100Y378618D01*
X54600D01*
X55350Y377868D01*
Y373368D01*
X54600Y372618D02*X55350Y373368D01*
X53100Y372618D02*X54600D01*
X52350Y374118D02*X55350Y377118D01*
X57150Y378618D02*X60150D01*
X57150D02*Y375618D01*
X57900Y376368D01*
X59400D01*
X60150Y375618D01*
Y373368D01*
X59400Y372618D02*X60150Y373368D01*
X57900Y372618D02*X59400D01*
X57150Y373368D02*X57900Y372618D01*
X61950Y373368D02*X62700Y372618D01*
X61950Y374568D02*Y373368D01*
Y374568D02*X63000Y375618D01*
X63900D01*
X64950Y374568D01*
Y373368D01*
X64200Y372618D02*X64950Y373368D01*
X62700Y372618D02*X64200D01*
X61950Y376668D02*X63000Y375618D01*
X61950Y377868D02*Y376668D01*
Y377868D02*X62700Y378618D01*
X64200D01*
X64950Y377868D01*
Y376668D01*
X63900Y375618D02*X64950Y376668D01*
X38957Y247031D02*Y243831D01*
Y247031D02*X41730Y248631D01*
X38957Y247031D02*X36183Y248631D01*
X37357Y247031D02*G75*G03X40557Y247031I1600J0D01*G01*
G75*G03X37357Y247031I-1600J0D01*G01*
X215457Y297031D02*Y293831D01*
Y297031D02*X218230Y298631D01*
X215457Y297031D02*X212683Y298631D01*
X213857Y297031D02*G75*G03X217057Y297031I1600J0D01*G01*
G75*G03X213857Y297031I-1600J0D01*G01*
X205457D02*Y293831D01*
Y297031D02*X208230Y298631D01*
X205457Y297031D02*X202683Y298631D01*
X203857Y297031D02*G75*G03X207057Y297031I1600J0D01*G01*
G75*G03X203857Y297031I-1600J0D01*G01*
X195457D02*Y293831D01*
Y297031D02*X198230Y298631D01*
X195457Y297031D02*X192683Y298631D01*
X193857Y297031D02*G75*G03X197057Y297031I1600J0D01*G01*
G75*G03X193857Y297031I-1600J0D01*G01*
X15000Y391368D02*Y388168D01*
Y391368D02*X17773Y392968D01*
X15000Y391368D02*X12227Y392968D01*
X13400Y391368D02*G75*G03X16600Y391368I1600J0D01*G01*
G75*G03X13400Y391368I-1600J0D01*G01*
X135000Y393618D02*X136500Y390618D01*
X138000Y393618D01*
X136500Y390618D02*Y387618D01*
X139800Y390918D02*X142050D01*
X139800Y387618D02*X142800D01*
X139800Y393618D02*Y387618D01*
Y393618D02*X142800D01*
X147600D02*X148350Y392868D01*
X145350Y393618D02*X147600D01*
X144600Y392868D02*X145350Y393618D01*
X144600Y392868D02*Y391368D01*
X145350Y390618D01*
X147600D01*
X148350Y389868D01*
Y388368D01*
X147600Y387618D02*X148350Y388368D01*
X145350Y387618D02*X147600D01*
X144600Y388368D02*X145350Y387618D01*
X98000Y389868D02*X101000Y393618D01*
X98000Y389868D02*X101750D01*
X101000Y393618D02*Y387618D01*
X45000Y388368D02*X45750Y387618D01*
X45000Y392868D02*Y388368D01*
Y392868D02*X45750Y393618D01*
X47250D01*
X48000Y392868D01*
Y388368D01*
X47250Y387618D02*X48000Y388368D01*
X45750Y387618D02*X47250D01*
X45000Y389118D02*X48000Y392118D01*
X49800Y387618D02*X50550D01*
X52350Y388368D02*X53100Y387618D01*
X52350Y392868D02*Y388368D01*
Y392868D02*X53100Y393618D01*
X54600D01*
X55350Y392868D01*
Y388368D01*
X54600Y387618D02*X55350Y388368D01*
X53100Y387618D02*X54600D01*
X52350Y389118D02*X55350Y392118D01*
X57150Y389868D02*X60150Y393618D01*
X57150Y389868D02*X60900D01*
X60150Y393618D02*Y387618D01*
X62700Y388368D02*X63450Y387618D01*
X62700Y389568D02*Y388368D01*
Y389568D02*X63750Y390618D01*
X64650D01*
X65700Y389568D01*
Y388368D01*
X64950Y387618D02*X65700Y388368D01*
X63450Y387618D02*X64950D01*
X62700Y391668D02*X63750Y390618D01*
X62700Y392868D02*Y391668D01*
Y392868D02*X63450Y393618D01*
X64950D01*
X65700Y392868D01*
Y391668D01*
X64650Y390618D02*X65700Y391668D01*
X223357Y272131D02*X226557D01*
X223357D02*Y268931D01*
X226557D01*
Y272131D02*Y268931D01*
X13400Y407968D02*X16600D01*
X13400D02*Y404768D01*
X16600D01*
Y407968D02*Y404768D01*
X135000Y408618D02*X136500Y405618D01*
X138000Y408618D01*
X136500Y405618D02*Y402618D01*
X139800Y405918D02*X142050D01*
X139800Y402618D02*X142800D01*
X139800Y408618D02*Y402618D01*
Y408618D02*X142800D01*
X147600D02*X148350Y407868D01*
X145350Y408618D02*X147600D01*
X144600Y407868D02*X145350Y408618D01*
X144600Y407868D02*Y406368D01*
X145350Y405618D01*
X147600D01*
X148350Y404868D01*
Y403368D01*
X147600Y402618D02*X148350Y403368D01*
X145350Y402618D02*X147600D01*
X144600Y403368D02*X145350Y402618D01*
X98000Y407418D02*X99200Y408618D01*
Y402618D01*
X98000D02*X100250D01*
X45000Y403368D02*X45750Y402618D01*
X45000Y407868D02*Y403368D01*
Y407868D02*X45750Y408618D01*
X47250D01*
X48000Y407868D01*
Y403368D01*
X47250Y402618D02*X48000Y403368D01*
X45750Y402618D02*X47250D01*
X45000Y404118D02*X48000Y407118D01*
X49800Y402618D02*X50550D01*
X52350Y403368D02*X53100Y402618D01*
X52350Y407868D02*Y403368D01*
Y407868D02*X53100Y408618D01*
X54600D01*
X55350Y407868D01*
Y403368D01*
X54600Y402618D02*X55350Y403368D01*
X53100Y402618D02*X54600D01*
X52350Y404118D02*X55350Y407118D01*
X57150Y404868D02*X60150Y408618D01*
X57150Y404868D02*X60900D01*
X60150Y408618D02*Y402618D01*
X62700Y403368D02*X63450Y402618D01*
X62700Y407868D02*Y403368D01*
Y407868D02*X63450Y408618D01*
X64950D01*
X65700Y407868D01*
Y403368D01*
X64950Y402618D02*X65700Y403368D01*
X63450Y402618D02*X64950D01*
X62700Y404118D02*X65700Y407118D01*
X48157Y247031D02*G75*G03X49757Y247031I800J0D01*G01*
G75*G03X48157Y247031I-800J0D01*G01*
Y255031D02*G75*G03X49757Y255031I800J0D01*G01*
G75*G03X48157Y255031I-800J0D01*G01*
X38157D02*G75*G03X39757Y255031I800J0D01*G01*
G75*G03X38157Y255031I-800J0D01*G01*
X55157Y219531D02*G75*G03X56757Y219531I800J0D01*G01*
G75*G03X55157Y219531I-800J0D01*G01*
Y209531D02*G75*G03X56757Y209531I800J0D01*G01*
G75*G03X55157Y209531I-800J0D01*G01*
X45157Y219531D02*G75*G03X46757Y219531I800J0D01*G01*
G75*G03X45157Y219531I-800J0D01*G01*
Y209531D02*G75*G03X46757Y209531I800J0D01*G01*
G75*G03X45157Y209531I-800J0D01*G01*
X35157Y219531D02*G75*G03X36757Y219531I800J0D01*G01*
G75*G03X35157Y219531I-800J0D01*G01*
Y209531D02*G75*G03X36757Y209531I800J0D01*G01*
G75*G03X35157Y209531I-800J0D01*G01*
X25157Y219531D02*G75*G03X26757Y219531I800J0D01*G01*
G75*G03X25157Y219531I-800J0D01*G01*
Y209531D02*G75*G03X26757Y209531I800J0D01*G01*
G75*G03X25157Y209531I-800J0D01*G01*
X165157Y239531D02*G75*G03X166757Y239531I800J0D01*G01*
G75*G03X165157Y239531I-800J0D01*G01*
Y229531D02*G75*G03X166757Y229531I800J0D01*G01*
G75*G03X165157Y229531I-800J0D01*G01*
Y219531D02*G75*G03X166757Y219531I800J0D01*G01*
G75*G03X165157Y219531I-800J0D01*G01*
Y209531D02*G75*G03X166757Y209531I800J0D01*G01*
G75*G03X165157Y209531I-800J0D01*G01*
Y199531D02*G75*G03X166757Y199531I800J0D01*G01*
G75*G03X165157Y199531I-800J0D01*G01*
Y189531D02*G75*G03X166757Y189531I800J0D01*G01*
G75*G03X165157Y189531I-800J0D01*G01*
Y179531D02*G75*G03X166757Y179531I800J0D01*G01*
G75*G03X165157Y179531I-800J0D01*G01*
Y169531D02*G75*G03X166757Y169531I800J0D01*G01*
G75*G03X165157Y169531I-800J0D01*G01*
Y159531D02*G75*G03X166757Y159531I800J0D01*G01*
G75*G03X165157Y159531I-800J0D01*G01*
Y149531D02*G75*G03X166757Y149531I800J0D01*G01*
G75*G03X165157Y149531I-800J0D01*G01*
Y139531D02*G75*G03X166757Y139531I800J0D01*G01*
G75*G03X165157Y139531I-800J0D01*G01*
Y129531D02*G75*G03X166757Y129531I800J0D01*G01*
G75*G03X165157Y129531I-800J0D01*G01*
Y119531D02*G75*G03X166757Y119531I800J0D01*G01*
G75*G03X165157Y119531I-800J0D01*G01*
Y109531D02*G75*G03X166757Y109531I800J0D01*G01*
G75*G03X165157Y109531I-800J0D01*G01*
Y99531D02*G75*G03X166757Y99531I800J0D01*G01*
G75*G03X165157Y99531I-800J0D01*G01*
Y89531D02*G75*G03X166757Y89531I800J0D01*G01*
G75*G03X165157Y89531I-800J0D01*G01*
Y79531D02*G75*G03X166757Y79531I800J0D01*G01*
G75*G03X165157Y79531I-800J0D01*G01*
X175157D02*G75*G03X176757Y79531I800J0D01*G01*
G75*G03X175157Y79531I-800J0D01*G01*
Y89531D02*G75*G03X176757Y89531I800J0D01*G01*
G75*G03X175157Y89531I-800J0D01*G01*
Y99531D02*G75*G03X176757Y99531I800J0D01*G01*
G75*G03X175157Y99531I-800J0D01*G01*
Y109531D02*G75*G03X176757Y109531I800J0D01*G01*
G75*G03X175157Y109531I-800J0D01*G01*
Y119531D02*G75*G03X176757Y119531I800J0D01*G01*
G75*G03X175157Y119531I-800J0D01*G01*
Y129531D02*G75*G03X176757Y129531I800J0D01*G01*
G75*G03X175157Y129531I-800J0D01*G01*
Y139531D02*G75*G03X176757Y139531I800J0D01*G01*
G75*G03X175157Y139531I-800J0D01*G01*
Y149531D02*G75*G03X176757Y149531I800J0D01*G01*
G75*G03X175157Y149531I-800J0D01*G01*
Y159531D02*G75*G03X176757Y159531I800J0D01*G01*
G75*G03X175157Y159531I-800J0D01*G01*
Y169531D02*G75*G03X176757Y169531I800J0D01*G01*
G75*G03X175157Y169531I-800J0D01*G01*
Y179531D02*G75*G03X176757Y179531I800J0D01*G01*
G75*G03X175157Y179531I-800J0D01*G01*
Y189531D02*G75*G03X176757Y189531I800J0D01*G01*
G75*G03X175157Y189531I-800J0D01*G01*
Y199531D02*G75*G03X176757Y199531I800J0D01*G01*
G75*G03X175157Y199531I-800J0D01*G01*
Y209531D02*G75*G03X176757Y209531I800J0D01*G01*
G75*G03X175157Y209531I-800J0D01*G01*
Y219531D02*G75*G03X176757Y219531I800J0D01*G01*
G75*G03X175157Y219531I-800J0D01*G01*
Y229531D02*G75*G03X176757Y229531I800J0D01*G01*
G75*G03X175157Y229531I-800J0D01*G01*
Y239531D02*G75*G03X176757Y239531I800J0D01*G01*
G75*G03X175157Y239531I-800J0D01*G01*
X232657Y59031D02*G75*G03X234257Y59031I800J0D01*G01*
G75*G03X232657Y59031I-800J0D01*G01*
X222657D02*G75*G03X224257Y59031I800J0D01*G01*
G75*G03X222657Y59031I-800J0D01*G01*
X232657Y69031D02*G75*G03X234257Y69031I800J0D01*G01*
G75*G03X232657Y69031I-800J0D01*G01*
X222657D02*G75*G03X224257Y69031I800J0D01*G01*
G75*G03X222657Y69031I-800J0D01*G01*
X232657Y79031D02*G75*G03X234257Y79031I800J0D01*G01*
G75*G03X232657Y79031I-800J0D01*G01*
X222657D02*G75*G03X224257Y79031I800J0D01*G01*
G75*G03X222657Y79031I-800J0D01*G01*
X232657Y89031D02*G75*G03X234257Y89031I800J0D01*G01*
G75*G03X232657Y89031I-800J0D01*G01*
X222657D02*G75*G03X224257Y89031I800J0D01*G01*
G75*G03X222657Y89031I-800J0D01*G01*
X232657Y99031D02*G75*G03X234257Y99031I800J0D01*G01*
G75*G03X232657Y99031I-800J0D01*G01*
X222657D02*G75*G03X224257Y99031I800J0D01*G01*
G75*G03X222657Y99031I-800J0D01*G01*
X232657Y109031D02*G75*G03X234257Y109031I800J0D01*G01*
G75*G03X232657Y109031I-800J0D01*G01*
X222657D02*G75*G03X224257Y109031I800J0D01*G01*
G75*G03X222657Y109031I-800J0D01*G01*
X232657Y119031D02*G75*G03X234257Y119031I800J0D01*G01*
G75*G03X232657Y119031I-800J0D01*G01*
X222657D02*G75*G03X224257Y119031I800J0D01*G01*
G75*G03X222657Y119031I-800J0D01*G01*
X232657Y129031D02*G75*G03X234257Y129031I800J0D01*G01*
G75*G03X232657Y129031I-800J0D01*G01*
X222657D02*G75*G03X224257Y129031I800J0D01*G01*
G75*G03X222657Y129031I-800J0D01*G01*
X232657Y139031D02*G75*G03X234257Y139031I800J0D01*G01*
G75*G03X232657Y139031I-800J0D01*G01*
X222657D02*G75*G03X224257Y139031I800J0D01*G01*
G75*G03X222657Y139031I-800J0D01*G01*
X232657Y149031D02*G75*G03X234257Y149031I800J0D01*G01*
G75*G03X232657Y149031I-800J0D01*G01*
X222657D02*G75*G03X224257Y149031I800J0D01*G01*
G75*G03X222657Y149031I-800J0D01*G01*
X232657Y159031D02*G75*G03X234257Y159031I800J0D01*G01*
G75*G03X232657Y159031I-800J0D01*G01*
X222657D02*G75*G03X224257Y159031I800J0D01*G01*
G75*G03X222657Y159031I-800J0D01*G01*
X232657Y169031D02*G75*G03X234257Y169031I800J0D01*G01*
G75*G03X232657Y169031I-800J0D01*G01*
X222657D02*G75*G03X224257Y169031I800J0D01*G01*
G75*G03X222657Y169031I-800J0D01*G01*
X232657Y179031D02*G75*G03X234257Y179031I800J0D01*G01*
G75*G03X232657Y179031I-800J0D01*G01*
X222657D02*G75*G03X224257Y179031I800J0D01*G01*
G75*G03X222657Y179031I-800J0D01*G01*
X232657Y189031D02*G75*G03X234257Y189031I800J0D01*G01*
G75*G03X232657Y189031I-800J0D01*G01*
X222657D02*G75*G03X224257Y189031I800J0D01*G01*
G75*G03X222657Y189031I-800J0D01*G01*
X232657Y199031D02*G75*G03X234257Y199031I800J0D01*G01*
G75*G03X232657Y199031I-800J0D01*G01*
X222657D02*G75*G03X224257Y199031I800J0D01*G01*
G75*G03X222657Y199031I-800J0D01*G01*
X232657Y209031D02*G75*G03X234257Y209031I800J0D01*G01*
G75*G03X232657Y209031I-800J0D01*G01*
X222657D02*G75*G03X224257Y209031I800J0D01*G01*
G75*G03X222657Y209031I-800J0D01*G01*
X232657Y219031D02*G75*G03X234257Y219031I800J0D01*G01*
G75*G03X232657Y219031I-800J0D01*G01*
X222657D02*G75*G03X224257Y219031I800J0D01*G01*
G75*G03X222657Y219031I-800J0D01*G01*
X232657Y229031D02*G75*G03X234257Y229031I800J0D01*G01*
G75*G03X232657Y229031I-800J0D01*G01*
X222657D02*G75*G03X224257Y229031I800J0D01*G01*
G75*G03X222657Y229031I-800J0D01*G01*
X232657Y239031D02*G75*G03X234257Y239031I800J0D01*G01*
G75*G03X232657Y239031I-800J0D01*G01*
X222657D02*G75*G03X224257Y239031I800J0D01*G01*
G75*G03X222657Y239031I-800J0D01*G01*
X232657Y249031D02*G75*G03X234257Y249031I800J0D01*G01*
G75*G03X232657Y249031I-800J0D01*G01*
X222657D02*G75*G03X224257Y249031I800J0D01*G01*
G75*G03X222657Y249031I-800J0D01*G01*
X53157Y38531D02*G75*G03X54757Y38531I800J0D01*G01*
G75*G03X53157Y38531I-800J0D01*G01*
X43157D02*G75*G03X44757Y38531I800J0D01*G01*
G75*G03X43157Y38531I-800J0D01*G01*
X33157D02*G75*G03X34757Y38531I800J0D01*G01*
G75*G03X33157Y38531I-800J0D01*G01*
X269157Y257031D02*G75*G03X270757Y257031I800J0D01*G01*
G75*G03X269157Y257031I-800J0D01*G01*
Y267031D02*G75*G03X270757Y267031I800J0D01*G01*
G75*G03X269157Y267031I-800J0D01*G01*
Y277031D02*G75*G03X270757Y277031I800J0D01*G01*
G75*G03X269157Y277031I-800J0D01*G01*
X21960Y118531D02*G75*G03X23560Y118531I800J0D01*G01*
G75*G03X21960Y118531I-800J0D01*G01*
Y108531D02*G75*G03X23560Y108531I800J0D01*G01*
G75*G03X21960Y108531I-800J0D01*G01*
Y98531D02*G75*G03X23560Y98531I800J0D01*G01*
G75*G03X21960Y98531I-800J0D01*G01*
X6775Y120386D02*G75*G03X8375Y120386I800J0D01*G01*
G75*G03X6775Y120386I-800J0D01*G01*
Y110386D02*G75*G03X8375Y110386I800J0D01*G01*
G75*G03X6775Y110386I-800J0D01*G01*
Y100386D02*G75*G03X8375Y100386I800J0D01*G01*
G75*G03X6775Y100386I-800J0D01*G01*
X55003Y56606D02*G75*G03X56603Y56606I800J0D01*G01*
G75*G03X55003Y56606I-800J0D01*G01*
X45003D02*G75*G03X46603Y56606I800J0D01*G01*
G75*G03X45003Y56606I-800J0D01*G01*
X35003D02*G75*G03X36603Y56606I800J0D01*G01*
G75*G03X35003Y56606I-800J0D01*G01*
X40830Y71567D02*G75*G03X42430Y71567I800J0D01*G01*
G75*G03X40830Y71567I-800J0D01*G01*
X30830D02*G75*G03X32430Y71567I800J0D01*G01*
G75*G03X30830Y71567I-800J0D01*G01*
X20830D02*G75*G03X22430Y71567I800J0D01*G01*
G75*G03X20830Y71567I-800J0D01*G01*
X14200Y421368D02*G75*G03X15800Y421368I800J0D01*G01*
G75*G03X14200Y421368I-800J0D01*G01*
X135000Y423618D02*X136500Y420618D01*
X138000Y423618D01*
X136500Y420618D02*Y417618D01*
X139800Y420918D02*X142050D01*
X139800Y417618D02*X142800D01*
X139800Y423618D02*Y417618D01*
Y423618D02*X142800D01*
X147600D02*X148350Y422868D01*
X145350Y423618D02*X147600D01*
X144600Y422868D02*X145350Y423618D01*
X144600Y422868D02*Y421368D01*
X145350Y420618D01*
X147600D01*
X148350Y419868D01*
Y418368D01*
X147600Y417618D02*X148350Y418368D01*
X145350Y417618D02*X147600D01*
X144600Y418368D02*X145350Y417618D01*
X98000Y422418D02*X99200Y423618D01*
Y417618D01*
X98000D02*X100250D01*
X102050Y418368D02*X102800Y417618D01*
X102050Y422868D02*Y418368D01*
Y422868D02*X102800Y423618D01*
X104300D01*
X105050Y422868D01*
Y418368D01*
X104300Y417618D02*X105050Y418368D01*
X102800Y417618D02*X104300D01*
X102050Y419118D02*X105050Y422118D01*
X106850Y422868D02*X107600Y423618D01*
X109100D01*
X109850Y422868D01*
X109100Y417618D02*X109850Y418368D01*
X107600Y417618D02*X109100D01*
X106850Y418368D02*X107600Y417618D01*
Y420918D02*X109100D01*
X109850Y422868D02*Y421668D01*
Y420168D02*Y418368D01*
Y420168D02*X109100Y420918D01*
X109850Y421668D02*X109100Y420918D01*
X45000Y418368D02*X45750Y417618D01*
X45000Y422868D02*Y418368D01*
Y422868D02*X45750Y423618D01*
X47250D01*
X48000Y422868D01*
Y418368D01*
X47250Y417618D02*X48000Y418368D01*
X45750Y417618D02*X47250D01*
X45000Y419118D02*X48000Y422118D01*
X49800Y417618D02*X50550D01*
X52350Y418368D02*X53100Y417618D01*
X52350Y422868D02*Y418368D01*
Y422868D02*X53100Y423618D01*
X54600D01*
X55350Y422868D01*
Y418368D01*
X54600Y417618D02*X55350Y418368D01*
X53100Y417618D02*X54600D01*
X52350Y419118D02*X55350Y422118D01*
X57150Y422868D02*X57900Y423618D01*
X59400D01*
X60150Y422868D01*
X59400Y417618D02*X60150Y418368D01*
X57900Y417618D02*X59400D01*
X57150Y418368D02*X57900Y417618D01*
Y420918D02*X59400D01*
X60150Y422868D02*Y421668D01*
Y420168D02*Y418368D01*
Y420168D02*X59400Y420918D01*
X60150Y421668D02*X59400Y420918D01*
X61950Y418368D02*X62700Y417618D01*
X61950Y419568D02*Y418368D01*
Y419568D02*X63000Y420618D01*
X63900D01*
X64950Y419568D01*
Y418368D01*
X64200Y417618D02*X64950Y418368D01*
X62700Y417618D02*X64200D01*
X61950Y421668D02*X63000Y420618D01*
X61950Y422868D02*Y421668D01*
Y422868D02*X62700Y423618D01*
X64200D01*
X64950Y422868D01*
Y421668D01*
X63900Y420618D02*X64950Y421668D01*
X222123Y33594D02*X224523Y31194D01*
X222123D02*X224523Y33594D01*
X9328Y29657D02*X11728Y27257D01*
X9328D02*X11728Y29657D01*
X6375Y91665D02*X8775Y89265D01*
X6375D02*X8775Y91665D01*
X6375Y81625D02*X8775Y79225D01*
X6375D02*X8775Y81625D01*
X87757Y300231D02*X90157Y297831D01*
X87757D02*X90157Y300231D01*
X97257Y273731D02*X99657Y271331D01*
X97257D02*X99657Y273731D01*
X100257Y256731D02*X102657Y254331D01*
X100257D02*X102657Y256731D01*
X34257Y229731D02*X36657Y227331D01*
X34257D02*X36657Y229731D01*
X44757D02*X47157Y227331D01*
X44757D02*X47157Y229731D01*
X77044Y241861D02*X79444Y239461D01*
X77044D02*X79444Y241861D01*
X7950Y167255D02*X10350Y164855D01*
X7950D02*X10350Y167255D01*
X55257Y158231D02*X57657Y155831D01*
X55257D02*X57657Y158231D01*
X197757Y274731D02*X200157Y272331D01*
X197757D02*X200157Y274731D01*
X154757Y286231D02*X157157Y283831D01*
X154757D02*X157157Y286231D01*
X80257Y272731D02*X82657Y270331D01*
X80257D02*X82657Y272731D01*
X105257Y281231D02*X107657Y278831D01*
X105257D02*X107657Y281231D01*
X10257Y157231D02*X12657Y154831D01*
X10257D02*X12657Y157231D01*
X53257Y90731D02*X55657Y88331D01*
X53257D02*X55657Y90731D01*
X152757Y275231D02*X155157Y272831D01*
X152757D02*X155157Y275231D01*
X105257Y293731D02*X107657Y291331D01*
X105257D02*X107657Y293731D01*
X174757Y250731D02*X177157Y248331D01*
X174757D02*X177157Y250731D01*
X174757Y70731D02*X177157Y68331D01*
X174757D02*X177157Y70731D01*
X211757Y250731D02*X214157Y248331D01*
X211757D02*X214157Y250731D01*
X211690Y240680D02*X214090Y238280D01*
X211690D02*X214090Y240680D01*
X211690Y230838D02*X214090Y228438D01*
X211690D02*X214090Y230838D01*
X211757Y220731D02*X214157Y218331D01*
X211757D02*X214157Y220731D01*
X211757Y210731D02*X214157Y208331D01*
X211757D02*X214157Y210731D01*
X211757Y200731D02*X214157Y198331D01*
X211757D02*X214157Y200731D01*
X211757Y190731D02*X214157Y188331D01*
X211757D02*X214157Y190731D01*
X211757Y180731D02*X214157Y178331D01*
X211757D02*X214157Y180731D01*
X211757Y170731D02*X214157Y168331D01*
X211757D02*X214157Y170731D01*
X211757Y160731D02*X214157Y158331D01*
X211757D02*X214157Y160731D01*
X211757Y150731D02*X214157Y148331D01*
X211757D02*X214157Y150731D01*
X211757Y140731D02*X214157Y138331D01*
X211757D02*X214157Y140731D01*
X211757Y130231D02*X214157Y127831D01*
X211757D02*X214157Y130231D01*
X211757Y120231D02*X214157Y117831D01*
X211757D02*X214157Y120231D01*
X211757Y110731D02*X214157Y108331D01*
X211757D02*X214157Y110731D01*
X211757Y100731D02*X214157Y98331D01*
X211757D02*X214157Y100731D01*
X211757Y90731D02*X214157Y88331D01*
X211757D02*X214157Y90731D01*
X211757Y80731D02*X214157Y78331D01*
X211757D02*X214157Y80731D01*
X211757Y70731D02*X214157Y68331D01*
X211757D02*X214157Y70731D01*
X247257Y275231D02*X249657Y272831D01*
X247257D02*X249657Y275231D01*
X174257Y293231D02*X176657Y290831D01*
X174257D02*X176657Y293231D01*
X30391Y129854D02*X32791Y127454D01*
X30391D02*X32791Y129854D01*
X147910Y102688D02*X150310Y100288D01*
X147910D02*X150310Y102688D01*
X204603Y54460D02*X207003Y52060D01*
X204603D02*X207003Y54460D01*
X265627Y182609D02*X268027Y180209D01*
X265627D02*X268027Y182609D01*
X130784Y212728D02*X133184Y210328D01*
X130784D02*X133184Y212728D01*
X10257Y145731D02*X12657Y143331D01*
X10257D02*X12657Y145731D01*
X13800Y437568D02*X16200Y435168D01*
X13800D02*X16200Y437568D01*
X135000Y438618D02*X136500Y435618D01*
X138000Y438618D01*
X136500Y435618D02*Y432618D01*
X139800Y435918D02*X142050D01*
X139800Y432618D02*X142800D01*
X139800Y438618D02*Y432618D01*
Y438618D02*X142800D01*
X147600D02*X148350Y437868D01*
X145350Y438618D02*X147600D01*
X144600Y437868D02*X145350Y438618D01*
X144600Y437868D02*Y436368D01*
X145350Y435618D01*
X147600D01*
X148350Y434868D01*
Y433368D01*
X147600Y432618D02*X148350Y433368D01*
X145350Y432618D02*X147600D01*
X144600Y433368D02*X145350Y432618D01*
X98000Y434868D02*X101000Y438618D01*
X98000Y434868D02*X101750D01*
X101000Y438618D02*Y432618D01*
X104300D02*X106550Y435618D01*
Y437868D02*Y435618D01*
X105800Y438618D02*X106550Y437868D01*
X104300Y438618D02*X105800D01*
X103550Y437868D02*X104300Y438618D01*
X103550Y437868D02*Y436368D01*
X104300Y435618D01*
X106550D01*
X45000Y433368D02*X45750Y432618D01*
X45000Y437868D02*Y433368D01*
Y437868D02*X45750Y438618D01*
X47250D01*
X48000Y437868D01*
Y433368D01*
X47250Y432618D02*X48000Y433368D01*
X45750Y432618D02*X47250D01*
X45000Y434118D02*X48000Y437118D01*
X49800Y432618D02*X50550D01*
X52350Y433368D02*X53100Y432618D01*
X52350Y437868D02*Y433368D01*
Y437868D02*X53100Y438618D01*
X54600D01*
X55350Y437868D01*
Y433368D01*
X54600Y432618D02*X55350Y433368D01*
X53100Y432618D02*X54600D01*
X52350Y434118D02*X55350Y437118D01*
X57150Y437868D02*X57900Y438618D01*
X59400D01*
X60150Y437868D01*
X59400Y432618D02*X60150Y433368D01*
X57900Y432618D02*X59400D01*
X57150Y433368D02*X57900Y432618D01*
Y435918D02*X59400D01*
X60150Y437868D02*Y436668D01*
Y435168D02*Y433368D01*
Y435168D02*X59400Y435918D01*
X60150Y436668D02*X59400Y435918D01*
X61950Y438618D02*X64950D01*
X61950D02*Y435618D01*
X62700Y436368D01*
X64200D01*
X64950Y435618D01*
Y433368D01*
X64200Y432618D02*X64950Y433368D01*
X62700Y432618D02*X64200D01*
X61950Y433368D02*X62700Y432618D01*
X214957Y272131D02*Y268931D01*
X213357Y270531D02*X216557D01*
X15000Y452968D02*Y449768D01*
X13400Y451368D02*X16600D01*
X135000Y453618D02*X136500Y450618D01*
X138000Y453618D01*
X136500Y450618D02*Y447618D01*
X139800Y450918D02*X142050D01*
X139800Y447618D02*X142800D01*
X139800Y453618D02*Y447618D01*
Y453618D02*X142800D01*
X147600D02*X148350Y452868D01*
X145350Y453618D02*X147600D01*
X144600Y452868D02*X145350Y453618D01*
X144600Y452868D02*Y451368D01*
X145350Y450618D01*
X147600D01*
X148350Y449868D01*
Y448368D01*
X147600Y447618D02*X148350Y448368D01*
X145350Y447618D02*X147600D01*
X144600Y448368D02*X145350Y447618D01*
X98000Y452418D02*X99200Y453618D01*
Y447618D01*
X98000D02*X100250D01*
X45000Y448368D02*X45750Y447618D01*
X45000Y452868D02*Y448368D01*
Y452868D02*X45750Y453618D01*
X47250D01*
X48000Y452868D01*
Y448368D01*
X47250Y447618D02*X48000Y448368D01*
X45750Y447618D02*X47250D01*
X45000Y449118D02*X48000Y452118D01*
X49800Y447618D02*X50550D01*
X52350Y448368D02*X53100Y447618D01*
X52350Y452868D02*Y448368D01*
Y452868D02*X53100Y453618D01*
X54600D01*
X55350Y452868D01*
Y448368D01*
X54600Y447618D02*X55350Y448368D01*
X53100Y447618D02*X54600D01*
X52350Y449118D02*X55350Y452118D01*
X57150Y452868D02*X57900Y453618D01*
X59400D01*
X60150Y452868D01*
X59400Y447618D02*X60150Y448368D01*
X57900Y447618D02*X59400D01*
X57150Y448368D02*X57900Y447618D01*
Y450918D02*X59400D01*
X60150Y452868D02*Y451668D01*
Y450168D02*Y448368D01*
Y450168D02*X59400Y450918D01*
X60150Y451668D02*X59400Y450918D01*
X61950Y448368D02*X62700Y447618D01*
X61950Y452868D02*Y448368D01*
Y452868D02*X62700Y453618D01*
X64200D01*
X64950Y452868D01*
Y448368D01*
X64200Y447618D02*X64950Y448368D01*
X62700Y447618D02*X64200D01*
X61950Y449118D02*X64950Y452118D01*
X94051Y91126D02*Y89526D01*
Y91126D02*X95438Y91926D01*
X94051Y91126D02*X92665Y91926D01*
X94051Y81283D02*Y79683D01*
Y81283D02*X95438Y82083D01*
X94051Y81283D02*X92665Y82083D01*
X84209Y81283D02*Y79683D01*
Y81283D02*X85595Y82083D01*
X84209Y81283D02*X82822Y82083D01*
X84209Y91126D02*Y89526D01*
Y91126D02*X85595Y91926D01*
X84209Y91126D02*X82822Y91926D01*
X202457Y29531D02*Y27931D01*
Y29531D02*X203843Y30331D01*
X202457Y29531D02*X201070Y30331D01*
X166957Y29031D02*Y27431D01*
Y29031D02*X168343Y29831D01*
X166957Y29031D02*X165570Y29831D01*
X155457Y29031D02*Y27431D01*
Y29031D02*X156843Y29831D01*
X155457Y29031D02*X154070Y29831D01*
X120457Y29031D02*Y27431D01*
Y29031D02*X121843Y29831D01*
X120457Y29031D02*X119070Y29831D01*
X106957Y29531D02*Y27931D01*
Y29531D02*X108343Y30331D01*
X106957Y29531D02*X105570Y30331D01*
X72957Y29031D02*Y27431D01*
Y29031D02*X74343Y29831D01*
X72957Y29031D02*X71570Y29831D01*
X59957Y29031D02*Y27431D01*
Y29031D02*X61343Y29831D01*
X59957Y29031D02*X58570Y29831D01*
X25072Y29611D02*Y28011D01*
Y29611D02*X26459Y30411D01*
X25072Y29611D02*X23685Y30411D01*
X114957Y204531D02*Y202931D01*
Y204531D02*X116343Y205331D01*
X114957Y204531D02*X113570Y205331D01*
X97929Y213693D02*Y212093D01*
Y213693D02*X99316Y214493D01*
X97929Y213693D02*X96542Y214493D01*
X85457Y207031D02*Y205431D01*
Y207031D02*X86843Y207831D01*
X85457Y207031D02*X84070Y207831D01*
X99457Y175031D02*Y173431D01*
Y175031D02*X100843Y175831D01*
X99457Y175031D02*X98070Y175831D01*
X73323Y147157D02*Y145557D01*
Y147157D02*X74710Y147957D01*
X73323Y147157D02*X71936Y147957D01*
X60528Y174913D02*Y173313D01*
Y174913D02*X61914Y175713D01*
X60528Y174913D02*X59141Y175713D01*
X90457Y176531D02*Y174931D01*
Y176531D02*X91843Y177331D01*
X90457Y176531D02*X89070Y177331D01*
X69957Y218031D02*Y216431D01*
Y218031D02*X71343Y218831D01*
X69957Y218031D02*X68570Y218831D01*
X91957Y219531D02*Y217931D01*
Y219531D02*X93343Y220331D01*
X91957Y219531D02*X90570Y220331D01*
X103244Y58181D02*Y56581D01*
Y58181D02*X104631Y58981D01*
X103244Y58181D02*X101857Y58981D01*
X96748Y51094D02*Y49494D01*
Y51094D02*X98135Y51894D01*
X96748Y51094D02*X95361Y51894D01*
X66457Y70531D02*Y68931D01*
Y70531D02*X67843Y71331D01*
X66457Y70531D02*X65070Y71331D01*
X123457Y202031D02*Y200431D01*
Y202031D02*X124843Y202831D01*
X123457Y202031D02*X122070Y202831D01*
X51457Y167031D02*Y165431D01*
Y167031D02*X52843Y167831D01*
X51457Y167031D02*X50070Y167831D01*
X72957Y202031D02*Y200431D01*
Y202031D02*X74343Y202831D01*
X72957Y202031D02*X71570Y202831D01*
X124457Y157031D02*Y155431D01*
Y157031D02*X125843Y157831D01*
X124457Y157031D02*X123070Y157831D01*
X23957Y133531D02*Y131931D01*
Y133531D02*X25343Y134331D01*
X23957Y133531D02*X22570Y134331D01*
X47957Y131031D02*Y129431D01*
Y131031D02*X49343Y131831D01*
X47957Y131031D02*X46570Y131831D01*
X29425Y192039D02*Y190439D01*
Y192039D02*X30812Y192839D01*
X29425Y192039D02*X28039Y192839D01*
X17417Y177669D02*Y176069D01*
Y177669D02*X18804Y178469D01*
X17417Y177669D02*X16031Y178469D01*
X253638Y84362D02*Y82762D01*
Y84362D02*X255024Y85162D01*
X253638Y84362D02*X252251Y85162D01*
X253638Y118614D02*Y117014D01*
Y118614D02*X255024Y119414D01*
X253638Y118614D02*X252251Y119414D01*
X253638Y130819D02*Y129219D01*
Y130819D02*X255024Y131619D01*
X253638Y130819D02*X252251Y131619D01*
X249957Y31031D02*Y29431D01*
Y31031D02*X251343Y31831D01*
X249957Y31031D02*X248570Y31831D01*
X275882Y178654D02*Y177054D01*
Y178654D02*X277269Y179454D01*
X275882Y178654D02*X274495Y179454D01*
X100457Y298031D02*Y296431D01*
Y298031D02*X101843Y298831D01*
X100457Y298031D02*X99070Y298831D01*
X224457Y287031D02*Y285431D01*
Y287031D02*X225843Y287831D01*
X224457Y287031D02*X223070Y287831D01*
X253835Y71567D02*Y69967D01*
Y71567D02*X255221Y72367D01*
X253835Y71567D02*X252448Y72367D01*
X243457Y219031D02*Y217431D01*
Y219031D02*X244843Y219831D01*
X243457Y219031D02*X242070Y219831D01*
X246957Y209031D02*Y207431D01*
Y209031D02*X248343Y209831D01*
X246957Y209031D02*X245570Y209831D01*
X242457Y109531D02*Y107931D01*
Y109531D02*X243843Y110331D01*
X242457Y109531D02*X241070Y110331D01*
X82457Y44531D02*Y42931D01*
Y44531D02*X83843Y45331D01*
X82457Y44531D02*X81070Y45331D01*
X69457Y39031D02*Y37431D01*
Y39031D02*X70843Y39831D01*
X69457Y39031D02*X68070Y39831D01*
X242457Y42531D02*Y40931D01*
Y42531D02*X243843Y43331D01*
X242457Y42531D02*X241070Y43331D01*
X194957Y39531D02*Y37931D01*
Y39531D02*X196343Y40331D01*
X194957Y39531D02*X193570Y40331D01*
X82457Y58031D02*Y56431D01*
Y58031D02*X83843Y58831D01*
X82457Y58031D02*X81070Y58831D01*
X72457Y65531D02*Y63931D01*
Y65531D02*X73843Y66331D01*
X72457Y65531D02*X71070Y66331D01*
X242457Y164531D02*Y162931D01*
Y164531D02*X243843Y165331D01*
X242457Y164531D02*X241070Y165331D01*
X145957Y245031D02*Y243431D01*
Y245031D02*X147343Y245831D01*
X145957Y245031D02*X144570Y245831D01*
X150457Y239031D02*Y237431D01*
Y239031D02*X151843Y239831D01*
X150457Y239031D02*X149070Y239831D01*
X153957Y232031D02*Y230431D01*
Y232031D02*X155343Y232831D01*
X153957Y232031D02*X152570Y232831D01*
X156787Y226488D02*Y224888D01*
Y226488D02*X158174Y227288D01*
X156787Y226488D02*X155401Y227288D01*
X95957Y162531D02*Y160931D01*
Y162531D02*X97343Y163331D01*
X95957Y162531D02*X94570Y163331D01*
X199110Y57984D02*Y56384D01*
Y57984D02*X200497Y58784D01*
X199110Y57984D02*X197724Y58784D01*
X55803Y71961D02*Y70361D01*
Y71961D02*X57190Y72761D01*
X55803Y71961D02*X54416Y72761D01*
X66433Y60543D02*Y58943D01*
Y60543D02*X67820Y61343D01*
X66433Y60543D02*X65046Y61343D01*
X118402Y83772D02*Y82172D01*
Y83772D02*X119788Y84572D01*
X118402Y83772D02*X117015Y84572D01*
X125094Y69598D02*Y67998D01*
Y69598D02*X126481Y70398D01*
X125094Y69598D02*X123708Y70398D01*
X137457Y80031D02*Y78431D01*
Y80031D02*X138843Y80831D01*
X137457Y80031D02*X136070Y80831D01*
X121945Y101094D02*Y99494D01*
Y101094D02*X123332Y101894D01*
X121945Y101094D02*X120558Y101894D01*
X93992Y57984D02*Y56384D01*
Y57984D02*X95379Y58784D01*
X93992Y57984D02*X92605Y58784D01*
X194780Y62315D02*Y60715D01*
Y62315D02*X196166Y63115D01*
X194780Y62315D02*X193393Y63115D01*
X214465Y29244D02*Y27644D01*
Y29244D02*X215851Y30044D01*
X214465Y29244D02*X213078Y30044D01*
X115449Y151488D02*Y149888D01*
Y151488D02*X116835Y152288D01*
X115449Y151488D02*X114062Y152288D01*
X65646Y144402D02*Y142802D01*
Y144402D02*X67032Y145202D01*
X65646Y144402D02*X64259Y145202D01*
X85134Y144795D02*Y143195D01*
Y144795D02*X86521Y145595D01*
X85134Y144795D02*X83747Y145595D01*
X81984Y130819D02*Y129219D01*
Y130819D02*X83371Y131619D01*
X81984Y130819D02*X80598Y131619D01*
X92811Y139283D02*Y137683D01*
Y139283D02*X94198Y140083D01*
X92811Y139283D02*X91424Y140083D01*
X123126Y136528D02*Y134928D01*
Y136528D02*X124513Y137328D01*
X123126Y136528D02*X121739Y137328D01*
X105016Y180622D02*Y179022D01*
Y180622D02*X106402Y181422D01*
X105016Y180622D02*X103629Y181422D01*
X45961Y86134D02*Y84534D01*
Y86134D02*X47347Y86934D01*
X45961Y86134D02*X44574Y86934D01*
X17220Y130031D02*Y128431D01*
Y130031D02*X18607Y130831D01*
X17220Y130031D02*X15834Y130831D01*
X3638Y181409D02*Y179809D01*
Y181409D02*X5024Y182209D01*
X3638Y181409D02*X2251Y182209D01*
X28047Y48535D02*Y46935D01*
Y48535D02*X29434Y49335D01*
X28047Y48535D02*X26661Y49335D01*
X23717Y198929D02*Y197329D01*
Y198929D02*X25103Y199729D01*
X23717Y198929D02*X22330Y199729D01*
X208559Y35150D02*Y33550D01*
Y35150D02*X209946Y35950D01*
X208559Y35150D02*X207172Y35950D01*
X214661Y52866D02*Y51266D01*
Y52866D02*X216048Y53666D01*
X214661Y52866D02*X213275Y53666D01*
X15000Y466368D02*Y464768D01*
Y466368D02*X16387Y467168D01*
X15000Y466368D02*X13613Y467168D01*
X135000Y468618D02*X136500Y465618D01*
X138000Y468618D01*
X136500Y465618D02*Y462618D01*
X139800Y465918D02*X142050D01*
X139800Y462618D02*X142800D01*
X139800Y468618D02*Y462618D01*
Y468618D02*X142800D01*
X147600D02*X148350Y467868D01*
X145350Y468618D02*X147600D01*
X144600Y467868D02*X145350Y468618D01*
X144600Y467868D02*Y466368D01*
X145350Y465618D01*
X147600D01*
X148350Y464868D01*
Y463368D01*
X147600Y462618D02*X148350Y463368D01*
X145350Y462618D02*X147600D01*
X144600Y463368D02*X145350Y462618D01*
X98750D02*X101750Y468618D01*
X98000D02*X101750D01*
X104300Y462618D02*X106550Y465618D01*
Y467868D02*Y465618D01*
X105800Y468618D02*X106550Y467868D01*
X104300Y468618D02*X105800D01*
X103550Y467868D02*X104300Y468618D01*
X103550Y467868D02*Y466368D01*
X104300Y465618D01*
X106550D01*
X45000Y463368D02*X45750Y462618D01*
X45000Y467868D02*Y463368D01*
Y467868D02*X45750Y468618D01*
X47250D01*
X48000Y467868D01*
Y463368D01*
X47250Y462618D02*X48000Y463368D01*
X45750Y462618D02*X47250D01*
X45000Y464118D02*X48000Y467118D01*
X49800Y462618D02*X50550D01*
X52350Y463368D02*X53100Y462618D01*
X52350Y467868D02*Y463368D01*
Y467868D02*X53100Y468618D01*
X54600D01*
X55350Y467868D01*
Y463368D01*
X54600Y462618D02*X55350Y463368D01*
X53100Y462618D02*X54600D01*
X52350Y464118D02*X55350Y467118D01*
X57150Y467868D02*X57900Y468618D01*
X60150D01*
X60900Y467868D01*
Y466368D01*
X57150Y462618D02*X60900Y466368D01*
X57150Y462618D02*X60900D01*
X62700Y463368D02*X63450Y462618D01*
X62700Y467868D02*Y463368D01*
Y467868D02*X63450Y468618D01*
X64950D01*
X65700Y467868D01*
Y463368D01*
X64950Y462618D02*X65700Y463368D01*
X63450Y462618D02*X64950D01*
X62700Y464118D02*X65700Y467118D01*
X3000Y483618D02*X3750Y482868D01*
X750Y483618D02*X3000D01*
X0Y482868D02*X750Y483618D01*
X0Y482868D02*Y481368D01*
X750Y480618D01*
X3000D01*
X3750Y479868D01*
Y478368D01*
X3000Y477618D02*X3750Y478368D01*
X750Y477618D02*X3000D01*
X0Y478368D02*X750Y477618D01*
X5550Y480618D02*Y478368D01*
X6300Y477618D01*
X8550Y480618D02*Y476118D01*
X7800Y475368D02*X8550Y476118D01*
X6300Y475368D02*X7800D01*
X5550Y476118D02*X6300Y475368D01*
Y477618D02*X7800D01*
X8550Y478368D01*
X11100Y479868D02*Y477618D01*
Y479868D02*X11850Y480618D01*
X12600D01*
X13350Y479868D01*
Y477618D01*
Y479868D02*X14100Y480618D01*
X14850D01*
X15600Y479868D01*
Y477618D01*
X10350Y480618D02*X11100Y479868D01*
X17400Y483618D02*Y477618D01*
Y478368D02*X18150Y477618D01*
X19650D01*
X20400Y478368D01*
Y479868D02*Y478368D01*
X19650Y480618D02*X20400Y479868D01*
X18150Y480618D02*X19650D01*
X17400Y479868D02*X18150Y480618D01*
X22200Y479868D02*Y478368D01*
Y479868D02*X22950Y480618D01*
X24450D01*
X25200Y479868D01*
Y478368D01*
X24450Y477618D02*X25200Y478368D01*
X22950Y477618D02*X24450D01*
X22200Y478368D02*X22950Y477618D01*
X27000Y483618D02*Y478368D01*
X27750Y477618D01*
X0Y474368D02*X29250D01*
X41750Y483618D02*Y477618D01*
X43700Y483618D02*X44750Y482568D01*
Y478668D01*
X43700Y477618D02*X44750Y478668D01*
X41000Y477618D02*X43700D01*
X41000Y483618D02*X43700D01*
G54D114*X46550Y482118D02*Y481968D01*
G54D113*Y479868D02*Y477618D01*
X50300Y480618D02*X51050Y479868D01*
X48800Y480618D02*X50300D01*
X48050Y479868D02*X48800Y480618D01*
X48050Y479868D02*Y478368D01*
X48800Y477618D01*
X51050Y480618D02*Y478368D01*
X51800Y477618D01*
X48800D02*X50300D01*
X51050Y478368D01*
X54350Y479868D02*Y477618D01*
Y479868D02*X55100Y480618D01*
X55850D01*
X56600Y479868D01*
Y477618D01*
Y479868D02*X57350Y480618D01*
X58100D01*
X58850Y479868D01*
Y477618D01*
X53600Y480618D02*X54350Y479868D01*
X60650Y477618D02*X61400D01*
X65900Y478368D02*X66650Y477618D01*
X65900Y482868D02*X66650Y483618D01*
X65900Y482868D02*Y478368D01*
X68450Y483618D02*X69950D01*
X69200D02*Y477618D01*
X68450D02*X69950D01*
X72500Y479868D02*Y477618D01*
Y479868D02*X73250Y480618D01*
X74000D01*
X74750Y479868D01*
Y477618D01*
X71750Y480618D02*X72500Y479868D01*
X77300Y480618D02*X79550D01*
X76550Y479868D02*X77300Y480618D01*
X76550Y479868D02*Y478368D01*
X77300Y477618D01*
X79550D01*
X81350Y483618D02*Y477618D01*
Y479868D02*X82100Y480618D01*
X83600D01*
X84350Y479868D01*
Y477618D01*
X86150Y483618D02*X86900Y482868D01*
Y478368D01*
X86150Y477618D02*X86900Y478368D01*
X41000Y474368D02*X88700D01*
X96050Y477618D02*X98000D01*
X95000Y478668D02*X96050Y477618D01*
X95000Y482568D02*Y478668D01*
Y482568D02*X96050Y483618D01*
X98000D01*
X99800Y479868D02*Y478368D01*
Y479868D02*X100550Y480618D01*
X102050D01*
X102800Y479868D01*
Y478368D01*
X102050Y477618D02*X102800Y478368D01*
X100550Y477618D02*X102050D01*
X99800Y478368D02*X100550Y477618D01*
X104600Y480618D02*Y478368D01*
X105350Y477618D01*
X106850D01*
X107600Y478368D01*
Y480618D02*Y478368D01*
X110150Y479868D02*Y477618D01*
Y479868D02*X110900Y480618D01*
X111650D01*
X112400Y479868D01*
Y477618D01*
X109400Y480618D02*X110150Y479868D01*
X114950Y483618D02*Y478368D01*
X115700Y477618D01*
X114200Y481368D02*X115700D01*
X95000Y474368D02*X117200D01*
X130750Y483618D02*Y477618D01*
X130000Y483618D02*X133000D01*
X133750Y482868D01*
Y481368D01*
X133000Y480618D02*X133750Y481368D01*
X130750Y480618D02*X133000D01*
X135550Y483618D02*Y478368D01*
X136300Y477618D01*
X140050Y480618D02*X140800Y479868D01*
X138550Y480618D02*X140050D01*
X137800Y479868D02*X138550Y480618D01*
X137800Y479868D02*Y478368D01*
X138550Y477618D01*
X140800Y480618D02*Y478368D01*
X141550Y477618D01*
X138550D02*X140050D01*
X140800Y478368D01*
X144100Y483618D02*Y478368D01*
X144850Y477618D01*
X143350Y481368D02*X144850D01*
X147100Y477618D02*X149350D01*
X146350Y478368D02*X147100Y477618D01*
X146350Y479868D02*Y478368D01*
Y479868D02*X147100Y480618D01*
X148600D01*
X149350Y479868D01*
X146350Y479118D02*X149350D01*
Y479868D02*Y479118D01*
X154150Y483618D02*Y477618D01*
X153400D02*X154150Y478368D01*
X151900Y477618D02*X153400D01*
X151150Y478368D02*X151900Y477618D01*
X151150Y479868D02*Y478368D01*
Y479868D02*X151900Y480618D01*
X153400D01*
X154150Y479868D01*
X157450Y480618D02*Y479868D01*
Y478368D02*Y477618D01*
X155950Y482868D02*Y482118D01*
Y482868D02*X156700Y483618D01*
X158200D01*
X158950Y482868D01*
Y482118D01*
X157450Y480618D02*X158950Y482118D01*
X130000Y474368D02*X160750D01*
X0Y498618D02*X3000D01*
X1500D02*Y492618D01*
X4800Y498618D02*Y492618D01*
Y494868D02*X5550Y495618D01*
X7050D01*
X7800Y494868D01*
Y492618D01*
X10350D02*X12600D01*
X9600Y493368D02*X10350Y492618D01*
X9600Y494868D02*Y493368D01*
Y494868D02*X10350Y495618D01*
X11850D01*
X12600Y494868D01*
X9600Y494118D02*X12600D01*
Y494868D02*Y494118D01*
X15150Y494868D02*Y492618D01*
Y494868D02*X15900Y495618D01*
X17400D01*
X14400D02*X15150Y494868D01*
X19950Y492618D02*X22200D01*
X19200Y493368D02*X19950Y492618D01*
X19200Y494868D02*Y493368D01*
Y494868D02*X19950Y495618D01*
X21450D01*
X22200Y494868D01*
X19200Y494118D02*X22200D01*
Y494868D02*Y494118D01*
X28950Y495618D02*X29700Y494868D01*
X27450Y495618D02*X28950D01*
X26700Y494868D02*X27450Y495618D01*
X26700Y494868D02*Y493368D01*
X27450Y492618D01*
X29700Y495618D02*Y493368D01*
X30450Y492618D01*
X27450D02*X28950D01*
X29700Y493368D01*
X33000Y494868D02*Y492618D01*
Y494868D02*X33750Y495618D01*
X35250D01*
X32250D02*X33000Y494868D01*
X37800Y492618D02*X40050D01*
X37050Y493368D02*X37800Y492618D01*
X37050Y494868D02*Y493368D01*
Y494868D02*X37800Y495618D01*
X39300D01*
X40050Y494868D01*
X37050Y494118D02*X40050D01*
Y494868D02*Y494118D01*
X44550Y497418D02*X45750Y498618D01*
Y492618D01*
X44550D02*X46800D01*
X48600Y497418D02*X49800Y498618D01*
Y492618D01*
X48600D02*X50850D01*
X58350Y498618D02*Y492618D01*
X57600D02*X58350Y493368D01*
X56100Y492618D02*X57600D01*
X55350Y493368D02*X56100Y492618D01*
X55350Y494868D02*Y493368D01*
Y494868D02*X56100Y495618D01*
X57600D01*
X58350Y494868D01*
G54D114*X60150Y497118D02*Y496968D01*
G54D113*Y494868D02*Y492618D01*
X62400Y497868D02*Y492618D01*
Y497868D02*X63150Y498618D01*
X63900D01*
X61650Y495618D02*X63150D01*
X66150Y497868D02*Y492618D01*
Y497868D02*X66900Y498618D01*
X67650D01*
X65400Y495618D02*X66900D01*
X69900Y492618D02*X72150D01*
X69150Y493368D02*X69900Y492618D01*
X69150Y494868D02*Y493368D01*
Y494868D02*X69900Y495618D01*
X71400D01*
X72150Y494868D01*
X69150Y494118D02*X72150D01*
Y494868D02*Y494118D01*
X74700Y494868D02*Y492618D01*
Y494868D02*X75450Y495618D01*
X76950D01*
X73950D02*X74700Y494868D01*
X79500Y492618D02*X81750D01*
X78750Y493368D02*X79500Y492618D01*
X78750Y494868D02*Y493368D01*
Y494868D02*X79500Y495618D01*
X81000D01*
X81750Y494868D01*
X78750Y494118D02*X81750D01*
Y494868D02*Y494118D01*
X84300Y494868D02*Y492618D01*
Y494868D02*X85050Y495618D01*
X85800D01*
X86550Y494868D01*
Y492618D01*
X83550Y495618D02*X84300Y494868D01*
X89100Y498618D02*Y493368D01*
X89850Y492618D01*
X88350Y496368D02*X89850D01*
X97050Y498618D02*Y492618D01*
X96300D02*X97050Y493368D01*
X94800Y492618D02*X96300D01*
X94050Y493368D02*X94800Y492618D01*
X94050Y494868D02*Y493368D01*
Y494868D02*X94800Y495618D01*
X96300D01*
X97050Y494868D01*
X99600D02*Y492618D01*
Y494868D02*X100350Y495618D01*
X101850D01*
X98850D02*X99600Y494868D01*
G54D114*X103650Y497118D02*Y496968D01*
G54D113*Y494868D02*Y492618D01*
X105150Y498618D02*Y493368D01*
X105900Y492618D01*
X107400Y498618D02*Y493368D01*
X108150Y492618D01*
X113100D02*X115350D01*
X116100Y493368D01*
X115350Y494118D02*X116100Y493368D01*
X113100Y494118D02*X115350D01*
X112350Y494868D02*X113100Y494118D01*
X112350Y494868D02*X113100Y495618D01*
X115350D01*
X116100Y494868D01*
X112350Y493368D02*X113100Y492618D01*
G54D114*X117900Y497118D02*Y496968D01*
G54D113*Y494868D02*Y492618D01*
X119400Y495618D02*X122400D01*
X119400Y492618D02*X122400Y495618D01*
X119400Y492618D02*X122400D01*
X124950D02*X127200D01*
X124200Y493368D02*X124950Y492618D01*
X124200Y494868D02*Y493368D01*
Y494868D02*X124950Y495618D01*
X126450D01*
X127200Y494868D01*
X124200Y494118D02*X127200D01*
Y494868D02*Y494118D01*
X129750Y492618D02*X132000D01*
X132750Y493368D01*
X132000Y494118D02*X132750Y493368D01*
X129750Y494118D02*X132000D01*
X129000Y494868D02*X129750Y494118D01*
X129000Y494868D02*X129750Y495618D01*
X132000D01*
X132750Y494868D01*
X129000Y493368D02*X129750Y492618D01*
X137250Y495618D02*Y493368D01*
X138000Y492618D01*
X139500D01*
X140250Y493368D01*
Y495618D02*Y493368D01*
X142800Y492618D02*X145050D01*
X145800Y493368D01*
X145050Y494118D02*X145800Y493368D01*
X142800Y494118D02*X145050D01*
X142050Y494868D02*X142800Y494118D01*
X142050Y494868D02*X142800Y495618D01*
X145050D01*
X145800Y494868D01*
X142050Y493368D02*X142800Y492618D01*
X148350D02*X150600D01*
X147600Y493368D02*X148350Y492618D01*
X147600Y494868D02*Y493368D01*
Y494868D02*X148350Y495618D01*
X149850D01*
X150600Y494868D01*
X147600Y494118D02*X150600D01*
Y494868D02*Y494118D01*
X155400Y498618D02*Y492618D01*
X154650D02*X155400Y493368D01*
X153150Y492618D02*X154650D01*
X152400Y493368D02*X153150Y492618D01*
X152400Y494868D02*Y493368D01*
Y494868D02*X153150Y495618D01*
X154650D01*
X155400Y494868D01*
G54D114*X159900Y497118D02*Y496968D01*
G54D113*Y494868D02*Y492618D01*
X162150Y494868D02*Y492618D01*
Y494868D02*X162900Y495618D01*
X163650D01*
X164400Y494868D01*
Y492618D01*
X161400Y495618D02*X162150Y494868D01*
X169650Y498618D02*Y493368D01*
X170400Y492618D01*
X168900Y496368D02*X170400D01*
X171900Y498618D02*Y492618D01*
Y494868D02*X172650Y495618D01*
X174150D01*
X174900Y494868D01*
Y492618D01*
G54D114*X176700Y497118D02*Y496968D01*
G54D113*Y494868D02*Y492618D01*
X178950D02*X181200D01*
X181950Y493368D01*
X181200Y494118D02*X181950Y493368D01*
X178950Y494118D02*X181200D01*
X178200Y494868D02*X178950Y494118D01*
X178200Y494868D02*X178950Y495618D01*
X181200D01*
X181950Y494868D01*
X178200Y493368D02*X178950Y492618D01*
X186450Y498618D02*Y493368D01*
X187200Y492618D01*
X190950Y495618D02*X191700Y494868D01*
X189450Y495618D02*X190950D01*
X188700Y494868D02*X189450Y495618D01*
X188700Y494868D02*Y493368D01*
X189450Y492618D01*
X191700Y495618D02*Y493368D01*
X192450Y492618D01*
X189450D02*X190950D01*
X191700Y493368D01*
X194250Y495618D02*Y493368D01*
X195000Y492618D01*
X197250Y495618D02*Y491118D01*
X196500Y490368D02*X197250Y491118D01*
X195000Y490368D02*X196500D01*
X194250Y491118D02*X195000Y490368D01*
Y492618D02*X196500D01*
X197250Y493368D01*
X199050Y494868D02*Y493368D01*
Y494868D02*X199800Y495618D01*
X201300D01*
X202050Y494868D01*
Y493368D01*
X201300Y492618D02*X202050Y493368D01*
X199800Y492618D02*X201300D01*
X199050Y493368D02*X199800Y492618D01*
X203850Y495618D02*Y493368D01*
X204600Y492618D01*
X206100D01*
X206850Y493368D01*
Y495618D02*Y493368D01*
X209400Y498618D02*Y493368D01*
X210150Y492618D01*
X208650Y496368D02*X210150D01*
X211650Y491118D02*X213150Y492618D01*
X217650Y497868D02*X218400Y498618D01*
X220650D01*
X221400Y497868D01*
Y496368D01*
X217650Y492618D02*X221400Y496368D01*
X217650Y492618D02*X221400D01*
X223200Y494868D02*X226200Y498618D01*
X223200Y494868D02*X226950D01*
X226200Y498618D02*Y492618D01*
X229500D02*X232500Y498618D01*
X228750D02*X232500D01*
X237000D02*Y492618D01*
Y494868D02*X237750Y495618D01*
X239250D01*
X240000Y494868D01*
Y492618D01*
X241800Y494868D02*Y493368D01*
Y494868D02*X242550Y495618D01*
X244050D01*
X244800Y494868D01*
Y493368D01*
X244050Y492618D02*X244800Y493368D01*
X242550Y492618D02*X244050D01*
X241800Y493368D02*X242550Y492618D01*
X246600Y498618D02*Y493368D01*
X247350Y492618D01*
X249600D02*X251850D01*
X248850Y493368D02*X249600Y492618D01*
X248850Y494868D02*Y493368D01*
Y494868D02*X249600Y495618D01*
X251100D01*
X251850Y494868D01*
X248850Y494118D02*X251850D01*
Y494868D02*Y494118D01*
X254400Y492618D02*X256650D01*
X257400Y493368D01*
X256650Y494118D02*X257400Y493368D01*
X254400Y494118D02*X256650D01*
X253650Y494868D02*X254400Y494118D01*
X253650Y494868D02*X254400Y495618D01*
X256650D01*
X257400Y494868D01*
X253650Y493368D02*X254400Y492618D01*
X262650Y498618D02*Y493368D01*
X263400Y492618D01*
X261900Y496368D02*X263400D01*
X264900Y494868D02*Y493368D01*
Y494868D02*X265650Y495618D01*
X267150D01*
X267900Y494868D01*
Y493368D01*
X267150Y492618D02*X267900Y493368D01*
X265650Y492618D02*X267150D01*
X264900Y493368D02*X265650Y492618D01*
X270450Y498618D02*Y493368D01*
X271200Y492618D01*
X269700Y496368D02*X271200D01*
X274950Y495618D02*X275700Y494868D01*
X273450Y495618D02*X274950D01*
X272700Y494868D02*X273450Y495618D01*
X272700Y494868D02*Y493368D01*
X273450Y492618D01*
X275700Y495618D02*Y493368D01*
X276450Y492618D01*
X273450D02*X274950D01*
X275700Y493368D01*
X278250Y498618D02*Y493368D01*
X279000Y492618D01*
G54D115*X0Y305118D02*X283465D01*
X0D02*Y0D01*
X283465Y305118D02*Y0D01*
X0D02*X283465D01*
G54D113*X200000Y318618D02*Y312618D01*
Y318618D02*X202250Y315618D01*
X204500Y318618D01*
Y312618D01*
X208550Y315618D02*X209300Y314868D01*
X207050Y315618D02*X208550D01*
X206300Y314868D02*X207050Y315618D01*
X206300Y314868D02*Y313368D01*
X207050Y312618D01*
X209300Y315618D02*Y313368D01*
X210050Y312618D01*
X207050D02*X208550D01*
X209300Y313368D01*
X211850Y315618D02*X214850Y312618D01*
X211850D02*X214850Y315618D01*
G54D114*X216650Y317118D02*Y316968D01*
G54D113*Y314868D02*Y312618D01*
X218900Y314868D02*Y312618D01*
Y314868D02*X219650Y315618D01*
X220400D01*
X221150Y314868D01*
Y312618D01*
Y314868D02*X221900Y315618D01*
X222650D01*
X223400Y314868D01*
Y312618D01*
X218150Y315618D02*X218900Y314868D01*
X225200Y315618D02*Y313368D01*
X225950Y312618D01*
X227450D01*
X228200Y313368D01*
Y315618D02*Y313368D01*
X230750Y314868D02*Y312618D01*
Y314868D02*X231500Y315618D01*
X232250D01*
X233000Y314868D01*
Y312618D01*
Y314868D02*X233750Y315618D01*
X234500D01*
X235250Y314868D01*
Y312618D01*
X230000Y315618D02*X230750Y314868D01*
X240500Y318618D02*Y312618D01*
X242450Y318618D02*X243500Y317568D01*
Y313668D01*
X242450Y312618D02*X243500Y313668D01*
X239750Y312618D02*X242450D01*
X239750Y318618D02*X242450D01*
G54D114*X245300Y317118D02*Y316968D01*
G54D113*Y314868D02*Y312618D01*
X247550Y314868D02*Y312618D01*
Y314868D02*X248300Y315618D01*
X249050D01*
X249800Y314868D01*
Y312618D01*
Y314868D02*X250550Y315618D01*
X251300D01*
X252050Y314868D01*
Y312618D01*
X246800Y315618D02*X247550Y314868D01*
X254600Y312618D02*X256850D01*
X253850Y313368D02*X254600Y312618D01*
X253850Y314868D02*Y313368D01*
Y314868D02*X254600Y315618D01*
X256100D01*
X256850Y314868D01*
X253850Y314118D02*X256850D01*
Y314868D02*Y314118D01*
X259400Y314868D02*Y312618D01*
Y314868D02*X260150Y315618D01*
X260900D01*
X261650Y314868D01*
Y312618D01*
X258650Y315618D02*X259400Y314868D01*
X264200Y312618D02*X266450D01*
X267200Y313368D01*
X266450Y314118D02*X267200Y313368D01*
X264200Y314118D02*X266450D01*
X263450Y314868D02*X264200Y314118D01*
X263450Y314868D02*X264200Y315618D01*
X266450D01*
X267200Y314868D01*
X263450Y313368D02*X264200Y312618D01*
G54D114*X269000Y317118D02*Y316968D01*
G54D113*Y314868D02*Y312618D01*
X270500Y314868D02*Y313368D01*
Y314868D02*X271250Y315618D01*
X272750D01*
X273500Y314868D01*
Y313368D01*
X272750Y312618D02*X273500Y313368D01*
X271250Y312618D02*X272750D01*
X270500Y313368D02*X271250Y312618D01*
X276050Y314868D02*Y312618D01*
Y314868D02*X276800Y315618D01*
X277550D01*
X278300Y314868D01*
Y312618D01*
X275300Y315618D02*X276050Y314868D01*
X280850Y312618D02*X283100D01*
X283850Y313368D01*
X283100Y314118D02*X283850Y313368D01*
X280850Y314118D02*X283100D01*
X280100Y314868D02*X280850Y314118D01*
X280100Y314868D02*X280850Y315618D01*
X283100D01*
X283850Y314868D01*
X280100Y313368D02*X280850Y312618D01*
X285650Y316368D02*X286400D01*
X285650Y314868D02*X286400D01*
X290900Y317868D02*X291650Y318618D01*
X293900D01*
X294650Y317868D01*
Y316368D01*
X290900Y312618D02*X294650Y316368D01*
X290900Y312618D02*X294650D01*
X296450Y313368D02*X297200Y312618D01*
X296450Y314568D02*Y313368D01*
Y314568D02*X297500Y315618D01*
X298400D01*
X299450Y314568D01*
Y313368D01*
X298700Y312618D02*X299450Y313368D01*
X297200Y312618D02*X298700D01*
X296450Y316668D02*X297500Y315618D01*
X296450Y317868D02*Y316668D01*
Y317868D02*X297200Y318618D01*
X298700D01*
X299450Y317868D01*
Y316668D01*
X298400Y315618D02*X299450Y316668D01*
X301250Y317868D02*X302000Y318618D01*
X303500D01*
X304250Y317868D01*
X303500Y312618D02*X304250Y313368D01*
X302000Y312618D02*X303500D01*
X301250Y313368D02*X302000Y312618D01*
Y315918D02*X303500D01*
X304250Y317868D02*Y316668D01*
Y315168D02*Y313368D01*
Y315168D02*X303500Y315918D01*
X304250Y316668D02*X303500Y315918D01*
X306050Y314868D02*X309050Y318618D01*
X306050Y314868D02*X309800D01*
X309050Y318618D02*Y312618D01*
X311600D02*X312350D01*
X316400Y318618D02*X317150Y317868D01*
X314900Y318618D02*X316400D01*
X314150Y317868D02*X314900Y318618D01*
X314150Y317868D02*Y313368D01*
X314900Y312618D01*
X316400Y315918D02*X317150Y315168D01*
X314150Y315918D02*X316400D01*
X314900Y312618D02*X316400D01*
X317150Y313368D01*
Y315168D02*Y313368D01*
X318950Y314868D02*X321950Y318618D01*
X318950Y314868D02*X322700D01*
X321950Y318618D02*Y312618D01*
X324500Y318618D02*X327500D01*
X324500D02*Y315618D01*
X325250Y316368D01*
X326750D01*
X327500Y315618D01*
Y313368D01*
X326750Y312618D02*X327500Y313368D01*
X325250Y312618D02*X326750D01*
X324500Y313368D02*X325250Y312618D01*
X331550Y318618D02*X332300Y317868D01*
X330050Y318618D02*X331550D01*
X329300Y317868D02*X330050Y318618D01*
X329300Y317868D02*Y313368D01*
X330050Y312618D01*
X331550Y315918D02*X332300Y315168D01*
X329300Y315918D02*X331550D01*
X330050Y312618D02*X331550D01*
X332300Y313368D01*
Y315168D02*Y313368D01*
X336350Y318618D02*X337100Y317868D01*
X334850Y318618D02*X336350D01*
X334100Y317868D02*X334850Y318618D01*
X334100Y317868D02*Y313368D01*
X334850Y312618D01*
X336350Y315918D02*X337100Y315168D01*
X334100Y315918D02*X336350D01*
X334850Y312618D02*X336350D01*
X337100Y313368D01*
Y315168D02*Y313368D01*
X339650Y312618D02*X341900Y315618D01*
Y317868D02*Y315618D01*
X341150Y318618D02*X341900Y317868D01*
X339650Y318618D02*X341150D01*
X338900Y317868D02*X339650Y318618D01*
X338900Y317868D02*Y316368D01*
X339650Y315618D01*
X341900D01*
X347150Y314868D02*Y312618D01*
Y314868D02*X347900Y315618D01*
X348650D01*
X349400Y314868D01*
Y312618D01*
Y314868D02*X350150Y315618D01*
X350900D01*
X351650Y314868D01*
Y312618D01*
X346400Y315618D02*X347150Y314868D01*
G54D114*X353450Y317118D02*Y316968D01*
G54D113*Y314868D02*Y312618D01*
X354950Y318618D02*Y313368D01*
X355700Y312618D01*
X357950D02*X360200D01*
X360950Y313368D01*
X360200Y314118D02*X360950Y313368D01*
X357950Y314118D02*X360200D01*
X357200Y314868D02*X357950Y314118D01*
X357200Y314868D02*X357950Y315618D01*
X360200D01*
X360950Y314868D01*
X357200Y313368D02*X357950Y312618D01*
X365450Y315618D02*Y313368D01*
X366200Y312618D01*
X366950D01*
X367700Y313368D01*
Y315618D02*Y313368D01*
X368450Y312618D01*
X369200D01*
X369950Y313368D01*
Y315618D02*Y313368D01*
G54D114*X371750Y317118D02*Y316968D01*
G54D113*Y314868D02*Y312618D01*
X376250Y318618D02*Y312618D01*
X375500D02*X376250Y313368D01*
X374000Y312618D02*X375500D01*
X373250Y313368D02*X374000Y312618D01*
X373250Y314868D02*Y313368D01*
Y314868D02*X374000Y315618D01*
X375500D01*
X376250Y314868D01*
X378800Y312618D02*X381050D01*
X378050Y313368D02*X378800Y312618D01*
X378050Y314868D02*Y313368D01*
Y314868D02*X378800Y315618D01*
X380300D01*
X381050Y314868D01*
X378050Y314118D02*X381050D01*
Y314868D02*Y314118D01*
X382850Y311118D02*X384350Y312618D01*
X388850Y317868D02*X389600Y318618D01*
X391100D01*
X391850Y317868D01*
X391100Y312618D02*X391850Y313368D01*
X389600Y312618D02*X391100D01*
X388850Y313368D02*X389600Y312618D01*
Y315918D02*X391100D01*
X391850Y317868D02*Y316668D01*
Y315168D02*Y313368D01*
Y315168D02*X391100Y315918D01*
X391850Y316668D02*X391100Y315918D01*
X393650Y313368D02*X394400Y312618D01*
X393650Y317868D02*Y313368D01*
Y317868D02*X394400Y318618D01*
X395900D01*
X396650Y317868D01*
Y313368D01*
X395900Y312618D02*X396650Y313368D01*
X394400Y312618D02*X395900D01*
X393650Y314118D02*X396650Y317118D01*
X398450Y318618D02*X401450D01*
X398450D02*Y315618D01*
X399200Y316368D01*
X400700D01*
X401450Y315618D01*
Y313368D01*
X400700Y312618D02*X401450Y313368D01*
X399200Y312618D02*X400700D01*
X398450Y313368D02*X399200Y312618D01*
X403250Y317418D02*X404450Y318618D01*
Y312618D01*
X403250D02*X405500D01*
X407300D02*X408050D01*
X409850Y317418D02*X411050Y318618D01*
Y312618D01*
X409850D02*X412100D01*
X413900Y313368D02*X414650Y312618D01*
X413900Y314568D02*Y313368D01*
Y314568D02*X414950Y315618D01*
X415850D01*
X416900Y314568D01*
Y313368D01*
X416150Y312618D02*X416900Y313368D01*
X414650Y312618D02*X416150D01*
X413900Y316668D02*X414950Y315618D01*
X413900Y317868D02*Y316668D01*
Y317868D02*X414650Y318618D01*
X416150D01*
X416900Y317868D01*
Y316668D01*
X415850Y315618D02*X416900Y316668D01*
X418700Y317418D02*X419900Y318618D01*
Y312618D01*
X418700D02*X420950D01*
X422750Y317418D02*X423950Y318618D01*
Y312618D01*
X422750D02*X425000D01*
X426800Y313368D02*X427550Y312618D01*
X426800Y317868D02*Y313368D01*
Y317868D02*X427550Y318618D01*
X429050D01*
X429800Y317868D01*
Y313368D01*
X429050Y312618D02*X429800Y313368D01*
X427550Y312618D02*X429050D01*
X426800Y314118D02*X429800Y317118D01*
X431600Y317868D02*X432350Y318618D01*
X434600D01*
X435350Y317868D01*
Y316368D01*
X431600Y312618D02*X435350Y316368D01*
X431600Y312618D02*X435350D01*
X440600Y314868D02*Y312618D01*
Y314868D02*X441350Y315618D01*
X442100D01*
X442850Y314868D01*
Y312618D01*
Y314868D02*X443600Y315618D01*
X444350D01*
X445100Y314868D01*
Y312618D01*
X439850Y315618D02*X440600Y314868D01*
G54D114*X446900Y317118D02*Y316968D01*
G54D113*Y314868D02*Y312618D01*
X448400Y318618D02*Y313368D01*
X449150Y312618D01*
X451400D02*X453650D01*
X454400Y313368D01*
X453650Y314118D02*X454400Y313368D01*
X451400Y314118D02*X453650D01*
X450650Y314868D02*X451400Y314118D01*
X450650Y314868D02*X451400Y315618D01*
X453650D01*
X454400Y314868D01*
X450650Y313368D02*X451400Y312618D01*
X458900Y318618D02*Y312618D01*
Y314868D02*X459650Y315618D01*
X461150D01*
X461900Y314868D01*
Y312618D01*
G54D114*X463700Y317118D02*Y316968D01*
G54D113*Y314868D02*Y312618D01*
X467450Y315618D02*X468200Y314868D01*
X465950Y315618D02*X467450D01*
X465200Y314868D02*X465950Y315618D01*
X465200Y314868D02*Y313368D01*
X465950Y312618D01*
X467450D01*
X468200Y313368D01*
X465200Y311118D02*X465950Y310368D01*
X467450D01*
X468200Y311118D01*
Y315618D02*Y311118D01*
X470000Y318618D02*Y312618D01*
Y314868D02*X470750Y315618D01*
X472250D01*
X473000Y314868D01*
Y312618D01*
X0Y-9500D02*X3000D01*
X3750Y-8750D01*
Y-6950D02*Y-8750D01*
X3000Y-6200D02*X3750Y-6950D01*
X750Y-6200D02*X3000D01*
X750Y-3500D02*Y-9500D01*
X0Y-3500D02*X3000D01*
X3750Y-4250D01*
Y-5450D01*
X3000Y-6200D02*X3750Y-5450D01*
X5550Y-7250D02*Y-8750D01*
Y-7250D02*X6300Y-6500D01*
X7800D01*
X8550Y-7250D01*
Y-8750D01*
X7800Y-9500D02*X8550Y-8750D01*
X6300Y-9500D02*X7800D01*
X5550Y-8750D02*X6300Y-9500D01*
X12600Y-6500D02*X13350Y-7250D01*
X11100Y-6500D02*X12600D01*
X10350Y-7250D02*X11100Y-6500D01*
X10350Y-7250D02*Y-8750D01*
X11100Y-9500D01*
X13350Y-6500D02*Y-8750D01*
X14100Y-9500D01*
X11100D02*X12600D01*
X13350Y-8750D01*
X16650Y-7250D02*Y-9500D01*
Y-7250D02*X17400Y-6500D01*
X18900D01*
X15900D02*X16650Y-7250D01*
X23700Y-3500D02*Y-9500D01*
X22950D02*X23700Y-8750D01*
X21450Y-9500D02*X22950D01*
X20700Y-8750D02*X21450Y-9500D01*
X20700Y-7250D02*Y-8750D01*
Y-7250D02*X21450Y-6500D01*
X22950D01*
X23700Y-7250D01*
X28200D02*Y-8750D01*
Y-7250D02*X28950Y-6500D01*
X30450D01*
X31200Y-7250D01*
Y-8750D01*
X30450Y-9500D02*X31200Y-8750D01*
X28950Y-9500D02*X30450D01*
X28200Y-8750D02*X28950Y-9500D01*
X33000Y-6500D02*Y-8750D01*
X33750Y-9500D01*
X35250D01*
X36000Y-8750D01*
Y-6500D02*Y-8750D01*
X38550Y-3500D02*Y-8750D01*
X39300Y-9500D01*
X37800Y-5750D02*X39300D01*
X40800Y-3500D02*Y-8750D01*
X41550Y-9500D01*
G54D114*X43050Y-5000D02*Y-5150D01*
G54D113*Y-7250D02*Y-9500D01*
X45300Y-7250D02*Y-9500D01*
Y-7250D02*X46050Y-6500D01*
X46800D01*
X47550Y-7250D01*
Y-9500D01*
X44550Y-6500D02*X45300Y-7250D01*
X50100Y-9500D02*X52350D01*
X49350Y-8750D02*X50100Y-9500D01*
X49350Y-7250D02*Y-8750D01*
Y-7250D02*X50100Y-6500D01*
X51600D01*
X52350Y-7250D01*
X49350Y-8000D02*X52350D01*
Y-7250D02*Y-8000D01*
G54D114*X56850Y-5000D02*Y-5150D01*
G54D113*Y-7250D02*Y-9500D01*
X59100D02*X61350D01*
X62100Y-8750D01*
X61350Y-8000D02*X62100Y-8750D01*
X59100Y-8000D02*X61350D01*
X58350Y-7250D02*X59100Y-8000D01*
X58350Y-7250D02*X59100Y-6500D01*
X61350D01*
X62100Y-7250D01*
X58350Y-8750D02*X59100Y-9500D01*
X67350Y-3500D02*Y-8750D01*
X68100Y-9500D01*
X66600Y-5750D02*X68100D01*
X69600Y-3500D02*Y-9500D01*
Y-7250D02*X70350Y-6500D01*
X71850D01*
X72600Y-7250D01*
Y-9500D01*
X75150D02*X77400D01*
X74400Y-8750D02*X75150Y-9500D01*
X74400Y-7250D02*Y-8750D01*
Y-7250D02*X75150Y-6500D01*
X76650D01*
X77400Y-7250D01*
X74400Y-8000D02*X77400D01*
Y-7250D02*Y-8000D01*
X82650Y-6500D02*X84900D01*
X81900Y-7250D02*X82650Y-6500D01*
X81900Y-7250D02*Y-8750D01*
X82650Y-9500D01*
X84900D01*
X87450D02*X89700D01*
X86700Y-8750D02*X87450Y-9500D01*
X86700Y-7250D02*Y-8750D01*
Y-7250D02*X87450Y-6500D01*
X88950D01*
X89700Y-7250D01*
X86700Y-8000D02*X89700D01*
Y-7250D02*Y-8000D01*
X92250Y-7250D02*Y-9500D01*
Y-7250D02*X93000Y-6500D01*
X93750D01*
X94500Y-7250D01*
Y-9500D01*
X91500Y-6500D02*X92250Y-7250D01*
X97050Y-3500D02*Y-8750D01*
X97800Y-9500D01*
X96300Y-5750D02*X97800D01*
X100050Y-9500D02*X102300D01*
X99300Y-8750D02*X100050Y-9500D01*
X99300Y-7250D02*Y-8750D01*
Y-7250D02*X100050Y-6500D01*
X101550D01*
X102300Y-7250D01*
X99300Y-8000D02*X102300D01*
Y-7250D02*Y-8000D01*
X104850Y-7250D02*Y-9500D01*
Y-7250D02*X105600Y-6500D01*
X107100D01*
X104100D02*X104850Y-7250D01*
X108900Y-3500D02*Y-8750D01*
X109650Y-9500D01*
G54D114*X111150Y-5000D02*Y-5150D01*
G54D113*Y-7250D02*Y-9500D01*
X113400Y-7250D02*Y-9500D01*
Y-7250D02*X114150Y-6500D01*
X114900D01*
X115650Y-7250D01*
Y-9500D01*
X112650Y-6500D02*X113400Y-7250D01*
X118200Y-9500D02*X120450D01*
X117450Y-8750D02*X118200Y-9500D01*
X117450Y-7250D02*Y-8750D01*
Y-7250D02*X118200Y-6500D01*
X119700D01*
X120450Y-7250D01*
X117450Y-8000D02*X120450D01*
Y-7250D02*Y-8000D01*
X124950Y-7250D02*Y-8750D01*
Y-7250D02*X125700Y-6500D01*
X127200D01*
X127950Y-7250D01*
Y-8750D01*
X127200Y-9500D02*X127950Y-8750D01*
X125700Y-9500D02*X127200D01*
X124950Y-8750D02*X125700Y-9500D01*
X130500Y-4250D02*Y-9500D01*
Y-4250D02*X131250Y-3500D01*
X132000D01*
X129750Y-6500D02*X131250D01*
X136950Y-3500D02*Y-8750D01*
X137700Y-9500D01*
X136200Y-5750D02*X137700D01*
X139200Y-3500D02*Y-9500D01*
Y-7250D02*X139950Y-6500D01*
X141450D01*
X142200Y-7250D01*
Y-9500D01*
G54D114*X144000Y-5000D02*Y-5150D01*
G54D113*Y-7250D02*Y-9500D01*
X146250D02*X148500D01*
X149250Y-8750D01*
X148500Y-8000D02*X149250Y-8750D01*
X146250Y-8000D02*X148500D01*
X145500Y-7250D02*X146250Y-8000D01*
X145500Y-7250D02*X146250Y-6500D01*
X148500D01*
X149250Y-7250D01*
X145500Y-8750D02*X146250Y-9500D01*
X153750Y-8750D02*X154500Y-9500D01*
X153750Y-7550D02*Y-8750D01*
Y-7550D02*X154800Y-6500D01*
X155700D01*
X156750Y-7550D01*
Y-8750D01*
X156000Y-9500D02*X156750Y-8750D01*
X154500Y-9500D02*X156000D01*
X153750Y-5450D02*X154800Y-6500D01*
X153750Y-4250D02*Y-5450D01*
Y-4250D02*X154500Y-3500D01*
X156000D01*
X156750Y-4250D01*
Y-5450D01*
X155700Y-6500D02*X156750Y-5450D01*
X158550Y-9500D02*X159300D01*
X161100Y-8750D02*X161850Y-9500D01*
X161100Y-4250D02*Y-8750D01*
Y-4250D02*X161850Y-3500D01*
X163350D01*
X164100Y-4250D01*
Y-8750D01*
X163350Y-9500D02*X164100Y-8750D01*
X161850Y-9500D02*X163350D01*
X161100Y-8000D02*X164100Y-5000D01*
X165900Y-8750D02*X166650Y-9500D01*
X165900Y-4250D02*Y-8750D01*
Y-4250D02*X166650Y-3500D01*
X168150D01*
X168900Y-4250D01*
Y-8750D01*
X168150Y-9500D02*X168900Y-8750D01*
X166650Y-9500D02*X168150D01*
X165900Y-8000D02*X168900Y-5000D01*
X170700Y-8750D02*X171450Y-9500D01*
X170700Y-4250D02*Y-8750D01*
Y-4250D02*X171450Y-3500D01*
X172950D01*
X173700Y-4250D01*
Y-8750D01*
X172950Y-9500D02*X173700Y-8750D01*
X171450Y-9500D02*X172950D01*
X170700Y-8000D02*X173700Y-5000D01*
X175500Y-8750D02*X176250Y-9500D01*
X175500Y-4250D02*Y-8750D01*
Y-4250D02*X176250Y-3500D01*
X177750D01*
X178500Y-4250D01*
Y-8750D01*
X177750Y-9500D02*X178500Y-8750D01*
X176250Y-9500D02*X177750D01*
X175500Y-8000D02*X178500Y-5000D01*
X180300Y-8750D02*X181050Y-9500D01*
X180300Y-4250D02*Y-8750D01*
Y-4250D02*X181050Y-3500D01*
X182550D01*
X183300Y-4250D01*
Y-8750D01*
X182550Y-9500D02*X183300Y-8750D01*
X181050Y-9500D02*X182550D01*
X180300Y-8000D02*X183300Y-5000D01*
X185100Y-8750D02*X185850Y-9500D01*
X185100Y-4250D02*Y-8750D01*
Y-4250D02*X185850Y-3500D01*
X187350D01*
X188100Y-4250D01*
Y-8750D01*
X187350Y-9500D02*X188100Y-8750D01*
X185850Y-9500D02*X187350D01*
X185100Y-8000D02*X188100Y-5000D01*
X193350Y-7250D02*Y-9500D01*
Y-7250D02*X194100Y-6500D01*
X194850D01*
X195600Y-7250D01*
Y-9500D01*
Y-7250D02*X196350Y-6500D01*
X197100D01*
X197850Y-7250D01*
Y-9500D01*
X192600Y-6500D02*X193350Y-7250D01*
G54D114*X199650Y-5000D02*Y-5150D01*
G54D113*Y-7250D02*Y-9500D01*
X201150Y-3500D02*Y-8750D01*
X201900Y-9500D01*
X206850Y-7250D02*Y-9500D01*
Y-7250D02*X207600Y-6500D01*
X209100D01*
X206100D02*X206850Y-7250D01*
X211650Y-9500D02*X213900D01*
X210900Y-8750D02*X211650Y-9500D01*
X210900Y-7250D02*Y-8750D01*
Y-7250D02*X211650Y-6500D01*
X213150D01*
X213900Y-7250D01*
X210900Y-8000D02*X213900D01*
Y-7250D02*Y-8000D01*
X216450Y-6500D02*X218700D01*
X215700Y-7250D02*X216450Y-6500D01*
X215700Y-7250D02*Y-8750D01*
X216450Y-9500D01*
X218700D01*
X221250Y-3500D02*Y-8750D01*
X222000Y-9500D01*
X220500Y-5750D02*X222000D01*
X225750Y-6500D02*X226500Y-7250D01*
X224250Y-6500D02*X225750D01*
X223500Y-7250D02*X224250Y-6500D01*
X223500Y-7250D02*Y-8750D01*
X224250Y-9500D01*
X226500Y-6500D02*Y-8750D01*
X227250Y-9500D01*
X224250D02*X225750D01*
X226500Y-8750D01*
X229800Y-7250D02*Y-9500D01*
Y-7250D02*X230550Y-6500D01*
X231300D01*
X232050Y-7250D01*
Y-9500D01*
X229050Y-6500D02*X229800Y-7250D01*
X236100Y-6500D02*X236850Y-7250D01*
X234600Y-6500D02*X236100D01*
X233850Y-7250D02*X234600Y-6500D01*
X233850Y-7250D02*Y-8750D01*
X234600Y-9500D01*
X236100D01*
X236850Y-8750D01*
X233850Y-11000D02*X234600Y-11750D01*
X236100D01*
X236850Y-11000D01*
Y-6500D02*Y-11000D01*
X238650Y-3500D02*Y-8750D01*
X239400Y-9500D01*
X241650D02*X243900D01*
X240900Y-8750D02*X241650Y-9500D01*
X240900Y-7250D02*Y-8750D01*
Y-7250D02*X241650Y-6500D01*
X243150D01*
X243900Y-7250D01*
X240900Y-8000D02*X243900D01*
Y-7250D02*Y-8000D01*
X248400Y-6500D02*X251400D01*
X255900Y-8750D02*X256650Y-9500D01*
X255900Y-4250D02*Y-8750D01*
Y-4250D02*X256650Y-3500D01*
X258150D01*
X258900Y-4250D01*
Y-8750D01*
X258150Y-9500D02*X258900Y-8750D01*
X256650Y-9500D02*X258150D01*
X255900Y-8000D02*X258900Y-5000D01*
X260700Y-11000D02*X262200Y-9500D01*
X264000Y-8750D02*X264750Y-9500D01*
X264000Y-4250D02*Y-8750D01*
Y-4250D02*X264750Y-3500D01*
X266250D01*
X267000Y-4250D01*
Y-8750D01*
X266250Y-9500D02*X267000Y-8750D01*
X264750Y-9500D02*X266250D01*
X264000Y-8000D02*X267000Y-5000D01*
X272250Y-3500D02*Y-8750D01*
X273000Y-9500D01*
X271500Y-5750D02*X273000D01*
X274500Y-7250D02*Y-8750D01*
Y-7250D02*X275250Y-6500D01*
X276750D01*
X277500Y-7250D01*
Y-8750D01*
X276750Y-9500D02*X277500Y-8750D01*
X275250Y-9500D02*X276750D01*
X274500Y-8750D02*X275250Y-9500D01*
X282000Y-4250D02*X282750Y-3500D01*
X285000D01*
X285750Y-4250D01*
Y-5750D01*
X282000Y-9500D02*X285750Y-5750D01*
X282000Y-9500D02*X285750D01*
X287550Y-8750D02*X288300Y-9500D01*
X287550Y-7550D02*Y-8750D01*
Y-7550D02*X288600Y-6500D01*
X289500D01*
X290550Y-7550D01*
Y-8750D01*
X289800Y-9500D02*X290550Y-8750D01*
X288300Y-9500D02*X289800D01*
X287550Y-5450D02*X288600Y-6500D01*
X287550Y-4250D02*Y-5450D01*
Y-4250D02*X288300Y-3500D01*
X289800D01*
X290550Y-4250D01*
Y-5450D01*
X289500Y-6500D02*X290550Y-5450D01*
X292350Y-4250D02*X293100Y-3500D01*
X294600D01*
X295350Y-4250D01*
X294600Y-9500D02*X295350Y-8750D01*
X293100Y-9500D02*X294600D01*
X292350Y-8750D02*X293100Y-9500D01*
Y-6200D02*X294600D01*
X295350Y-4250D02*Y-5450D01*
Y-6950D02*Y-8750D01*
Y-6950D02*X294600Y-6200D01*
X295350Y-5450D02*X294600Y-6200D01*
X297150Y-7250D02*X300150Y-3500D01*
X297150Y-7250D02*X300900D01*
X300150Y-3500D02*Y-9500D01*
X302700D02*X303450D01*
X307500Y-3500D02*X308250Y-4250D01*
X306000Y-3500D02*X307500D01*
X305250Y-4250D02*X306000Y-3500D01*
X305250Y-4250D02*Y-8750D01*
X306000Y-9500D01*
X307500Y-6200D02*X308250Y-6950D01*
X305250Y-6200D02*X307500D01*
X306000Y-9500D02*X307500D01*
X308250Y-8750D01*
Y-6950D02*Y-8750D01*
X310050Y-7250D02*X313050Y-3500D01*
X310050Y-7250D02*X313800D01*
X313050Y-3500D02*Y-9500D01*
X315600Y-3500D02*X318600D01*
X315600D02*Y-6500D01*
X316350Y-5750D01*
X317850D01*
X318600Y-6500D01*
Y-8750D01*
X317850Y-9500D02*X318600Y-8750D01*
X316350Y-9500D02*X317850D01*
X315600Y-8750D02*X316350Y-9500D01*
X322650Y-3500D02*X323400Y-4250D01*
X321150Y-3500D02*X322650D01*
X320400Y-4250D02*X321150Y-3500D01*
X320400Y-4250D02*Y-8750D01*
X321150Y-9500D01*
X322650Y-6200D02*X323400Y-6950D01*
X320400Y-6200D02*X322650D01*
X321150Y-9500D02*X322650D01*
X323400Y-8750D01*
Y-6950D02*Y-8750D01*
X327450Y-3500D02*X328200Y-4250D01*
X325950Y-3500D02*X327450D01*
X325200Y-4250D02*X325950Y-3500D01*
X325200Y-4250D02*Y-8750D01*
X325950Y-9500D01*
X327450Y-6200D02*X328200Y-6950D01*
X325200Y-6200D02*X327450D01*
X325950Y-9500D02*X327450D01*
X328200Y-8750D01*
Y-6950D02*Y-8750D01*
X330750Y-9500D02*X333000Y-6500D01*
Y-4250D02*Y-6500D01*
X332250Y-3500D02*X333000Y-4250D01*
X330750Y-3500D02*X332250D01*
X330000Y-4250D02*X330750Y-3500D01*
X330000Y-4250D02*Y-5750D01*
X330750Y-6500D01*
X333000D01*
X334800Y-11000D02*X336300Y-9500D01*
X338100Y-4250D02*X338850Y-3500D01*
X340350D01*
X341100Y-4250D01*
X340350Y-9500D02*X341100Y-8750D01*
X338850Y-9500D02*X340350D01*
X338100Y-8750D02*X338850Y-9500D01*
Y-6200D02*X340350D01*
X341100Y-4250D02*Y-5450D01*
Y-6950D02*Y-8750D01*
Y-6950D02*X340350Y-6200D01*
X341100Y-5450D02*X340350Y-6200D01*
X342900Y-8750D02*X343650Y-9500D01*
X342900Y-4250D02*Y-8750D01*
Y-4250D02*X343650Y-3500D01*
X345150D01*
X345900Y-4250D01*
Y-8750D01*
X345150Y-9500D02*X345900Y-8750D01*
X343650Y-9500D02*X345150D01*
X342900Y-8000D02*X345900Y-5000D01*
X347700Y-3500D02*X350700D01*
X347700D02*Y-6500D01*
X348450Y-5750D01*
X349950D01*
X350700Y-6500D01*
Y-8750D01*
X349950Y-9500D02*X350700Y-8750D01*
X348450Y-9500D02*X349950D01*
X347700Y-8750D02*X348450Y-9500D01*
X352500Y-4700D02*X353700Y-3500D01*
Y-9500D01*
X352500D02*X354750D01*
X356550D02*X357300D01*
X359100Y-4700D02*X360300Y-3500D01*
Y-9500D01*
X359100D02*X361350D01*
X363150Y-8750D02*X363900Y-9500D01*
X363150Y-7550D02*Y-8750D01*
Y-7550D02*X364200Y-6500D01*
X365100D01*
X366150Y-7550D01*
Y-8750D01*
X365400Y-9500D02*X366150Y-8750D01*
X363900Y-9500D02*X365400D01*
X363150Y-5450D02*X364200Y-6500D01*
X363150Y-4250D02*Y-5450D01*
Y-4250D02*X363900Y-3500D01*
X365400D01*
X366150Y-4250D01*
Y-5450D01*
X365100Y-6500D02*X366150Y-5450D01*
X367950Y-4700D02*X369150Y-3500D01*
Y-9500D01*
X367950D02*X370200D01*
X372000Y-4700D02*X373200Y-3500D01*
Y-9500D01*
X372000D02*X374250D01*
X376050Y-8750D02*X376800Y-9500D01*
X376050Y-4250D02*Y-8750D01*
Y-4250D02*X376800Y-3500D01*
X378300D01*
X379050Y-4250D01*
Y-8750D01*
X378300Y-9500D02*X379050Y-8750D01*
X376800Y-9500D02*X378300D01*
X376050Y-8000D02*X379050Y-5000D01*
X380850Y-4250D02*X381600Y-3500D01*
X383850D01*
X384600Y-4250D01*
Y-5750D01*
X380850Y-9500D02*X384600Y-5750D01*
X380850Y-9500D02*X384600D01*
X389850Y-7250D02*Y-9500D01*
Y-7250D02*X390600Y-6500D01*
X391350D01*
X392100Y-7250D01*
Y-9500D01*
Y-7250D02*X392850Y-6500D01*
X393600D01*
X394350Y-7250D01*
Y-9500D01*
X389100Y-6500D02*X389850Y-7250D01*
G54D114*X396150Y-5000D02*Y-5150D01*
G54D113*Y-7250D02*Y-9500D01*
X397650Y-3500D02*Y-8750D01*
X398400Y-9500D01*
X400650D02*X402900D01*
X403650Y-8750D01*
X402900Y-8000D02*X403650Y-8750D01*
X400650Y-8000D02*X402900D01*
X399900Y-7250D02*X400650Y-8000D01*
X399900Y-7250D02*X400650Y-6500D01*
X402900D01*
X403650Y-7250D01*
X399900Y-8750D02*X400650Y-9500D01*
X200750Y333618D02*Y327618D01*
X202700Y333618D02*X203750Y332568D01*
Y328668D01*
X202700Y327618D02*X203750Y328668D01*
X200000Y327618D02*X202700D01*
X200000Y333618D02*X202700D01*
X207800Y330618D02*X208550Y329868D01*
X206300Y330618D02*X207800D01*
X205550Y329868D02*X206300Y330618D01*
X205550Y329868D02*Y328368D01*
X206300Y327618D01*
X208550Y330618D02*Y328368D01*
X209300Y327618D01*
X206300D02*X207800D01*
X208550Y328368D01*
X211850Y333618D02*Y328368D01*
X212600Y327618D01*
X211100Y331368D02*X212600D01*
X214850Y327618D02*X217100D01*
X214100Y328368D02*X214850Y327618D01*
X214100Y329868D02*Y328368D01*
Y329868D02*X214850Y330618D01*
X216350D01*
X217100Y329868D01*
X214100Y329118D02*X217100D01*
Y329868D02*Y329118D01*
X218900Y331368D02*X219650D01*
X218900Y329868D02*X219650D01*
X224150Y333618D02*X227150D01*
X225650D02*Y327618D01*
X228950Y330618D02*Y328368D01*
X229700Y327618D01*
X231200D01*
X231950Y328368D01*
Y330618D02*Y328368D01*
X234500Y327618D02*X236750D01*
X233750Y328368D02*X234500Y327618D01*
X233750Y329868D02*Y328368D01*
Y329868D02*X234500Y330618D01*
X236000D01*
X236750Y329868D01*
X233750Y329118D02*X236750D01*
Y329868D02*Y329118D01*
X241250Y333618D02*Y327618D01*
Y333618D02*X244250D01*
X241250Y330918D02*X243500D01*
X246800Y327618D02*X249050D01*
X246050Y328368D02*X246800Y327618D01*
X246050Y329868D02*Y328368D01*
Y329868D02*X246800Y330618D01*
X248300D01*
X249050Y329868D01*
X246050Y329118D02*X249050D01*
Y329868D02*Y329118D01*
X250850Y333618D02*Y327618D01*
Y328368D02*X251600Y327618D01*
X253100D01*
X253850Y328368D01*
Y329868D02*Y328368D01*
X253100Y330618D02*X253850Y329868D01*
X251600Y330618D02*X253100D01*
X250850Y329868D02*X251600Y330618D01*
X258350Y332868D02*X259100Y333618D01*
X261350D01*
X262100Y332868D01*
Y331368D01*
X258350Y327618D02*X262100Y331368D01*
X258350Y327618D02*X262100D01*
X266150Y333618D02*X266900Y332868D01*
X264650Y333618D02*X266150D01*
X263900Y332868D02*X264650Y333618D01*
X263900Y332868D02*Y328368D01*
X264650Y327618D01*
X266150Y330918D02*X266900Y330168D01*
X263900Y330918D02*X266150D01*
X264650Y327618D02*X266150D01*
X266900Y328368D01*
Y330168D02*Y328368D01*
X271400D02*X272150Y327618D01*
X271400Y332868D02*Y328368D01*
Y332868D02*X272150Y333618D01*
X273650D01*
X274400Y332868D01*
Y328368D01*
X273650Y327618D02*X274400Y328368D01*
X272150Y327618D02*X273650D01*
X271400Y329118D02*X274400Y332118D01*
X276200Y332418D02*X277400Y333618D01*
Y327618D01*
X276200D02*X278450D01*
X280250Y331368D02*X281000D01*
X280250Y329868D02*X281000D01*
X282800D02*X285800Y333618D01*
X282800Y329868D02*X286550D01*
X285800Y333618D02*Y327618D01*
X288350Y332418D02*X289550Y333618D01*
Y327618D01*
X288350D02*X290600D01*
X292400Y331368D02*X293150D01*
X292400Y329868D02*X293150D01*
X294950Y332418D02*X296150Y333618D01*
Y327618D01*
X294950D02*X297200D01*
X299750D02*X302750Y333618D01*
X299000D02*X302750D01*
X307250Y332868D02*X308000Y333618D01*
X310250D01*
X311000Y332868D01*
Y331368D01*
X307250Y327618D02*X311000Y331368D01*
X307250Y327618D02*X311000D01*
X312800Y328368D02*X313550Y327618D01*
X312800Y332868D02*Y328368D01*
Y332868D02*X313550Y333618D01*
X315050D01*
X315800Y332868D01*
Y328368D01*
X315050Y327618D02*X315800Y328368D01*
X313550Y327618D02*X315050D01*
X312800Y329118D02*X315800Y332118D01*
X317600Y332418D02*X318800Y333618D01*
Y327618D01*
X317600D02*X319850D01*
X322400D02*X324650Y330618D01*
Y332868D02*Y330618D01*
X323900Y333618D02*X324650Y332868D01*
X322400Y333618D02*X323900D01*
X321650Y332868D02*X322400Y333618D01*
X321650Y332868D02*Y331368D01*
X322400Y330618D01*
X324650D01*
X329150Y333618D02*Y328368D01*
X329900Y327618D01*
X331400D01*
X332150Y328368D01*
Y333618D02*Y328368D01*
X333950Y333618D02*X336950D01*
X335450D02*Y327618D01*
X339800D02*X341750D01*
X338750Y328668D02*X339800Y327618D01*
X338750Y332568D02*Y328668D01*
Y332568D02*X339800Y333618D01*
X341750D01*
X200000Y347118D02*Y342618D01*
Y347118D02*X201050Y348618D01*
X202700D01*
X203750Y347118D01*
Y342618D01*
X200000Y345618D02*X203750D01*
X205550D02*Y343368D01*
X206300Y342618D01*
X207800D01*
X208550Y343368D01*
Y345618D02*Y343368D01*
X211100Y348618D02*Y343368D01*
X211850Y342618D01*
X210350Y346368D02*X211850D01*
X213350Y348618D02*Y342618D01*
Y344868D02*X214100Y345618D01*
X215600D01*
X216350Y344868D01*
Y342618D01*
X218150Y344868D02*Y343368D01*
Y344868D02*X218900Y345618D01*
X220400D01*
X221150Y344868D01*
Y343368D01*
X220400Y342618D02*X221150Y343368D01*
X218900Y342618D02*X220400D01*
X218150Y343368D02*X218900Y342618D01*
X223700Y344868D02*Y342618D01*
Y344868D02*X224450Y345618D01*
X225950D01*
X222950D02*X223700Y344868D01*
X227750Y346368D02*X228500D01*
X227750Y344868D02*X228500D01*
X200000Y363618D02*X203000D01*
X201500D02*Y357618D01*
G54D114*X204800Y362118D02*Y361968D01*
G54D113*Y359868D02*Y357618D01*
X207050Y363618D02*Y358368D01*
X207800Y357618D01*
X206300Y361368D02*X207800D01*
X209300Y363618D02*Y358368D01*
X210050Y357618D01*
X212300D02*X214550D01*
X211550Y358368D02*X212300Y357618D01*
X211550Y359868D02*Y358368D01*
Y359868D02*X212300Y360618D01*
X213800D01*
X214550Y359868D01*
X211550Y359118D02*X214550D01*
Y359868D02*Y359118D01*
X216350Y361368D02*X217100D01*
X216350Y359868D02*X217100D01*
X221600Y358368D02*X222350Y357618D01*
X221600Y362868D02*X222350Y363618D01*
X221600Y362868D02*Y358368D01*
X224150Y360618D02*Y358368D01*
X224900Y357618D01*
X226400D01*
X227150Y358368D01*
Y360618D02*Y358368D01*
X229700Y359868D02*Y357618D01*
Y359868D02*X230450Y360618D01*
X231200D01*
X231950Y359868D01*
Y357618D01*
X228950Y360618D02*X229700Y359868D01*
X233750Y363618D02*Y357618D01*
Y359868D02*X236000Y357618D01*
X233750Y359868D02*X235250Y361368D01*
X238550Y359868D02*Y357618D01*
Y359868D02*X239300Y360618D01*
X240050D01*
X240800Y359868D01*
Y357618D01*
X237800Y360618D02*X238550Y359868D01*
X242600D02*Y358368D01*
Y359868D02*X243350Y360618D01*
X244850D01*
X245600Y359868D01*
Y358368D01*
X244850Y357618D02*X245600Y358368D01*
X243350Y357618D02*X244850D01*
X242600Y358368D02*X243350Y357618D01*
X247400Y360618D02*Y358368D01*
X248150Y357618D01*
X248900D01*
X249650Y358368D01*
Y360618D02*Y358368D01*
X250400Y357618D01*
X251150D01*
X251900Y358368D01*
Y360618D02*Y358368D01*
X254450Y359868D02*Y357618D01*
Y359868D02*X255200Y360618D01*
X255950D01*
X256700Y359868D01*
Y357618D01*
X253700Y360618D02*X254450Y359868D01*
X258500Y363618D02*X259250Y362868D01*
Y358368D01*
X258500Y357618D02*X259250Y358368D01*
X263750Y360618D02*X266750D01*
X271250Y363618D02*Y357618D01*
Y363618D02*X274250D01*
X271250Y360918D02*X273500D01*
X278300Y360618D02*X279050Y359868D01*
X276800Y360618D02*X278300D01*
X276050Y359868D02*X276800Y360618D01*
X276050Y359868D02*Y358368D01*
X276800Y357618D01*
X279050Y360618D02*Y358368D01*
X279800Y357618D01*
X276800D02*X278300D01*
X279050Y358368D01*
X281600Y363618D02*Y357618D01*
Y358368D02*X282350Y357618D01*
X283850D01*
X284600Y358368D01*
Y359868D02*Y358368D01*
X283850Y360618D02*X284600Y359868D01*
X282350Y360618D02*X283850D01*
X281600Y359868D02*X282350Y360618D01*
X287150Y359868D02*Y357618D01*
Y359868D02*X287900Y360618D01*
X289400D01*
X286400D02*X287150Y359868D01*
G54D114*X291200Y362118D02*Y361968D01*
G54D113*Y359868D02*Y357618D01*
X293450Y360618D02*X295700D01*
X292700Y359868D02*X293450Y360618D01*
X292700Y359868D02*Y358368D01*
X293450Y357618D01*
X295700D01*
X299750Y360618D02*X300500Y359868D01*
X298250Y360618D02*X299750D01*
X297500Y359868D02*X298250Y360618D01*
X297500Y359868D02*Y358368D01*
X298250Y357618D01*
X300500Y360618D02*Y358368D01*
X301250Y357618D01*
X298250D02*X299750D01*
X300500Y358368D01*
X303800Y363618D02*Y358368D01*
X304550Y357618D01*
X303050Y361368D02*X304550D01*
G54D114*X306050Y362118D02*Y361968D01*
G54D113*Y359868D02*Y357618D01*
X307550Y359868D02*Y358368D01*
Y359868D02*X308300Y360618D01*
X309800D01*
X310550Y359868D01*
Y358368D01*
X309800Y357618D02*X310550Y358368D01*
X308300Y357618D02*X309800D01*
X307550Y358368D02*X308300Y357618D01*
X313100Y359868D02*Y357618D01*
Y359868D02*X313850Y360618D01*
X314600D01*
X315350Y359868D01*
Y357618D01*
X312350Y360618D02*X313100Y359868D01*
X320600Y363618D02*Y357618D01*
X322550Y363618D02*X323600Y362568D01*
Y358668D01*
X322550Y357618D02*X323600Y358668D01*
X319850Y357618D02*X322550D01*
X319850Y363618D02*X322550D01*
X326150Y359868D02*Y357618D01*
Y359868D02*X326900Y360618D01*
X328400D01*
X325400D02*X326150Y359868D01*
X332450Y360618D02*X333200Y359868D01*
X330950Y360618D02*X332450D01*
X330200Y359868D02*X330950Y360618D01*
X330200Y359868D02*Y358368D01*
X330950Y357618D01*
X333200Y360618D02*Y358368D01*
X333950Y357618D01*
X330950D02*X332450D01*
X333200Y358368D01*
X335750Y360618D02*Y358368D01*
X336500Y357618D01*
X337250D01*
X338000Y358368D01*
Y360618D02*Y358368D01*
X338750Y357618D01*
X339500D01*
X340250Y358368D01*
Y360618D02*Y358368D01*
G54D114*X342050Y362118D02*Y361968D01*
G54D113*Y359868D02*Y357618D01*
X344300Y359868D02*Y357618D01*
Y359868D02*X345050Y360618D01*
X345800D01*
X346550Y359868D01*
Y357618D01*
X343550Y360618D02*X344300Y359868D01*
X350600Y360618D02*X351350Y359868D01*
X349100Y360618D02*X350600D01*
X348350Y359868D02*X349100Y360618D01*
X348350Y359868D02*Y358368D01*
X349100Y357618D01*
X350600D01*
X351350Y358368D01*
X348350Y356118D02*X349100Y355368D01*
X350600D01*
X351350Y356118D01*
Y360618D02*Y356118D01*
M02*
