G04 start of page 2 for group 0 idx 0 *
G04 Title: (unknown), top *
G04 Creator: pcb 20140316 *
G04 CreationDate: Tue Feb 26 01:41:17 2019 UTC *
G04 For: tim *
G04 Format: Gerber/RS-274X *
G04 PCB-Dimensions (mil): 2834.65 3051.18 *
G04 PCB-Coordinate-Origin: lower left *
%MOIN*%
%FSLAX25Y25*%
%LNTOP*%
%ADD40C,0.0580*%
%ADD39C,0.0300*%
%ADD38C,0.0900*%
%ADD37C,0.0480*%
%ADD36C,0.1450*%
%ADD35C,0.1250*%
%ADD34C,0.0380*%
%ADD33C,0.0350*%
%ADD32C,0.0200*%
%ADD31C,0.1000*%
%ADD30C,0.1260*%
%ADD29R,0.0130X0.0130*%
%ADD28R,0.0340X0.0340*%
%ADD27R,0.0250X0.0250*%
%ADD26R,0.0851X0.0851*%
%ADD25R,0.0200X0.0200*%
%ADD24R,0.1181X0.1181*%
%ADD23R,0.0787X0.0787*%
%ADD22R,0.0295X0.0295*%
%ADD21R,0.0512X0.0512*%
%ADD20C,0.1100*%
%ADD19C,0.0700*%
%ADD18C,0.1710*%
%ADD17C,0.1510*%
%ADD16C,0.0360*%
%ADD15C,0.0001*%
%ADD14C,0.0600*%
%ADD13C,0.0400*%
%ADD12C,0.0100*%
%ADD11C,0.0250*%
G54D11*X193957Y159531D02*X200957D01*
X193957Y169531D02*X201457D01*
X193957Y179531D02*X201457D01*
X175957Y169531D02*X186457D01*
G54D12*X170957Y174531D02*X215457D01*
X220457Y173531D02*X225957D01*
X228457Y176031D01*
X223457Y169031D02*X225457D01*
G54D11*X175957Y159531D02*X185957D01*
G54D12*X222957Y159031D02*X228244Y153654D01*
X214957Y154531D02*X217957Y157531D01*
X171457Y165031D02*X215457D01*
X260457Y148531D02*X253457D01*
X228244Y153654D02*Y146728D01*
X233457Y149031D02*X242457D01*
X253457Y148531D02*X247457Y142531D01*
X233957Y129031D02*Y128531D01*
X228244Y146728D02*X226079Y144598D01*
X223457Y129031D02*X221457D01*
X223457Y139031D02*X218957Y134531D01*
X170957D01*
X165957Y129531D01*
X226079Y144598D02*X170957Y144531D01*
X165957Y139531D01*
X165457Y149531D02*X170457Y154531D01*
X214957D01*
G54D11*X206457Y179531D02*X213457D01*
X206457Y169531D02*X213957D01*
X206457Y159531D02*X213457D01*
X206957Y149531D02*X212957D01*
X206457Y139531D02*X213957D01*
G54D12*X217957Y157531D02*Y160531D01*
X221457Y164031D01*
X215457Y165031D02*X217957Y167531D01*
Y171031D01*
X220457Y173531D01*
X215457Y174531D02*X217957Y177031D01*
Y181531D01*
X228457Y176031D02*Y181531D01*
X221457Y164031D02*X241957D01*
X242457Y149031D02*X253457Y160031D01*
X233457Y159031D02*X243957D01*
X241957Y164031D02*X242457Y164531D01*
X253457Y160031D02*Y175531D01*
X243957Y159031D02*X250457Y165531D01*
Y177031D01*
X243457Y169031D02*X246957Y172531D01*
X240457Y174031D02*X242457Y176031D01*
X225457Y169031D02*X230457Y174031D01*
X240457D01*
G54D13*X275882Y178654D02*Y168154D01*
G54D12*X253457Y175531D02*X260957Y183031D01*
X250457Y177031D02*X258457Y185031D01*
X246957Y178531D02*X255457Y187031D01*
X233457Y169031D02*X243457D01*
X246957Y172531D02*Y178531D01*
X242457Y176031D02*Y180531D01*
X251957Y190031D01*
G54D11*X193957Y129031D02*X201457D01*
X175957Y129531D02*X185957D01*
G54D12*X158957Y126531D02*Y132031D01*
X130457D02*X134957Y136531D01*
G54D11*X205957Y129031D02*X213957D01*
G54D12*X151457Y188031D02*Y202531D01*
X153957Y187031D02*Y201531D01*
X155957Y186031D02*Y199031D01*
X145457Y182031D02*X151457Y188031D01*
X147957Y181031D02*X153957Y187031D01*
X150457Y180531D02*X155957Y186031D01*
X141957Y182531D02*X147457Y188031D01*
Y192031D01*
X132181Y183772D02*Y187272D01*
X139457Y194531D01*
X123913Y188693D02*X123957Y193031D01*
X129622Y201882D02*Y207591D01*
X131787Y209756D01*
X132575D01*
X134740Y207591D01*
X132181Y209756D02*Y210937D01*
X134957Y136531D02*Y145531D01*
X137457Y133531D02*Y144531D01*
X140457Y144031D02*X146957Y150531D01*
X143457Y143531D02*X149457Y149531D01*
X145957Y142531D02*X151957Y148531D01*
X148957Y142031D02*X154457Y147531D01*
X151457Y141531D02*X156457Y146531D01*
X140457Y132531D02*Y144031D01*
X143457Y131531D02*Y143531D01*
X145957Y131031D02*Y142531D01*
X148957Y130031D02*Y142031D01*
X151457Y129031D02*Y141531D01*
X154457Y128531D02*Y141531D01*
X156957Y127531D02*Y140031D01*
X154457Y147531D02*Y161031D01*
X156457Y146531D02*Y159531D01*
X158457Y152031D02*X165457Y159031D01*
X158457Y145531D02*Y152031D01*
X156957Y140031D02*X165957Y149031D01*
X158957Y132031D02*X165957Y139031D01*
X154457Y141531D02*X158457Y145531D01*
G54D11*X175957Y149531D02*X185457D01*
X175957Y139531D02*X186457D01*
X192457Y149531D02*X201457D01*
X193457Y139531D02*X200957D01*
G54D12*X144457Y166031D02*X147957Y169531D01*
X145457Y170531D02*Y182031D01*
X142457Y167531D02*X145457Y170531D01*
X147957Y169531D02*Y181031D01*
X150457Y168531D02*Y180531D01*
X139268Y174913D02*X141957Y177531D01*
Y182531D01*
X146957Y165031D02*X150457Y168531D01*
X149457Y164031D02*X152957Y167531D01*
G54D11*X193457Y189531D02*X200957D01*
X193457Y199531D02*X201457D01*
X193457Y209531D02*X201457D01*
X194457Y219531D02*X200957D01*
X194457Y229531D02*X200957D01*
X175957D02*X186957D01*
X175957Y219531D02*X186457D01*
G54D12*X170957Y232031D02*Y224531D01*
G54D11*X193957Y239531D02*X200957D01*
X175957D02*X186457D01*
X206457Y219531D02*X212957D01*
X193957Y249531D02*X201457D01*
X212957D02*X206957D01*
X212957Y250531D02*X213457Y250031D01*
G54D12*X243957Y255531D02*X168957D01*
X244457Y258031D02*X168457D01*
X245457Y260531D02*X167457D01*
X223457Y249031D02*X218957Y244531D01*
X223957Y239031D02*X219457Y234531D01*
X218957Y244531D02*X161957D01*
X219457Y234531D02*X173457D01*
X233457Y239031D02*X228457Y234031D01*
G54D11*X206957Y239531D02*X212890Y239587D01*
X206457Y229531D02*X212957D01*
G54D12*X228457Y234031D02*Y206031D01*
X239457Y207031D02*Y223031D01*
X243457Y202531D02*Y219531D01*
X224957Y194031D02*X228457Y197531D01*
Y202031D01*
X230457Y204031D01*
X236457D01*
X239457Y207031D01*
X229457Y194031D02*X234957D01*
X228457Y193031D02*X229457Y194031D01*
X234957D02*X243457Y202531D01*
X246957Y209031D02*Y190531D01*
X251957Y190031D02*Y247531D01*
X255457Y187031D02*Y247031D01*
X258457Y185031D02*Y247531D01*
X260957Y183031D02*Y249031D01*
G54D11*X266630Y234953D02*Y181213D01*
G54D12*X161957Y244531D02*X159957Y242531D01*
Y235531D01*
X165457Y230031D01*
X173457Y234531D02*X170957Y232031D01*
X157969Y244598D02*Y227669D01*
X155409Y244992D02*X155457Y233531D01*
X153957Y232031D01*
X151472Y244598D02*X151457Y240031D01*
X150457Y239031D01*
X154457Y251031D02*X151957D01*
X258457Y247531D02*X245457Y260531D01*
X251957Y247531D02*X243957Y255531D01*
X255457Y247031D02*X244457Y258031D01*
X156457Y219531D02*X165957Y229031D01*
X170957Y224531D02*X165957Y219531D01*
X170457Y221031D02*Y214031D01*
X157969Y227669D02*X156787Y226488D01*
X153957Y201531D02*X158457Y206031D01*
X155957Y199031D02*X165957Y209031D01*
X156457Y207531D02*Y219531D01*
X151457Y202531D02*X156457Y207531D01*
X158457Y211531D02*X165957Y219031D01*
X158457Y206031D02*Y211531D01*
X170457Y214031D02*X165957Y209531D01*
X170957Y204531D02*X165957Y199531D01*
G54D11*X175957Y209531D02*X186457D01*
X175957Y199531D02*X186957D01*
X175957Y189531D02*X186957D01*
G54D12*X218598Y224717D02*X174098D01*
X170457Y221031D01*
X170957Y194531D02*X215457D01*
X217957Y197031D01*
Y199531D01*
X158957Y192031D02*X165957Y199031D01*
X158957Y185031D02*Y192031D01*
X155457Y178531D02*X165957Y189031D01*
X158457Y171531D02*X165957Y179031D01*
X156457Y159531D02*X165957Y169031D01*
X152957Y179031D02*X158957Y185031D01*
X152957Y167531D02*Y179031D01*
X155457Y166531D02*Y178531D01*
X151957Y163031D02*X155457Y166531D01*
X158457Y165031D02*Y171531D01*
X154457Y161031D02*X158457Y165031D01*
X165957Y159531D02*X171457Y165031D01*
X165957Y169531D02*X170957Y174531D01*
X165957Y179531D02*X170957Y184531D01*
X165957Y189531D02*X170957Y194531D01*
G54D11*X175957Y179531D02*X186457D01*
G54D12*X217957Y181531D02*X220457Y184031D01*
X170957Y184531D02*X214457D01*
X217457Y187531D01*
X220457Y184031D02*X225457D01*
X228457Y187031D01*
Y181531D02*X230957Y184031D01*
X240457D01*
X246957Y190531D01*
X222957Y229031D02*X218598Y224717D01*
X239465Y222945D02*X233457Y229031D01*
X223457Y209031D02*X218957Y204531D01*
X228457Y206031D02*X226457Y204031D01*
X222457D01*
G54D11*X206457Y209531D02*X212957D01*
G54D12*X218957Y204531D02*X170957D01*
X217457Y187531D02*Y191031D01*
G54D11*X206457Y199531D02*X212457D01*
X206457Y190031D02*X213457D01*
G54D12*X217457Y191031D02*X220457Y194031D01*
X217957Y199531D02*X222457Y204031D01*
X220957Y194031D02*X224957D01*
X228457Y187031D02*Y193031D01*
G54D11*X185957Y249531D02*X175957D01*
G54D13*X146457Y267031D02*X211457D01*
G54D11*X162957Y274531D02*X154457D01*
X153957Y274031D01*
X182457D02*X199457D01*
G54D12*X166457Y263031D02*X154457Y251031D01*
G54D13*X214457Y269531D02*X211457Y267031D01*
G54D12*X260957Y249031D02*X246957Y263031D01*
X166457D01*
G54D11*X278047Y272551D02*Y246370D01*
G54D12*X269780Y266646D02*Y256803D01*
X270370Y256213D01*
G54D11*X278047Y246370D02*X266630Y234953D01*
X247957Y274031D02*X250457D01*
X269957Y267531D02*X270457Y267031D01*
G54D13*X248457Y274031D02*Y283531D01*
G54D12*X224457Y287031D02*Y295531D01*
G54D13*Y279031D02*X240957Y295531D01*
G54D12*X224457D02*X225457Y296531D01*
G54D13*X240957Y295531D02*X251457D01*
X214957Y270531D02*X214457Y269531D01*
X215957Y279031D02*X224457D01*
G54D11*X270173Y277276D02*X273323D01*
X278047Y272551D01*
G54D12*X168957Y255531D02*X157957Y244531D01*
X168457Y258031D02*X155409Y244992D01*
X167417Y260543D02*X151433Y244610D01*
X151957Y251031D02*X145957Y245031D01*
X131000Y239480D02*X133953Y236528D01*
Y232394D01*
X133756Y232197D01*
G54D13*X194957Y297531D02*X195457Y297031D01*
X215457D02*Y289531D01*
X194457Y286531D02*X201957D01*
X205457Y290031D01*
Y296531D01*
X215457Y270031D02*Y289031D01*
X131957Y300031D02*X180957D01*
G54D11*X156957Y285531D02*X161457D01*
X161957Y286031D01*
G54D13*X180957Y300031D02*X194457Y286531D01*
G54D11*X175457Y292031D02*X177957D01*
X180457Y289531D01*
Y286031D01*
G54D13*X202457Y29531D02*X202238Y13863D01*
G54D12*X185457Y22531D02*Y34031D01*
X181457Y38031D01*
G54D13*X214465Y29244D02*Y14480D01*
G54D12*X214114Y35193D02*X190957Y35031D01*
X185457Y40531D01*
X217614Y38693D02*X214114Y35193D01*
G54D11*X190252Y51488D02*X203638Y51685D01*
X204031D02*X205803Y53260D01*
G54D12*X203835Y58181D02*X209150D01*
X200291Y54638D02*X203835Y58181D01*
X193598Y54638D02*X200291D01*
X214858Y64480D02*X196551D01*
X194583Y62315D02*X196551Y64480D01*
X243957Y58531D02*X233957Y48531D01*
X246457Y57531D02*X234957Y46031D01*
X246457Y53531D02*X236457Y43531D01*
X231957Y32531D02*X225957Y38531D01*
X240957Y41031D02*X242457Y42531D01*
X231957Y32531D02*Y23031D01*
G54D13*X249957Y31531D02*Y17031D01*
Y31031D02*X255457Y36531D01*
X261957D01*
G54D12*X246457Y53531D02*X262457D01*
G54D11*X270764Y53457D02*Y40661D01*
G54D12*X233559Y69402D02*X233165Y69008D01*
G54D13*X254138Y84362D02*X268592Y84276D01*
X253835Y71567D02*X263957Y71531D01*
G54D11*X193957Y69531D02*X201457D01*
X193457Y79531D02*X200957D01*
X193957Y89531D02*X201457D01*
X193957Y99531D02*X201457D01*
X193457Y109531D02*X201457D01*
X175957D02*X186457D01*
X175957Y99531D02*X186457D01*
X175957Y89531D02*X186957D01*
X175957Y79531D02*X186457D01*
X175957Y119531D02*X186457D01*
G54D12*X216957Y124531D02*X170957D01*
Y94531D02*X215457D01*
X213957Y104531D02*X170957D01*
X215457Y114531D02*X170957D01*
G54D11*X193957Y119531D02*X201457D01*
X206957D02*X212957D01*
X206957Y109531D02*X211957D01*
X212457Y110031D01*
X206457Y99531D02*X212957D01*
X213457Y100031D01*
X206457Y89531D02*X212957D01*
G54D12*X215457Y94531D02*X217457Y96531D01*
Y104531D01*
G54D13*X254138Y118614D02*X268198Y118528D01*
X254138Y130819D02*X268592Y130733D01*
G54D12*X233957Y128531D02*X229457Y124031D01*
X220457D01*
X217957Y121531D01*
X233457Y119031D02*X228457Y114031D01*
X217957Y121531D02*Y117031D01*
X215457Y114531D01*
X231957Y114031D02*X237957D01*
X221457Y129031D02*X216957Y124531D01*
X122339Y137118D02*X117811Y141646D01*
X89858Y136331D02*X92811Y139283D01*
X93992Y134165D02*X94189D01*
X97732Y137709D01*
Y141646D01*
X227957Y107531D02*Y110031D01*
X247457Y104531D02*Y142531D01*
X228457Y114031D02*X219957D01*
X217457Y111531D01*
Y108031D01*
X227957Y110031D02*X231957Y114031D01*
X237957D02*X242457Y109531D01*
X246457Y96531D02*Y57531D01*
X243957Y58531D02*Y101031D01*
X247457Y104531D01*
X258957Y101531D02*X251457D01*
X246457Y96531D01*
X233457Y109031D02*X228957Y104531D01*
X217457D02*X221957Y109031D01*
X217457Y108031D02*X213957Y104531D01*
X233457Y109031D02*X232957D01*
X228957Y105031D01*
X223457Y103031D02*X227957Y107531D01*
X233457Y89031D02*Y88031D01*
X228457Y83031D01*
X228957Y105031D02*Y96031D01*
X226957Y94031D01*
X220957D01*
X223457Y99031D02*Y103031D01*
X220957Y94031D02*X217457Y90531D01*
Y87031D01*
X214957Y84531D01*
X223457Y89031D02*X217957Y83531D01*
G54D13*X166957Y29031D02*X166805Y13863D01*
X155457Y29031D02*X155387Y13469D01*
X120457Y29031D02*X120742Y13469D01*
G54D12*X137957Y21031D02*Y28031D01*
X130957Y35031D01*
X98457D01*
X119457Y48531D02*X116457Y51531D01*
X113957Y50031D02*X117957Y46031D01*
X111457Y48031D02*X115957Y43531D01*
X115457Y40531D02*X108957Y47031D01*
X114457Y38031D02*X106457Y46031D01*
X116457Y51531D02*X116433Y77669D01*
X113874Y77079D02*X113957Y50031D01*
X111315Y76291D02*X111457Y48031D01*
X108957Y47031D02*X108953Y75110D01*
X106457Y46031D02*Y74031D01*
X99898Y71567D02*Y69567D01*
X103244Y66055D01*
Y58181D01*
X88087Y45189D02*Y71189D01*
X92024Y63299D02*Y59953D01*
X93992Y57984D01*
Y64480D02*X96551Y61921D01*
X96748D01*
X98126Y60543D01*
Y52669D01*
X96551Y51094D01*
X97929Y71567D02*Y63496D01*
X96551Y62118D01*
X93992Y71370D02*Y64480D01*
X92024Y71370D02*Y63189D01*
X95957Y72531D02*Y76531D01*
X89957Y73031D02*Y76531D01*
X153047Y67433D02*X158650Y61929D01*
X146157Y69008D02*X140449Y63496D01*
G54D11*X175957Y69531D02*X187457D01*
G54D12*X127260Y75701D02*Y71567D01*
X125291Y69598D01*
X121551D02*X125291D01*
X118795Y78457D02*Y72354D01*
G54D11*X122339Y82394D02*Y76685D01*
X118402Y83772D02*X120961D01*
X122339Y82394D01*
G54D12*X118795Y72354D02*X121551Y69598D01*
G54D11*X206457Y79531D02*X212957D01*
G54D12*X170457Y84531D02*X165457Y79531D01*
X170457Y84531D02*X214957D01*
X228457Y83031D02*Y65531D01*
X226957Y64031D01*
X217957Y83531D02*Y67531D01*
X214858Y64480D01*
X216972Y61547D02*X219457Y64031D01*
X226957D01*
G54D11*X206457Y69531D02*X213457D01*
G54D12*X188480Y67433D02*Y65661D01*
X190646Y63496D01*
X202457Y61528D02*X216972Y61547D01*
X181787Y61331D02*X176079D01*
X202457Y61528D02*X198913Y57984D01*
X209150Y58181D02*X214465Y52866D01*
G54D11*X187102Y61724D02*Y54441D01*
Y54638D02*X190449Y51488D01*
G54D12*X181394Y53850D02*X179622Y52079D01*
X190646Y63496D02*Y57591D01*
X233957Y48531D02*X119457D01*
X179622Y52079D02*X146354D01*
X140843Y57591D01*
X234957Y46031D02*X117957D01*
X236457Y43531D02*X115957D01*
X181457Y38031D02*X114457D01*
X115457Y40531D02*X185457D01*
X194957Y39031D02*X196957Y41031D01*
X240957D01*
X217614Y38693D02*X225957Y38531D01*
X190646Y57591D02*X193598Y54638D01*
X71957Y240031D02*Y227531D01*
X52457Y255031D02*X69457Y238031D01*
Y226031D01*
X71945Y240071D02*Y241449D01*
X65957Y190531D02*X60957D01*
X59957D01*
X58457Y192031D01*
X29425Y192039D01*
X31197Y198929D02*X34543Y195583D01*
X77957Y195531D02*X34543Y195583D01*
X83756Y213299D02*X78756D01*
G54D13*X25957Y209531D02*X21457D01*
X16457Y214531D01*
X25957Y219531D02*Y241031D01*
X16457Y214531D02*Y247031D01*
X45957Y219531D02*Y228531D01*
G54D11*X40457Y237031D02*X50457D01*
X69957Y217531D01*
X61512Y213890D02*X56787Y218614D01*
G54D13*X25957Y241031D02*X31957Y247031D01*
X39457D01*
X35957Y219531D02*Y228531D01*
X35457Y229031D01*
G54D11*X35957Y228531D02*Y232531D01*
X40457Y237031D01*
X35921Y209559D02*Y204047D01*
G54D12*X23520Y198929D02*X31394D01*
G54D11*X35921Y204047D02*X39858Y200110D01*
X57772D01*
X60724Y203063D01*
X60921D01*
X61512Y203654D01*
Y213890D01*
G54D13*X16457Y247031D02*X35921Y266449D01*
X53638D01*
G54D12*X52063Y261331D02*X45567D01*
X43795Y259559D01*
Y251882D01*
X52457Y255031D02*X48717D01*
X71945Y241449D02*X52063Y261331D01*
X43795Y251882D02*X48717Y246961D01*
G54D13*X78047Y258378D02*X80803Y255622D01*
G54D12*X87890Y149913D02*Y147354D01*
X85957Y156031D02*Y165031D01*
X95764Y150307D02*Y146807D01*
X91827Y155425D02*Y159953D01*
X90252Y161528D01*
Y165661D01*
X89858Y148339D02*Y145189D01*
X91827Y148929D02*Y143417D01*
X93795Y148732D02*Y144992D01*
X105457Y155531D02*Y158031D01*
X100957Y162531D01*
X95957D01*
X85957Y165031D02*X93957Y173031D01*
X90646Y176488D02*Y176291D01*
X93992Y172945D01*
X95370D01*
X90252Y165661D02*X92811Y168220D01*
X90646Y176488D02*X90449D01*
X95370Y172945D02*X97929Y170386D01*
X92811Y168220D02*X98717D01*
X97929Y170386D02*X100488D01*
X109740Y161134D01*
X98717Y168220D02*X114858Y152079D01*
X112890Y180819D02*X104819D01*
X119976Y188693D02*X127476D01*
X129622Y186134D01*
X118795Y186724D02*X123795D01*
X137339Y186874D02*X141827Y191252D01*
X137299Y198339D02*Y194839D01*
X135957Y193531D01*
X126669Y183772D02*Y177272D01*
X128457Y175531D01*
X130957D01*
X132181Y176685D01*
Y180685D01*
X134740Y174913D02*Y180413D01*
X129622Y186134D02*Y183134D01*
X123795Y186724D02*X126669Y183772D01*
X119780Y184756D02*X121780D01*
X124504Y182000D01*
X137299Y182787D02*X137339Y186874D01*
X124504Y182000D02*Y176094D01*
X123323Y172945D02*Y164677D01*
X121748Y163102D01*
X124504Y176094D02*X128457Y172126D01*
X131984Y172157D01*
X134740Y174913D01*
X120173D02*X121354D01*
X123323Y172945D01*
X66630Y184559D02*X61130D01*
X65843Y186724D02*X59150D01*
X56787Y184362D01*
X65646Y188693D02*X47142D01*
X61130Y184559D02*X58228Y182000D01*
X58165D02*X53441D01*
G54D11*X54622Y177472D02*X57772D01*
G54D12*X85957Y196531D02*Y180531D01*
X89957Y176531D01*
X103957Y190531D02*X89957Y176531D01*
X67220Y174913D02*X60528D01*
G54D11*X49307Y173339D02*X6591D01*
X49701Y174126D02*X48520Y173339D01*
G54D12*X49307Y184362D02*X42811Y177669D01*
X53441Y182000D02*X49307Y177866D01*
X56787Y184362D02*X49307D01*
X47142Y188693D02*X39858Y181409D01*
X3638D01*
X87890Y147354D02*X86118Y145539D01*
X80606Y144992D02*X75488D01*
X73323Y147157D01*
X65957Y163031D02*X56457D01*
G54D11*X58559Y149913D02*X66630D01*
X81394Y164677D01*
Y167433D01*
X49504Y176685D02*Y174520D01*
X57772Y177472D02*X60331Y174913D01*
X81394Y167433D02*X90646Y176685D01*
X49504Y174520D02*X52260Y171764D01*
X54228D01*
X56591Y169402D01*
Y156803D01*
X20961Y157787D02*X13677D01*
X13283Y157394D02*X11315Y155819D01*
X27654Y166843D02*X27760Y159031D01*
X33362Y145386D02*X26366Y145441D01*
X19957Y144728D02*X11457Y144531D01*
X20370Y149717D02*X22535Y151488D01*
X20173Y144795D02*Y149323D01*
X20567Y166449D02*X9150D01*
X47535Y149913D02*X52063D01*
G54D12*X42811Y177669D02*X17417D01*
G54D11*X45567Y151685D02*X47535Y149913D01*
X22929Y151685D02*X45173D01*
X28047Y166843D02*X51472Y166646D01*
G54D12*X105457Y202031D02*Y205531D01*
X107457Y203031D02*Y204031D01*
X107957Y204531D01*
X105457Y205531D02*X127457Y227531D01*
X134457D01*
X107957Y204531D02*X115957D01*
G54D11*X143992Y211528D02*X124469Y211567D01*
G54D12*X112457Y190531D02*X103957D01*
X141827Y191252D02*X141957Y199531D01*
X139457Y194531D02*X139465Y201488D01*
X141965Y203988D01*
G54D11*X147457Y198531D02*Y208031D01*
X143992Y211528D01*
G54D12*X134740Y201685D02*Y207591D01*
X132181Y198535D02*Y193535D01*
X135957Y193531D02*X127457D01*
X124957Y196031D01*
Y200531D01*
G54D13*X130957Y251031D02*X146457Y267031D01*
X113457Y263031D02*Y281531D01*
X131957Y300031D01*
X130957Y251031D02*Y250531D01*
X128457Y248031D01*
G54D12*X142457Y153031D02*Y167531D01*
X144457Y151531D02*Y166031D01*
X135240Y174913D02*X139268D01*
X134957Y145531D02*X142457Y153031D01*
X137457Y144531D02*X144457Y151531D01*
X114457Y144031D02*X124457Y154031D01*
X146957Y150531D02*Y165031D01*
X149457Y149531D02*Y164031D01*
X151957Y148531D02*Y163031D01*
X95764Y146807D02*X98457Y144031D01*
X81957Y150531D02*X81984Y146370D01*
X80606Y144992D01*
X98457Y144031D02*X104457D01*
X114457D01*
X113457Y165031D02*X109457D01*
X99457Y175031D01*
X109937Y161134D02*X113957Y161031D01*
X119583Y163102D02*X121748D01*
X124425Y160531D01*
X124457Y154031D01*
X89457Y127031D02*X134957D01*
X140457Y132531D01*
X88480Y129638D02*X133480D01*
X137457Y133531D01*
X87957Y132031D02*X130457D01*
X93795Y144992D02*X97142Y141646D01*
X71551Y134165D02*X94189D01*
X91827Y143417D02*X87299Y138890D01*
X85921Y141252D02*X68795D01*
X69386Y136331D02*X89858D01*
X68008Y138890D02*X87299D01*
X85921Y141252D02*X89858Y145189D01*
X71484Y134165D02*X64957Y127531D01*
X67811Y138890D02*X59937Y131016D01*
X68795Y141252D02*X65646Y144402D01*
X62496Y129441D02*X69386Y136331D01*
X59957Y128031D02*X59937Y130819D01*
X47957Y131031D02*X49957D01*
X53457Y127531D01*
Y122531D01*
G54D11*X38480Y121961D02*X38283Y140661D01*
G54D12*X23957Y134031D02*Y129031D01*
X31457Y121531D01*
X17417Y130031D02*X22457Y125031D01*
G54D11*X15252Y138299D02*X7181Y130228D01*
Y119992D01*
X7378Y119795D01*
X4031Y137315D02*X9150Y132197D01*
X27063Y145976D02*Y140661D01*
X33756Y145583D02*X38480Y140858D01*
X4031Y170976D02*Y137315D01*
X6394Y173339D02*X4031Y170976D01*
G54D13*X71957Y248031D02*X53441Y266449D01*
Y271567D01*
X63874Y282000D01*
X84374D01*
X81457Y272031D02*X78047Y268614D01*
Y268417D02*Y258378D01*
X80606Y255622D02*X85134D01*
X85087Y255583D02*X85193Y255476D01*
X92614Y281606D02*Y277866D01*
G54D11*X93417Y281591D02*X94917D01*
G54D13*X92614Y277866D02*X87154Y272307D01*
G54D11*X106957Y272531D02*Y280031D01*
X106457D01*
G54D13*X87154Y272307D02*X81457Y272031D01*
X88677Y290268D02*Y299768D01*
G54D12*X91630Y286134D02*X94957Y289531D01*
Y292531D01*
X100457Y298031D01*
G54D11*X94917Y281591D02*X106457Y293031D01*
G54D12*X91630Y286134D02*X88677D01*
G54D13*X89661Y264087D02*X90161D01*
G54D11*X101457Y255531D02*Y267031D01*
X106957Y272531D01*
G54D13*X90366Y264142D02*X98457Y272531D01*
G54D12*X88677Y286134D02*X85724Y283181D01*
X97732Y208760D02*X78835Y227669D01*
X97535Y219598D02*X91957Y219531D01*
G54D11*X78441Y232984D02*X85134D01*
G54D12*X91236Y232591D02*X94780D01*
X124957Y200531D02*X123457Y202031D01*
X123957Y193031D02*X118957Y198031D01*
X72957Y202031D02*Y203531D01*
Y202031D02*X76457Y205531D01*
X85091Y217827D02*X95764Y207197D01*
X84319Y215661D02*X93795Y206409D01*
X103638Y202669D02*Y227472D01*
X101669Y203063D02*Y215465D01*
X97535Y219598D01*
X99701Y203260D02*Y211921D01*
X97866Y213587D01*
X97732Y203260D02*Y208760D01*
X91827Y205228D02*X83756Y213299D01*
X95764Y207197D02*Y202697D01*
X93795Y206409D02*Y203063D01*
X91827D02*Y205228D01*
X89661Y203547D02*Y204047D01*
X86661Y207047D01*
X87890Y203063D02*Y205622D01*
X83957Y205031D02*X85457Y206531D01*
X118957Y198031D02*X118933Y211949D01*
G54D13*X128457Y248031D02*X71957D01*
X93457Y255531D02*X101457D01*
G54D11*X85134Y232984D02*Y240858D01*
G54D12*X90843Y239480D02*X131000D01*
X71957Y227531D02*X81591Y217827D01*
X69457Y226031D02*X79819Y215661D01*
X84319D01*
X81591Y217827D02*X85091D01*
X73957Y218031D02*X69957D01*
X78756Y213299D02*X73957Y218031D01*
X66457Y211531D02*Y214531D01*
X69957Y218031D01*
X83957Y203031D02*Y205031D01*
X79957Y203031D02*Y204531D01*
G54D11*X78244Y240661D02*Y233181D01*
G54D12*X81957Y203531D02*Y206031D01*
X79457Y208531D01*
X79957Y204531D02*X78957Y205531D01*
X76457D02*X78957D01*
X79457Y208531D02*X72457D01*
X72535Y208575D02*X69780Y205819D01*
X66039D01*
X150457Y93031D02*X156457Y87031D01*
X151957Y95031D02*X157457Y89531D01*
X147835Y91252D02*X152957Y86031D01*
X153957Y97031D02*X156457Y99531D01*
X165957D01*
X157457Y89531D02*X165957D01*
X162457Y106031D02*X165957Y109531D01*
X156457Y87031D02*Y82031D01*
X158957Y79531D01*
X165957D01*
X152957Y86031D02*X153047Y67236D01*
X146457Y84531D02*X146354Y69205D01*
X166457Y89531D02*Y90031D01*
X170957Y94531D01*
Y104531D02*X165957Y99531D01*
X141728Y89283D02*X146457Y84531D01*
X127457Y83181D02*Y87118D01*
X109740Y81213D02*X113874Y77079D01*
X104228Y83378D02*X110724D01*
X116433Y77669D01*
X104425Y85150D02*X112102D01*
D03*
X118795Y78457D01*
X104457Y97031D02*X153957D01*
X103957Y106031D02*X162457D01*
X101957Y108031D02*X154457D01*
G54D11*X121945Y101094D02*X149110D01*
G54D12*X104819Y87118D02*X130819D01*
X104228Y89283D02*X141728D01*
X103835Y91252D02*X147835D01*
X104457Y93031D02*X150457D01*
X104457Y95031D02*X151957D01*
X130819Y87118D02*X137457Y80531D01*
X154457Y108031D02*X165957Y119531D01*
X146457Y110031D02*X165957Y129531D01*
X144457Y112031D02*X158957Y126531D01*
X143457Y114031D02*X156957Y127531D01*
X141957Y116031D02*X154457Y128531D01*
X140957Y118531D02*X151457Y129031D01*
X139457Y120531D02*X148957Y130031D01*
X137957Y123031D02*X145957Y131031D01*
X136957Y125031D02*X143457Y131531D01*
X170957Y114531D02*X165957Y109531D01*
X170957Y124531D02*X165957Y119531D01*
X99957Y110031D02*X146457D01*
X97957Y112031D02*X144457D01*
X96957Y114031D02*X143457D01*
X95457Y116031D02*X141957D01*
X94957Y118531D02*X140957D01*
X93957Y120531D02*X139457D01*
X92457Y123031D02*X137957D01*
X90957Y125031D02*X136957D01*
X117811Y141646D02*X97142D01*
X106457Y74031D02*X105213Y75307D01*
X103213D01*
X104425Y77276D02*X106787D01*
X108953Y75110D01*
X105213Y79244D02*X108362D01*
X111315Y76291D01*
X104622Y81213D02*X109740D01*
X32913Y79244D02*X22957Y89531D01*
X40957Y86031D02*X45764Y81213D01*
X43402Y88693D02*X48913Y83181D01*
X48520Y89480D02*X52654Y85150D01*
X27217Y77276D02*X16433Y87906D01*
X73457Y97031D02*X72957D01*
X73457Y93031D02*X68957D01*
X64957Y97031D01*
X74457Y95031D02*X70957D01*
X72957Y97031D02*X70457Y99531D01*
Y105531D01*
X75957Y111031D01*
X57457Y92531D02*X62693Y87315D01*
X64717Y89283D02*X59957Y94031D01*
X66217Y91252D02*X62457Y95031D01*
G54D11*X53441Y98732D02*Y90732D01*
X54941Y89232D01*
G54D12*X16433Y87906D02*Y111024D01*
X62693Y87315D02*X73693D01*
X73717Y89283D02*X64717D01*
X73717Y91252D02*X66217D01*
X70957Y95031D02*X67457Y98531D01*
X99957Y102031D02*X103957Y106031D01*
X97957Y102031D02*Y104031D01*
X101957Y108031D01*
X95957Y106031D02*X99957Y110031D01*
X93992Y107988D02*X97957Y112031D01*
X92024Y109382D02*X96957Y114031D01*
X95957Y102031D02*Y106031D01*
X93992Y101488D02*Y107988D01*
X92024Y101882D02*Y109382D01*
X90055Y101685D02*Y110685D01*
X88087Y101685D02*Y111685D01*
X90055Y110685D02*X95457Y116031D01*
X88087Y111685D02*X94957Y118531D01*
X86118Y112685D02*X93957Y120531D01*
X86118Y101685D02*Y112685D01*
X84150Y101488D02*Y114488D01*
X82181Y101291D02*Y116291D01*
X80213Y101488D02*Y117488D01*
X78244Y100898D02*Y119398D01*
X75957Y111031D02*Y120031D01*
X84150Y114488D02*X92457Y123031D01*
X82181Y116291D02*X90957Y125031D01*
X80213Y117488D02*X89457Y127031D01*
X78244Y119398D02*X88480Y129638D01*
X75957Y120031D02*X87957Y132031D01*
X81984Y130819D02*X67417Y116252D01*
X38457Y105031D02*X34457Y109031D01*
X23457D01*
X16433Y111134D02*X18122Y112945D01*
X23457Y109031D02*X22957Y108531D01*
Y89531D02*Y98531D01*
X40957Y106031D02*Y86031D01*
X43457Y97031D02*X43402Y88693D01*
X48457Y97031D02*X48520Y89480D01*
X38457Y102531D02*Y105031D01*
X31457Y113031D02*Y121531D01*
X22457Y125031D02*Y118031D01*
X22957Y117531D01*
X48457Y114031D02*Y118031D01*
X18205Y113102D02*X47457Y113031D01*
X53457Y118531D02*Y114031D01*
X47457Y113031D02*X48457Y114031D01*
X53457D02*X47457Y108031D01*
X42957D01*
X40957Y106031D01*
X43457Y123031D02*Y133031D01*
G54D11*X33165Y136921D02*Y130031D01*
X31787Y128654D01*
X27063Y140661D02*X24701Y138299D01*
X15252D01*
G54D12*X43457Y133031D02*X45957Y135531D01*
X54457D01*
X57457Y132531D01*
Y92531D01*
X59957Y94031D02*Y128031D01*
Y127531D02*Y128031D01*
X62457Y95031D02*X62496Y129441D01*
X64957Y97031D02*Y127531D01*
X67457Y98531D02*X67417Y116252D01*
G54D13*X106957Y29531D02*X106962Y13075D01*
X72957Y29031D02*X72710Y13469D01*
X59957Y29031D02*X59718Y14650D01*
X25072Y29611D02*Y13863D01*
G54D12*X90457Y22031D02*Y31531D01*
X86118Y35937D01*
X43957Y20531D02*Y38531D01*
X11118Y28850D02*X20961Y38693D01*
X33953D01*
X34150Y38890D01*
X12890Y48142D02*X16039Y44992D01*
X59740D02*X16039D01*
X98457Y35031D02*X88087Y45189D01*
X78457Y48531D02*X82457Y44531D01*
X82575Y44598D02*Y38299D01*
X78441Y34165D01*
X67220D01*
X62890Y38496D01*
Y41843D01*
X59740Y44992D01*
X86118Y35937D02*Y71437D01*
X78457Y63031D02*Y48531D01*
Y63031D02*X82181Y66780D01*
X82457Y62031D02*Y57531D01*
X84150Y71370D02*Y63870D01*
X82457Y62031D01*
X82181Y70780D02*Y66780D01*
X81681Y66280D01*
X80213Y68280D02*X69457Y57531D01*
Y39031D01*
X73717Y77276D02*X27217D01*
X78047Y70583D02*X66457Y70531D01*
X80213Y70780D02*Y68280D01*
X74307Y75307D02*X59307D01*
X55957Y72031D01*
X47142Y66055D02*X41827Y71370D01*
X73913Y79244D02*X32913D01*
X45764Y81213D02*X74764D01*
X48913Y83181D02*X73823D01*
X52654Y85150D02*X74154D01*
X72457Y66031D02*X47142Y66055D01*
X24504Y63890D02*X63087D01*
X66433Y60543D01*
X21748Y54638D02*X33756D01*
X20764Y60150D02*X24504Y63890D01*
X17024Y49126D02*Y55031D01*
X27850Y48535D02*X17811D01*
X17614D02*X17024Y49126D01*
X16827Y58969D02*Y65268D01*
Y66449D01*
X21748Y71370D01*
X33756Y54638D02*X35921Y56803D01*
X7772Y100504D02*X12890Y95386D01*
Y48142D01*
G54D14*X165957Y199531D03*
Y189531D03*
Y179531D03*
Y169531D03*
Y159531D03*
Y149531D03*
Y139531D03*
Y129531D03*
Y119531D03*
Y109531D03*
Y99531D03*
Y89531D03*
Y79531D03*
X175957D03*
Y89531D03*
Y99531D03*
Y109531D03*
Y119531D03*
Y129531D03*
G54D15*G36*
X230457Y62031D02*Y56031D01*
X236457D01*
Y62031D01*
X230457D01*
G37*
G54D14*X223457Y59031D03*
X233457Y69031D03*
X223457D03*
X233457Y79031D03*
X223457D03*
X233457Y89031D03*
X223323Y32394D03*
X223457Y89031D03*
Y99031D03*
Y109031D03*
X233457Y99031D03*
Y109031D03*
Y119031D03*
Y129031D03*
Y139031D03*
Y149031D03*
X223457Y119031D03*
Y129031D03*
Y139031D03*
Y149031D03*
G54D16*X94051Y91126D03*
Y81283D03*
X84209D03*
Y91126D03*
G54D15*G36*
X50957Y41531D02*Y35531D01*
X56957D01*
Y41531D01*
X50957D01*
G37*
G54D14*X43957Y38531D03*
X33957D03*
X10528Y28457D03*
G54D15*G36*
X19760Y121531D02*Y115531D01*
X25760D01*
Y121531D01*
X19760D01*
G37*
G54D14*X22760Y108531D03*
Y98531D03*
G54D15*G36*
X4575Y123386D02*Y117386D01*
X10575D01*
Y123386D01*
X4575D01*
G37*
G54D14*X7575Y110386D03*
Y100386D03*
Y90465D03*
Y80425D03*
G54D15*G36*
X52803Y59606D02*Y53606D01*
X58803D01*
Y59606D01*
X52803D01*
G37*
G54D14*X45803Y56606D03*
X35803D03*
G54D15*G36*
X38630Y74567D02*Y68567D01*
X44630D01*
Y74567D01*
X38630D01*
G37*
G54D14*X31630Y71567D03*
X21630D03*
G54D17*X112953Y262949D03*
X131457Y274760D03*
G54D18*Y251531D03*
G54D15*G36*
X162957Y242531D02*Y236531D01*
X168957D01*
Y242531D01*
X162957D01*
G37*
G54D14*X165957Y229531D03*
Y219531D03*
Y209531D03*
G54D15*G36*
X35457Y250531D02*Y243531D01*
X42457D01*
Y250531D01*
X35457D01*
G37*
G54D19*X48957Y247031D03*
Y255031D03*
X38957D03*
G54D20*X67957Y266031D03*
X19957D03*
G54D15*G36*
X52957Y222531D02*Y216531D01*
X58957D01*
Y222531D01*
X52957D01*
G37*
G54D14*X45957Y219531D03*
X35957D03*
X25957D03*
X55957Y209531D03*
X45957D03*
X35957D03*
X25957D03*
X175957Y139531D03*
Y149531D03*
Y159531D03*
Y169531D03*
Y179531D03*
Y189531D03*
Y199531D03*
Y209531D03*
Y219531D03*
Y229531D03*
Y239531D03*
X233457Y159031D03*
X223457D03*
Y169031D03*
Y179031D03*
X233457Y169031D03*
Y179031D03*
Y189031D03*
Y199031D03*
Y209031D03*
Y219031D03*
X223457Y189031D03*
Y199031D03*
Y209031D03*
Y219031D03*
X233457Y229031D03*
Y239031D03*
Y249031D03*
X223457Y229031D03*
Y239031D03*
Y249031D03*
G54D15*G36*
X221957Y273531D02*Y267531D01*
X227957D01*
Y273531D01*
X221957D01*
G37*
G54D14*X214957Y270531D03*
G54D15*G36*
X221457Y301031D02*Y293031D01*
X229457D01*
Y301031D01*
X221457D01*
G37*
G54D19*X215457Y297031D03*
X205457D03*
X195457D03*
G54D15*G36*
X266957Y260031D02*Y254031D01*
X272957D01*
Y260031D01*
X266957D01*
G37*
G54D14*X269957Y267031D03*
Y277031D03*
G54D21*X193500Y249924D02*Y249138D01*
Y219924D02*Y219138D01*
X186414Y249924D02*Y249138D01*
Y219924D02*Y219138D01*
Y209924D02*Y209138D01*
Y199924D02*Y199138D01*
Y189924D02*Y189138D01*
Y179924D02*Y179138D01*
X193500Y239924D02*Y239138D01*
X186414Y239924D02*Y239138D01*
G54D22*X201398Y250023D02*Y249039D01*
X206516Y250023D02*Y249039D01*
X201398Y240023D02*Y239039D01*
X206516Y240023D02*Y239039D01*
X201398Y230023D02*Y229039D01*
X206516Y230023D02*Y229039D01*
G54D21*X193500Y209924D02*Y209138D01*
Y199924D02*Y199138D01*
Y189924D02*Y189138D01*
Y179924D02*Y179138D01*
Y169924D02*Y169138D01*
X186414Y169924D02*Y169138D01*
X193500Y159924D02*Y159138D01*
X186414Y159924D02*Y159138D01*
G54D22*X201398Y220023D02*Y219039D01*
Y210023D02*Y209039D01*
Y200023D02*Y199039D01*
X206516Y220023D02*Y219039D01*
Y210023D02*Y209039D01*
Y200023D02*Y199039D01*
Y190023D02*Y189039D01*
Y180023D02*Y179039D01*
Y170023D02*Y169039D01*
X201398Y190023D02*Y189039D01*
Y180023D02*Y179039D01*
Y170023D02*Y169039D01*
Y160023D02*Y159039D01*
X206516Y160023D02*Y159039D01*
X201898Y150023D02*Y149039D01*
X201398Y140023D02*Y139039D01*
X207016Y150023D02*Y149039D01*
X206516Y140023D02*Y139039D01*
G54D23*X185309Y20949D02*Y5201D01*
G54D21*X193500Y129924D02*Y129138D01*
Y119924D02*Y119138D01*
Y109924D02*Y109138D01*
X186414Y129924D02*Y129138D01*
Y119924D02*Y119138D01*
Y109924D02*Y109138D01*
Y99924D02*Y99138D01*
Y89924D02*Y89138D01*
Y79924D02*Y79138D01*
X193500Y99924D02*Y99138D01*
Y89924D02*Y89138D01*
Y79924D02*Y79138D01*
Y69924D02*Y69138D01*
X186414Y69924D02*Y69138D01*
G54D22*X187090Y61941D02*Y60957D01*
Y55248D02*Y54264D01*
G54D21*X186414Y139924D02*Y139138D01*
X193500Y139924D02*Y139138D01*
X185914Y149924D02*Y149138D01*
X193000Y149924D02*Y149138D01*
G54D24*X203025Y18981D02*Y7170D01*
G54D22*X201398Y129523D02*Y128539D01*
X206516Y129523D02*Y128539D01*
X201398Y120023D02*Y119039D01*
X206516Y120023D02*Y119039D01*
X201398Y110023D02*Y109039D01*
X206516Y110023D02*Y109039D01*
X201398Y100023D02*Y99039D01*
X206516Y100023D02*Y99039D01*
X201398Y90023D02*Y89039D01*
Y70023D02*Y69039D01*
X206516Y90023D02*Y89039D01*
Y70023D02*Y69039D01*
X201398Y80023D02*Y79039D01*
X206516Y80023D02*Y79039D01*
G54D12*X78008Y156161D02*Y148287D01*
X79976Y156161D02*Y148287D01*
X81945Y156161D02*Y148287D01*
X83913Y156161D02*Y148287D01*
X85882Y156161D02*Y148287D01*
X87850Y156161D02*Y148287D01*
X89819Y156161D02*Y148287D01*
X91787Y156161D02*Y148287D01*
X93756Y156161D02*Y148287D01*
X95724Y156161D02*Y148287D01*
X97693Y156161D02*Y148287D01*
X99661Y156161D02*Y148287D01*
X101630Y156161D02*Y148287D01*
X103598Y156161D02*Y148287D01*
X105567Y156161D02*Y148287D01*
X107535Y156161D02*Y148287D01*
X65213Y190610D02*X73087D01*
X65213Y188642D02*X73087D01*
X65213Y186673D02*X73087D01*
X65213Y184705D02*X73087D01*
X65213Y182736D02*X73087D01*
X65213Y180768D02*X73087D01*
X65213Y178799D02*X73087D01*
X65213Y176831D02*X73087D01*
X65213Y174862D02*X73087D01*
X65213Y172894D02*X73087D01*
X65213Y163051D02*X73087D01*
G54D21*X58952Y150503D02*Y149717D01*
X51866Y150503D02*Y149717D01*
G54D22*X49701Y177768D02*Y176784D01*
X54819Y177768D02*Y176784D01*
G54D12*X65213Y170925D02*X73087D01*
X65213Y168957D02*X73087D01*
X65213Y166988D02*X73087D01*
X65213Y165020D02*X73087D01*
G54D21*X27260Y167039D02*Y166253D01*
G54D12*X65213Y161083D02*X73087D01*
G54D25*X53457Y125731D02*Y117031D01*
X48457Y125731D02*Y117031D01*
X43457Y125731D02*Y117031D01*
X38457Y125731D02*Y117031D01*
G54D22*X33362Y137807D02*Y136823D01*
X38480Y137807D02*Y136823D01*
X20961Y145878D02*Y144894D01*
X26079Y145878D02*Y144894D01*
G54D21*X27260Y157984D02*Y157198D01*
X20174Y157984D02*Y157198D01*
Y167039D02*Y166253D01*
G54D23*X90820Y20949D02*Y5201D01*
G54D24*X108537Y18981D02*Y7170D01*
G54D23*X138065Y20949D02*Y5201D01*
G54D24*X120348Y18981D02*Y7170D01*
X155781Y18981D02*Y7170D01*
X167592Y18981D02*Y7170D01*
G54D26*X124339Y60543D02*X137945D01*
X159945D02*X173213D01*
G54D22*X181972Y61941D02*Y60957D01*
Y55248D02*Y54264D01*
G54D23*X232272Y20843D02*Y5094D01*
G54D24*X249988Y18874D02*Y7063D01*
G54D23*X261612Y54587D02*X277360D01*
G54D24*X263580Y36870D02*X275391D01*
X214555Y18874D02*Y7063D01*
G54D12*X73382Y89157D02*X76335D01*
X73382Y87189D02*X76335D01*
X73382Y85220D02*X76335D01*
X73382Y83252D02*X76335D01*
X73382Y81283D02*X76335D01*
G54D22*X122339Y83673D02*Y82689D01*
X127457Y83673D02*Y82689D01*
G54D12*X73382Y79315D02*X76335D01*
X73382Y77346D02*X76335D01*
X73382Y75378D02*X76335D01*
G54D22*X122339Y76980D02*Y75996D01*
X127457Y76980D02*Y75996D01*
G54D24*X263580Y83882D02*X275391D01*
X263580Y72304D02*X275391D01*
G54D23*X43576Y20949D02*Y5201D01*
G54D24*X61293Y18981D02*Y7170D01*
X25860Y18981D02*Y7170D01*
X73104Y18981D02*Y7170D01*
G54D27*X21014Y55309D02*Y54309D01*
X17014Y60309D02*Y59309D01*
Y55309D02*Y54309D01*
X21014Y60309D02*Y59309D01*
G54D12*X73382Y97031D02*X76335D01*
X78303Y101953D02*Y99000D01*
X73382Y95063D02*X76335D01*
X73382Y93094D02*X76335D01*
X73382Y91126D02*X76335D01*
X80272Y101953D02*Y99000D01*
X82240Y101953D02*Y99000D01*
X84209Y101953D02*Y99000D01*
X86177Y101953D02*Y99000D01*
X88146Y101953D02*Y99000D01*
G54D15*G36*
X78303Y97031D02*Y75378D01*
X99957D01*
Y97031D01*
X78303D01*
G37*
G54D12*X90114Y101953D02*Y99000D01*
X92083Y101953D02*Y99000D01*
X94051Y101953D02*Y99000D01*
X96020Y101953D02*Y99000D01*
X97988Y101953D02*Y99000D01*
G54D25*X38457Y103031D02*Y94331D01*
X43457Y103031D02*Y94331D01*
X48457Y103031D02*Y94331D01*
X53457Y103031D02*Y94331D01*
G54D12*X99957Y101953D02*Y99000D01*
X101925Y97031D02*X104878D01*
X101925Y95063D02*X104878D01*
X101925Y93094D02*X104878D01*
X101925Y91126D02*X104878D01*
X101925Y89157D02*X104878D01*
X101925Y87189D02*X104878D01*
X101925Y85220D02*X104878D01*
X101925Y83252D02*X104878D01*
X101925Y81283D02*X104878D01*
X101925Y79315D02*X104878D01*
X101925Y77346D02*X104878D01*
X101925Y75378D02*X104878D01*
X78303Y73409D02*Y70457D01*
X80272Y73409D02*Y70457D01*
X82240Y73409D02*Y70457D01*
X84209Y73409D02*Y70457D01*
X86177Y73409D02*Y70457D01*
X88146Y73409D02*Y70457D01*
X90114Y73409D02*Y70457D01*
X92083Y73409D02*Y70457D01*
X94051Y73409D02*Y70457D01*
X96020Y73409D02*Y70457D01*
X97988Y73409D02*Y70457D01*
X99957Y73409D02*Y70457D01*
G54D26*X133457Y229531D02*X147063D01*
G54D21*X193500Y229924D02*Y229138D01*
X186414Y229924D02*Y229138D01*
G54D28*X85457Y255831D02*Y255231D01*
X93257Y255831D02*Y255231D01*
X89357Y264031D02*Y263431D01*
X84957Y282331D02*Y281731D01*
X92757Y282331D02*Y281731D01*
X88857Y290531D02*Y289931D01*
G54D21*X245702Y283626D02*X251212D01*
X245702Y295436D02*X251212D01*
X163202Y274126D02*X168712D01*
X163202Y285936D02*X168712D01*
X177702D02*X183212D01*
X177702Y274126D02*X183212D01*
G54D26*X98189Y229531D02*X111457D01*
G54D22*X78343Y227866D02*X79327D01*
X78343Y232984D02*X79327D01*
X90449Y241153D02*Y240169D01*
X85331Y241153D02*Y240169D01*
X90449Y234264D02*Y233280D01*
X85331Y234264D02*Y233280D01*
G54D12*X107535Y203406D02*Y195531D01*
X105567Y203406D02*Y195531D01*
X103598Y203406D02*Y195531D01*
X101630Y203406D02*Y195531D01*
X99661Y203406D02*Y195531D01*
X97693Y203406D02*Y195531D01*
X95724Y203406D02*Y195531D01*
X93756Y203406D02*Y195531D01*
X91787Y203406D02*Y195531D01*
X89819Y203406D02*Y195531D01*
X87850Y203406D02*Y195531D01*
X85882Y203406D02*Y195531D01*
X83913Y203406D02*Y195531D01*
X81945Y203406D02*Y195531D01*
X79976Y203406D02*Y195531D01*
X78008Y203406D02*Y195531D01*
Y197500D02*Y195531D01*
G54D22*X65862Y205831D02*X66846D01*
X65862Y210949D02*X66846D01*
G54D12*X112457Y190610D02*X120331D01*
X112457Y188642D02*X120331D01*
X112457Y186673D02*X120331D01*
X112457Y184705D02*X120331D01*
X112457Y182736D02*X120331D01*
X112457Y180768D02*X120331D01*
X112457Y178799D02*X120331D01*
G54D29*X129619Y184476D02*Y177570D01*
X132178Y184476D02*Y177570D01*
X134736Y184476D02*Y177570D01*
X137295Y184476D02*Y177570D01*
G54D12*X112457Y176831D02*X120331D01*
X112457Y174862D02*X120331D01*
X112457Y172894D02*X120331D01*
X112457Y170925D02*X120331D01*
X112457Y168957D02*X120331D01*
X112457Y166988D02*X120331D01*
X112457Y165020D02*X120331D01*
X112457Y163051D02*X120331D01*
X112457Y161083D02*X120331D01*
G54D29*X137295Y204492D02*Y197586D01*
X134736Y204492D02*Y197586D01*
X132178Y204492D02*Y197586D01*
X129619Y204492D02*Y197586D01*
G54D22*X142398Y205023D02*Y204039D01*
X147516Y205023D02*Y204039D01*
X142398Y199023D02*Y198039D01*
X147516Y199023D02*Y198039D01*
X142398Y193023D02*Y192039D01*
X147516Y193023D02*Y192039D01*
X124098Y212138D02*Y211154D01*
X118980Y212138D02*Y211154D01*
G54D23*X261612Y101599D02*X277360D01*
G54D24*X263580Y119315D02*X275391D01*
G54D23*X261612Y148843D02*X277360D01*
G54D24*X263580Y166560D02*X275391D01*
X263580Y131127D02*X275391D01*
G54D30*X9957Y10531D03*
G54D16*X72957Y29031D03*
X59957D03*
X202457Y29531D03*
X166957Y29031D03*
X155457D03*
X120457D03*
X106957Y29531D03*
G54D30*X270457Y11031D03*
G54D16*X214465Y29244D03*
X25072Y29611D03*
G54D14*X31591Y128654D03*
G54D16*X17220Y130031D03*
X28047Y48535D03*
X96748Y51094D03*
X93992Y57984D03*
X66457Y70531D03*
G54D14*X54457Y89531D03*
G54D16*X55803Y71961D03*
X45961Y86134D03*
X82457Y44531D03*
X81984Y130819D03*
X69457Y39031D03*
X82457Y58031D03*
X72457Y65531D03*
X66433Y60543D03*
X103244Y58181D03*
X118402Y83772D03*
X125094Y69598D03*
G54D14*X175957Y69531D03*
G54D16*X137457Y80031D03*
X121945Y101094D03*
G54D14*X149110Y101488D03*
G54D16*X253638Y84362D03*
X249957Y31031D03*
X253835Y71567D03*
X242457Y42531D03*
X253638Y118614D03*
Y130819D03*
X242457Y109531D03*
G54D14*X212957Y129031D03*
Y119031D03*
Y109531D03*
Y99531D03*
Y89531D03*
Y79531D03*
Y69531D03*
G54D16*X194957Y39531D03*
X199110Y57984D03*
X208559Y35150D03*
X214661Y52866D03*
G54D14*X205803Y53260D03*
G54D16*X194780Y62315D03*
G54D30*X9457Y294031D03*
G54D14*X88957Y299031D03*
G54D16*X100457Y298031D03*
G54D14*X106457Y292531D03*
X98457Y272531D03*
X101457Y255531D03*
X81457Y271531D03*
X106457Y280031D03*
X78244Y240661D03*
G54D16*X69957Y218031D03*
X72957Y202031D03*
X73323Y147157D03*
G54D14*X56457Y157031D03*
G54D16*X60528Y174913D03*
X51457Y167031D03*
G54D14*X11457Y156031D03*
Y144531D03*
X9150Y166055D03*
X35457Y228531D03*
X45957D03*
G54D16*X23957Y133531D03*
X47957Y131031D03*
X29425Y192039D03*
X23717Y198929D03*
X17417Y177669D03*
X3638Y181409D03*
X99457Y175031D03*
X90457Y176531D03*
X124457Y157031D03*
X95957Y162531D03*
X115449Y151488D03*
X105016Y180622D03*
X65646Y144402D03*
X85134Y144795D03*
X92811Y139283D03*
X123126Y136528D03*
X114957Y204531D03*
X97929Y213693D03*
X85457Y207031D03*
X91957Y219531D03*
G54D14*X131984Y211528D03*
G54D16*X123457Y202031D03*
X275882Y178654D03*
G54D14*X212957Y199531D03*
Y189531D03*
X266827Y181409D03*
X212957Y179531D03*
Y169531D03*
G54D16*X242457Y164531D03*
G54D14*X212957Y159531D03*
Y149531D03*
Y139531D03*
X175957Y249531D03*
X212957D03*
X212890Y239480D03*
Y229638D03*
X212957Y219531D03*
Y209531D03*
G54D16*X243457Y219031D03*
G54D14*X198957Y273531D03*
X155957Y285031D03*
X153957Y274031D03*
G54D16*X246957Y209031D03*
G54D14*X248457Y274031D03*
G54D30*X269957Y293531D03*
G54D16*X224457Y287031D03*
G54D14*X175457Y292031D03*
G54D16*X145957Y245031D03*
X150457Y239031D03*
X153957Y232031D03*
X156787Y226488D03*
G54D31*G54D32*G54D31*G54D32*G54D33*G54D32*G54D33*G54D32*G54D33*G54D32*G54D33*G54D32*G54D33*G54D32*G54D33*G54D32*G54D31*G54D33*G54D32*G54D33*G54D32*G54D33*G54D32*G54D33*G54D32*G54D33*G54D32*G54D33*G54D32*G54D33*G54D32*G54D33*G54D32*G54D33*G54D31*G54D32*G54D33*G54D32*G54D34*G54D33*G54D34*G54D32*G54D34*G54D33*G54D34*G54D33*G54D34*G54D35*G54D36*G54D34*G54D37*G54D34*G54D38*G54D34*G54D13*G54D39*G54D40*G54D37*G54D34*M02*
