M48
INCH
T72C0.100
T71C0.058
T70C0.030
T69C0.040
T68C0.090
T67C0.048
T66C0.145
T65C0.125
T64C0.020
T63C0.035
T62C0.038
%
T64
X000364Y018141
X001722Y013003
X001742Y017767
X002372Y019893
X002396Y013353
X002507Y002961
X002805Y004854
X002943Y019204
X004596Y008613
X004796Y013103
X005146Y016703
X005580Y007196
X005996Y002903
X006053Y017491
X006565Y014440
X006643Y006054
X006646Y007053
X006946Y003903
X006996Y021803
X007246Y006553
X007296Y020203
X007296Y002903
X007332Y014716
X008198Y013082
X008246Y005803
X008246Y004453
X008421Y009113
X008421Y008128
X008513Y014480
X008546Y020703
X009046Y017653
X009196Y021953
X009281Y013928
X009399Y005798
X009405Y009113
X009405Y008128
X009596Y016253
X009675Y005109
X009793Y021369
X009946Y017503
X010046Y029803
X010324Y005818
X010502Y018062
X010696Y002953
X011496Y020453
X011545Y015149
X011840Y008377
X012046Y002903
X012194Y010109
X012313Y013653
X012346Y020203
X012446Y015703
X012509Y006960
X013746Y008003
X014596Y024503
X015046Y023903
X015396Y023203
X015546Y002903
X015679Y022649
X016696Y002903
X019478Y006231
X019496Y003953
X019911Y005798
X020246Y002953
X020856Y003515
X021446Y002924
X021466Y005287
X022446Y028703
X024246Y016453
X024246Y010953
X024246Y004253
X024346Y021903
X024696Y020903
X024996Y003103
X025364Y013082
X025364Y011861
X025364Y008436
X025383Y007157
X027588Y017865
T70
X021496Y027053
T63
X000757Y009046
X000757Y008043
X000915Y016606
X001053Y002846
X001146Y015603
X001146Y014453
X003159Y012865
X003546Y022853
X004596Y022853
X005446Y008953
X005646Y015703
X007824Y024066
X008146Y027153
X008896Y029903
X009846Y027253
X010146Y025553
X010646Y029253
X010646Y028003
X013198Y021153
X014911Y010149
X015396Y027403
X015596Y028503
X017546Y029203
X017596Y024953
X017596Y006953
X019896Y027353
X020580Y005326
X021289Y023948
X021289Y022964
X021296Y024953
X021296Y021953
X021296Y020953
X021296Y019953
X021296Y018953
X021296Y017953
X021296Y016953
X021296Y015953
X021296Y014953
X021296Y013953
X021296Y012903
X021296Y011903
X021296Y010953
X021296Y009953
X021296Y008953
X021296Y007953
X021296Y006953
X022332Y003239
X024846Y027403
X026683Y018141
T62
X000757Y012039
X000757Y011039
X000757Y010039
X002163Y007157
X002276Y011853
X002276Y010853
X002276Y009853
X002596Y021953
X002596Y020953
X003163Y007157
X003396Y003853
X003580Y005661
X003596Y021953
X003596Y020953
X003896Y025503
X004163Y007157
X004396Y003853
X004580Y005661
X004596Y021953
X004596Y020953
X004896Y025503
X004896Y024703
X005396Y003853
X005580Y005661
X005596Y021953
X005596Y020953
X016596Y023953
X016596Y022953
X016596Y021953
X016596Y020953
X016596Y019953
X016596Y018953
X016596Y017953
X016596Y016953
X016596Y015953
X016596Y014953
X016596Y013953
X016596Y012953
X016596Y011953
X016596Y010953
X016596Y009953
X016596Y008953
X016596Y007953
X017596Y023953
X017596Y022953
X017596Y021953
X017596Y020953
X017596Y019953
X017596Y018953
X017596Y017953
X017596Y016953
X017596Y015953
X017596Y014953
X017596Y013953
X017596Y012953
X017596Y011953
X017596Y010953
X017596Y009953
X017596Y008953
X017596Y007953
X022346Y024903
X022346Y023903
X022346Y022903
X022346Y021903
X022346Y020903
X022346Y019903
X022346Y018903
X022346Y017903
X022346Y016903
X022346Y015903
X022346Y014903
X022346Y013903
X022346Y012903
X022346Y011903
X022346Y010903
X022346Y009903
X022346Y008903
X022346Y007903
X022346Y006903
X022346Y005903
X023346Y024903
X023346Y023903
X023346Y022903
X023346Y021903
X023346Y020903
X023346Y019903
X023346Y018903
X023346Y017903
X023346Y016903
X023346Y015903
X023346Y014903
X023346Y013903
X023346Y012903
X023346Y011903
X023346Y010903
X023346Y009903
X023346Y008903
X023346Y007903
X023346Y006903
X023346Y005903
X026996Y027703
X026996Y026703
X026996Y025703
T69
X022496Y027053
T67
X003896Y024703
X019546Y029703
X020546Y029703
X021546Y029703
T71
X022546Y029703
T68
X001996Y026603
X006796Y026603
T72
X000946Y029403
X000996Y001053
X026996Y029353
X027046Y001103
T65
X011295Y026295
X013146Y027476
T66
X013146Y025153
M30
